<svg xmlns="http://www.w3.org/2000/svg" width="21.642" height="21.642" viewBox="0 0 21.642 21.642">
    <defs>
        <style>
            .cls-1{fill:#2f3640}
        </style>
    </defs>
    <path id="Instagram" d="M1426.37-628.358a6.368 6.368 0 0 1-4.538-1.7 6.279 6.279 0 0 1-1.832-4.669v-8.945a5.977 5.977 0 0 1 6.326-6.327h8.989a6.213 6.213 0 0 1 4.581 1.789 6.254 6.254 0 0 1 1.746 4.538v8.989a6.246 6.246 0 0 1-1.789 4.625 6.443 6.443 0 0 1-4.581 1.7zm-3.185-18.5a4.348 4.348 0 0 0-1.178 3.185v8.945a4.384 4.384 0 0 0 1.178 3.229 4.51 4.51 0 0 0 3.185 1.134h8.9a4.511 4.511 0 0 0 3.185-1.134 4.264 4.264 0 0 0 1.265-3.185v-8.989a4.5 4.5 0 0 0-1.178-3.142 4.349 4.349 0 0 0-3.185-1.178h-8.988a4.437 4.437 0 0 0-3.183 1.135zm2.051 7.636a5.6 5.6 0 0 1 5.585-5.585 5.624 5.624 0 0 1 5.585 5.585 5.6 5.6 0 0 1-5.585 5.585 5.567 5.567 0 0 1-5.585-5.586zm2.007 0a3.594 3.594 0 0 0 3.578 3.578 3.594 3.594 0 0 0 3.578-3.578 3.594 3.594 0 0 0-3.578-3.578 3.594 3.594 0 0 0-3.578 3.577zm8.116-5.716a1.265 1.265 0 0 1 1.265-1.266 1.265 1.265 0 0 1 1.265 1.266 1.265 1.265 0 0 1-1.265 1.265 1.265 1.265 0 0 1-1.265-1.265z" class="cls-1" transform="translate(-1420 650)"/>
</svg>
