<svg xmlns="http://www.w3.org/2000/svg" width="97.528" height="72.671" viewBox="0 0 97.528 72.671">
  <g id="Icon" transform="translate(-990.277 -576.205)">
    <path id="Path_2054" data-name="Path 2054" d="M1076.33,637.907h1.3a8.664,8.664,0,0,0,8.677-8.652v-42.9a8.664,8.664,0,0,0-8.677-8.652h-77.17a8.664,8.664,0,0,0-8.677,8.652v42.9a8.664,8.664,0,0,0,8.677,8.652h43.725" transform="translate(0.001 0)" fill="#fff" stroke="#0096aa" stroke-linecap="square" stroke-miterlimit="10" stroke-width="3"/>
    <g id="Group_808" data-name="Group 808" transform="translate(1045.527 610.332)">
      <rect id="Rectangle_79" data-name="Rectangle 79" width="29.832" height="22.938" transform="translate(0 14.105)" fill="none" stroke="#0096aa" stroke-linecap="square" stroke-miterlimit="10" stroke-width="3"/>
      <path id="Path_2055" data-name="Path 2055" d="M1045.8,626.957a3.8,3.8,0,1,1-3.8-3.8A3.8,3.8,0,0,1,1045.8,626.957Z" transform="translate(-1027.084 -602.275)" fill="none" stroke="#0096aa" stroke-linecap="square" stroke-miterlimit="10" stroke-width="2.632"/>
      <line id="Line_5" data-name="Line 5" y2="2.567" transform="translate(14.916 28.479)" fill="none" stroke="#0096aa" stroke-linecap="square" stroke-miterlimit="10" stroke-width="2.632"/>
      <path id="Path_2056" data-name="Path 2056" d="M1054.4,616.035h0a7.822,7.822,0,0,0-7.823-7.822h-5.343a7.821,7.821,0,0,0-7.822,7.822v6.283" transform="translate(-1028.988 -608.213)" fill="none" stroke="#0096aa" stroke-linecap="square" stroke-miterlimit="10" stroke-width="3"/>
    </g>
    <path id="Path_2057" data-name="Path 2057" d="M1084.684,598.879H991.777V585.344h92.907" transform="translate(0 3.035)" fill="none" stroke="#0096aa" stroke-linecap="square" stroke-miterlimit="10" stroke-width="3"/>
  </g>
</svg>
