<svg xmlns="http://www.w3.org/2000/svg" width="74.762" height="60.777" viewBox="0 0 74.762 60.777"><path d="M64.633,32.368A45.077,45.077,0,0,0,53.07,43.8q-5.11,7.127-5.647,13.581l3.5-.269a12.116,12.116,0,0,1,9.278,3.9,14.663,14.663,0,0,1-.538,19.9,13.737,13.737,0,0,1-10.085,4.168,15.163,15.163,0,0,1-11.833-5.513Q32.9,74.052,32.9,64.639a45.42,45.42,0,0,1,6.051-22.59A54.59,54.59,0,0,1,54.683,24.3Zm43.028,0A43.279,43.279,0,0,0,96.232,43.8q-4.975,7.127-5.782,13.581l3.5-.269a12.544,12.544,0,0,1,9.412,3.9,14.306,14.306,0,0,1-.538,19.9A14.186,14.186,0,0,1,92.6,85.078a15.163,15.163,0,0,1-11.833-5.513q-4.841-5.513-4.841-14.925a45.42,45.42,0,0,1,6.051-22.59A54.59,54.59,0,0,1,97.711,24.3Z" transform="translate(-32.9 -24.3)" fill="#7e131d"/></svg>