<?xml version="1.0" encoding="utf-8"?>
<!-- Generator: Adobe Illustrator 17.0.0, SVG Export Plug-In . SVG Version: 6.00 Build 0)  -->
<!DOCTYPE svg PUBLIC "-//W3C//DTD SVG 1.1//EN" "http://www.w3.org/Graphics/SVG/1.1/DTD/svg11.dtd">
<svg version="1.1" id="Layer_1" xmlns="http://www.w3.org/2000/svg" xmlns:xlink="http://www.w3.org/1999/xlink" x="0px" y="0px"
	 width="54px" height="54px" viewBox="0 0 54 54" enable-background="new 0 0 54 54" xml:space="preserve">
<g id="Symbol_4_3" transform="translate(-51.5 -5579.5)">
	<rect id="Rectangle_649_copy_3" x="52" y="5580" fill="none" stroke="#161616" width="53" height="53"/>
	<path id="Path_264" fill="#161616" stroke="#161616" d="M71.901,5605.863h15.247c0.1,0,0.2,0,0.294,0.009
		c0.323,0.03,0.56,0.316,0.53,0.639c-0.022,0.24-0.189,0.441-0.42,0.509c-0.126,0.031-0.256,0.043-0.386,0.037H71.91
		c0.064,0.083,0.1,0.129,0.138,0.175c1.084,1.231,2.168,2.452,3.251,3.683c0.064,0.073,0.129,0.147,0.193,0.23
		c0.234,0.235,0.234,0.615-0.001,0.849c-0.234,0.234-0.614,0.234-0.849,0c-0.018-0.019-0.035-0.038-0.051-0.058
		c-0.386-0.432-0.772-0.873-1.157-1.3c-1.038-1.185-2.085-2.37-3.123-3.555c-0.099-0.106-0.185-0.223-0.257-0.349
		c-0.13-0.211-0.1-0.483,0.073-0.661c1.488-1.69,2.976-3.377,4.464-5.061c0.182-0.258,0.539-0.32,0.797-0.137
		c0.023,0.016,0.045,0.034,0.066,0.054c0.25,0.208,0.285,0.579,0.077,0.829c-0.018,0.022-0.038,0.043-0.059,0.062
		c-1.139,1.286-2.278,2.578-3.417,3.876C71.998,5605.744,71.947,5605.801,71.901,5605.863z"/>
</g>
</svg>
