<svg xmlns="http://www.w3.org/2000/svg" width="21.495" height="17.468" viewBox="0 0 21.495 17.468">
    <defs>
        <style>
            .cls-1{fill:#2f3640}
        </style>
    </defs>
    <path id="Twitter" d="M25.069 12.394a8.774 8.774 0 0 1-2.533.694 4.418 4.418 0 0 0 1.939-2.44 8.827 8.827 0 0 1-2.8 1.071 4.414 4.414 0 0 0-7.514 4.022 12.521 12.521 0 0 1-9.09-4.608 4.415 4.415 0 0 0 1.365 5.888 4.4 4.4 0 0 1-2-.552v.056a4.413 4.413 0 0 0 3.538 4.324A4.434 4.434 0 0 1 6.813 21a4.369 4.369 0 0 1-.83-.079 4.415 4.415 0 0 0 4.117 3.066 8.9 8.9 0 0 1-6.529 1.826 12.541 12.541 0 0 0 19.31-10.566q0-.287-.012-.571a8.932 8.932 0 0 0 2.2-2.282z" class="cls-1" transform="translate(-3.574 -10.326)"/>
</svg>
