<svg xmlns="http://www.w3.org/2000/svg" width="15.404" height="14.961" viewBox="0 0 15.404 14.961">
  <defs>
    <style>
      .cls-1 {
        fill: #f46036;
      }
    </style>
  </defs>
  <path id="iStock-1082922466" class="cls-1" d="M163.483,242.2l-3.117-1.024h0l-1.525-.5-1.711-.562a.828.828,0,0,0-.871.286l-3.926,5.464a.85.85,0,0,0,0,.926l3.926,5.465a.827.827,0,0,0,.871.286l2.151-.707h0l2.134-.7h0l2.067-.679a.841.841,0,0,0,.538-.749v-6.754A.841.841,0,0,0,163.483,242.2Z" transform="matrix(0.292, -0.956, 0.956, 0.292, -274.085, 86.663)"/>
</svg>
