<svg xmlns="http://www.w3.org/2000/svg" width="1103.172" height="386.938"><defs><linearGradient id="a" y1=".516" x2=".296" y2=".514" gradientUnits="objectBoundingBox"><stop offset="0" stop-color="#fff" stop-opacity=".302"/><stop offset="1" stop-color="#fff"/></linearGradient><linearGradient id="b" y1=".516" x2="1.082" y2=".513" gradientUnits="objectBoundingBox"><stop offset="0" stop-color="#0096aa"/><stop offset="1" stop-color="#2f4d7a"/></linearGradient><clipPath id="c"><path transform="translate(454 118)" fill="url(#a)" d="M0 0h991.172v386.938H0z"/></clipPath><clipPath id="e"><path transform="translate(454 118)" fill="url(#b)" d="M0 0h1103.172v386.938H0z"/></clipPath></defs><g clip-path="url(#c)" style="isolation:isolate" transform="translate(-454 -118)"><path d="M1023.481 403.714l-240.59-79.055L665.2 285.988l-132.094-43.4c-22.854-7.51-53.12 2.437-67.248 22.1L162.8 686.528c-14.136 19.671-14.136 51.852 0 71.516l303.063 421.851c14.128 19.664 44.394 29.611 67.248 22.094l166.047-54.562L863.9 1093.3l159.585-52.442c22.862-7.51 41.568-33.546 41.568-57.855V461.569c-.004-24.309-18.711-50.338-41.572-57.855z" transform="translate(316.783 -410.982)" fill="url(#a)"/></g><g clip-path="url(#e)" style="mix-blend-mode:multiply;isolation:isolate" transform="translate(-454 -118)"><path d="M1023.481 403.714l-240.59-79.055L665.2 285.988l-132.094-43.4c-22.854-7.51-53.12 2.437-67.248 22.1L162.8 686.528c-14.136 19.671-14.136 51.852 0 71.516l303.063 421.851c14.128 19.664 44.394 29.611 67.248 22.094l166.047-54.562L863.9 1093.3l159.585-52.442c21.261-6.984 147.636-15.374 160.642-38.172.823-1.435 94.547-11.465 94.547-13.167V468.084c-.004-24.308-232.332-56.853-255.193-64.37z" transform="translate(316.783 -410.982)" fill="url(#b)"/></g></svg>