<svg version="1.1" id="Layer_1" xmlns="http://www.w3.org/2000/svg" x="0" y="0" viewBox="0 0 372.4 377.5" xml:space="preserve"><style type="text/css">.st0{fill:#fff;stroke:#fff;stroke-width:2;stroke-miterlimit:10}</style><path transform="rotate(-45.001 289.84 82.65)" class="st0" d="M284.3 33.8h11.1v97.7h-11.1z"/><path class="st0" d="M112.9 259.6l9.9-79L295.5 7.9c8.9-9.1 23.5-9.2 32.5-.3l.3.3 36.3 36.3c9.1 8.9 9.2 23.5.3 32.5l-.3.3-172.8 172.7-78.9 9.9zm20.4-73.8l-7.6 61 61-7.6L356.8 69.1c4.7-4.6 4.8-12.1.3-16.8l-.3-.3-36.3-36.3c-4.7-4.7-12.3-4.7-17.1 0L133.3 185.8zm55.9 58.7z"/><path class="st0" d="M326.8 172.4v191.7H13.4V50.7h167V38.4H1v338.1h338.1V172.4z"/></svg>