<svg version="1.1" id="Layer_1" xmlns="http://www.w3.org/2000/svg" x="0" y="0" viewBox="0 0 13.4 15.6" xml:space="preserve"><style type="text/css">.st0{fill:#fff}</style><g id="Group_4657" transform="translate(-23.5 -150.5)"><path class="st0" d="M34.4 166.1H26c-1.4 0-2.5-1.1-2.5-2.5V153c0-1.4 1.1-2.5 2.5-2.5h8.4c1.4 0 2.5 1.1 2.5 2.5v10.6c0 1.4-1.1 2.5-2.5 2.5zM26 151.5c-.8 0-1.5.7-1.5 1.5v10.6c0 .8.7 1.5 1.5 1.5h8.4c.8 0 1.5-.7 1.5-1.5V153c0-.8-.7-1.5-1.5-1.5H26z" id="Rectangle_472"/><path class="st0" d="M33.2 155.7h-6c-.3 0-.5-.2-.5-.5s.2-.5.5-.5h6c.3 0 .5.2.5.5s-.2.5-.5.5z" id="Line_66"/><path class="st0" d="M33.2 158.6h-6c-.3 0-.5-.2-.5-.5s.2-.5.5-.5h6c.3 0 .5.2.5.5s-.2.5-.5.5z" id="Line_67"/><path class="st0" d="M30.5 161.9h-3.3c-.3 0-.5-.2-.5-.5s.2-.5.5-.5h3.3c.3 0 .5.2.5.5s-.2.5-.5.5z" id="Line_68"/></g></svg>