<svg version="1.1" id="Layer_1" xmlns="http://www.w3.org/2000/svg" x="0" y="0" viewBox="0 0 283.1 283" xml:space="preserve"><style type="text/css">.st0{fill:#fff}</style><g id="CASE_STUDY"><path class="st0" d="M34 197.4h170v7H34zm0-39.7h162v7H34zm0 79.3h170v7H34zm82-114.8h20v7h-20zm0-85.2h50v7h-50zm0 43.6h12v7h-12z"/><path class="st0" d="M221 152.7V273H10V10h211v30.3c.8.2 1.6.5 2.3.9 1.9 1.2 4 2 5.9 3.3.6.4 1 1.8 1.5 2.2.1.1.2-.9.4-.8V0H0v283h231V142.8c-2.7 3.8-6.1 7.2-10 9.9z"/><path class="st0" d="M254.9 98.6c0-35.4-28.7-64.2-64.2-64.2s-64.2 28.7-64.2 64.2c0 35.4 28.7 64.2 64.2 64.2 35.5-.1 64.2-28.8 64.2-64.2zm-64.2 59c-32.6 0-59-26.4-59-59s26.4-59 59-59 59 26.4 59 59-26.4 59-59 59z"/><path class="st0" d="M190.7 165.8c-37.1 0-67.2-30.1-67.2-67.2s30.1-67.2 67.2-67.2 67.2 30.1 67.2 67.2-30.1 67.1-67.2 67.2zm0-123.3c-30.9 0-56 25.1-56 56s25.1 56 56 56 56-25.1 56-56-25.1-55.9-56-56z"/><path class="st0" d="M279.4 176.4l-34.5-34.5c-3.2 4-6.9 7.7-10.9 10.9l34.5 34.5c1 1 2.6 1 3.6 0l7.3-7.3c1-1 1-2.6 0-3.6z"/><path class="st0" d="M270.3 191c-1.5 0-2.9-.6-3.9-1.6l-36.9-36.9 2.6-2.1c3.8-3.1 7.3-6.6 10.4-10.4l2.1-2.6 36.9 36.9c2.2 2.2 2.2 5.7 0 7.9l-7.3 7.3c-1 .9-2.4 1.5-3.9 1.5zm-31.9-38.1l31.9 31.9 6.6-6.6-31.9-31.9c-2 2.3-4.2 4.6-6.6 6.6z"/><path fill="none" stroke="#fff" stroke-width="8" stroke-miterlimit="10" d="M34 41h67v86H34z"/></g></svg>