<svg version="1.1" id="Layer_1" xmlns="http://www.w3.org/2000/svg" x="0" y="0" viewBox="0 0 16.7 20.7" xml:space="preserve"><style type="text/css">.st0{fill:#2f3640}</style><g id="Group_4709" transform="translate(-19.509 -16.404)"><path id="Path_653" class="st0" d="M36.2 37.1H19.5V16.4h16.7v20.7zM20.6 36H35V17.6H20.6V36z"/><path id="Path_655" class="st0" d="M31.5 27.7h-7.2c-.3.1-.7-.1-.8-.4s.1-.7.4-.8h7.5c.3-.1.7.1.8.4s-.1.7-.4.8c-.1.1-.2.1-.3 0z"/><path id="Path_656" class="st0" d="M31.5 30.7h-7.2c-.3.1-.7-.1-.8-.5-.1-.3.1-.7.5-.8h7.5c.3-.1.7.1.8.5s-.1.7-.5.8h-.3z"/><path id="Path_657" class="st0" d="M28.3 33.7h-4c-.3.1-.7-.1-.8-.4-.1-.3.1-.7.4-.8h4.3c.3-.1.7.1.8.5.1.3-.1.7-.5.8 0-.1-.1-.1-.2-.1z"/><path class="st0" d="M32.4 25h-8.6c-.5 0-.9-.4-.9-.9v-3.7c0-.5.4-.9.9-.9h8.6c.5 0 .9.4.9.9v3.7c.1.5-.4.9-.9.9zm-8.2-1.3h8v-3.1h-8v3.1z" id="Rectangle_528"/></g></svg>