<svg xmlns="http://www.w3.org/2000/svg" width="74.762" height="60.778"><path d="M31.733 8.068A45.077 45.077 0 0 0 20.17 19.5q-5.11 7.127-5.647 13.581l3.5-.269a12.116 12.116 0 0 1 9.278 3.9 14.663 14.663 0 0 1-.538 19.9 13.737 13.737 0 0 1-10.085 4.168 15.163 15.163 0 0 1-11.833-5.513Q0 49.752 0 40.339a45.42 45.42 0 0 1 6.051-22.59A54.59 54.59 0 0 1 21.783 0zm43.028 0A43.279 43.279 0 0 0 63.332 19.5q-4.975 7.127-5.782 13.581l3.5-.269a12.544 12.544 0 0 1 9.412 3.9 14.306 14.306 0 0 1-.538 19.9A14.186 14.186 0 0 1 59.7 60.778a15.163 15.163 0 0 1-11.833-5.513q-4.841-5.513-4.841-14.925a45.42 45.42 0 0 1 6.051-22.59A54.59 54.59 0 0 1 64.811 0z" fill="#53c0a5"/></svg>