<svg version="1.1" id="Layer_1" xmlns="http://www.w3.org/2000/svg" x="0" y="0" viewBox="0 0 16.7 20.7" xml:space="preserve"><style type="text/css">.st0{fill:#2f3640}</style><g id="sheets-1" transform="translate(-2 -7.297)"><path id="Path_653" class="st0" d="M18.7 28H2V7.3h16.7V28zM3.1 26.8h14.3V8.4H3.1v18.4z"/><path id="Path_655" class="st0" d="M14 12.5H6.8c-.3.1-.7-.1-.8-.5-.1-.3.1-.7.5-.8H14c.3-.1.7.1.8.5.1.3-.1.7-.5.8H14z"/><path id="Path_656" class="st0" d="M14 16.5H6.8c-.4.1-.7-.1-.8-.5-.1-.3.1-.7.5-.8H14c.3-.1.7.1.8.5.1.3-.1.7-.5.8H14z"/><path id="Path_657" class="st0" d="M10.7 20.7h-4c-.3.1-.7-.1-.8-.5-.1-.3.1-.7.5-.8h4.3c.3-.1.7.1.8.5.1.3-.1.7-.5.8h-.3z"/></g></svg>