<svg xmlns="http://www.w3.org/2000/svg" width="626.427" height="400.292"><g style="isolation:isolate" fill="#fff"><path d="M93.832 183.871a19.824 19.824 0 0 1 5.921 14.167v6.449H86.616v-3a14.009 14.009 0 0 0-2.128-7.784q-2.115-3.291-7.15-3.291a8.247 8.247 0 0 0-4.374 1.031 8.577 8.577 0 0 0-2.709 2.643 10.7 10.7 0 0 0-1.414 3.793 24.384 24.384 0 0 0-.4 4.454 42.5 42.5 0 0 0 .2 4.507 8.67 8.67 0 0 0 .965 3.225 7.2 7.2 0 0 0 2.26 2.445 20.415 20.415 0 0 0 4.057 2.062l10.044 3.965a24.886 24.886 0 0 1 7.084 3.965 16.824 16.824 0 0 1 4.255 5.207 24.263 24.263 0 0 1 1.929 7.031 69.4 69.4 0 0 1 .515 8.947 47.574 47.574 0 0 1-1.15 10.758 22.678 22.678 0 0 1-3.74 8.445 18.581 18.581 0 0 1-7.084 5.67 25 25 0 0 1-10.692 2.062 23.261 23.261 0 0 1-8.894-1.731 20.868 20.868 0 0 1-7.084-4.639 22.467 22.467 0 0 1-4.7-6.885 20.96 20.96 0 0 1-1.744-8.577v-4.89h13.15v4.123a10.731 10.731 0 0 0 2.115 6.5c1.427 1.93 3.806 2.908 7.163 2.908a11.446 11.446 0 0 0 5.207-.978 6.9 6.9 0 0 0 2.907-2.762 10.044 10.044 0 0 0 1.216-4.322c.132-1.678.2-3.542.2-5.6a55.154 55.154 0 0 0-.264-5.921 10.573 10.573 0 0 0-1.018-3.74 7.454 7.454 0 0 0-2.392-2.326 32.074 32.074 0 0 0-3.965-1.93l-9.41-3.859q-8.5-3.489-11.405-9.251a31.718 31.718 0 0 1-2.894-14.366 33.555 33.555 0 0 1 1.414-9.793 22.467 22.467 0 0 1 4.255-8 19.3 19.3 0 0 1 6.885-5.286 23.035 23.035 0 0 1 9.991-2.009 21.845 21.845 0 0 1 8.96 1.811 23.141 23.141 0 0 1 7.057 4.771zm58.017 64.03q0 4.89-2.326 7.216a8.379 8.379 0 0 1-11.59 0q-2.326-2.313-2.326-7.216v-69.832H122.47v71.127a20.206 20.206 0 0 0 1.678 8.3 22.282 22.282 0 0 0 11.392 11.405 19.956 19.956 0 0 0 8.181 1.678 20.4 20.4 0 0 0 8.26-1.692 21.727 21.727 0 0 0 6.833-4.639A20.788 20.788 0 0 0 165 249.183v-71.114h-13.15zm66.859-21.3h-.251L201.58 178.03h-12.595v91.73h13.15v-55.744h.251l12.885 39.423h6.608l13.021-39.423h.264V269.8H248.3v-91.731h-12.755zm84.581 0h-.251l-16.877-48.571h-12.595v91.73h13.15v-55.744h.251l12.885 39.423h6.608l13-39.423h.264V269.8h13.136v-91.731h-12.748zm55.189 43.159h13.136v-91.691h-13.136zm60.581 0v-79.321h15.211v-12.37h-43.612v12.37h15.211V269.8zm207.368-162.2v185.116c0 10.454-8.167 21.225-18.2 24.066l-295.015 83.55-295.068-83.5C8.1 313.954 0 303.17 0 292.676V107.56c0-10.44 8.167-21.225 18.2-24.066l295.015-83.5 295.042 83.5c10.003 2.845 18.17 13.589 18.17 24.066zm-5.828 0c0-7.929-6.4-16.335-13.982-18.5l-293.4-83.035-293.5 83.127c-7.573 2.141-13.969 10.573-13.969 18.5v185.024c0 7.929 6.4 16.348 13.969 18.5l293.5 83.087L606.6 311.178c7.586-2.141 13.982-10.573 13.982-18.5zm-383.389-.5a3.476 3.476 0 0 0 3.621 1.176l8.947-2.907-16.322-22.469 16.52-22.731-9.145-2.974a3.476 3.476 0 0 0-3.621 1.176l-16.31 22.47a3.436 3.436 0 0 0 0 3.806zm16.877-3.119l13.15-4.282a3.449 3.449 0 0 0 2.233-3.079V68.828a3.449 3.449 0 0 0-2.233-3.079l-12.951-4.2-15.595 21.33zm52.44-11.154V79.902c0-4.44 3.185-7.414 10.824-7.414s10.81 2.974 10.81 7.414v12.872c0 4.44-3.2 7.4-10.81 7.4s-10.824-2.947-10.824-7.388zm5.141-.436c0 2.326 1.626 3.621 5.683 3.621s5.67-1.322 5.67-3.621V80.339c0-2.313-1.612-3.608-5.67-3.608s-5.683 1.322-5.683 3.608zm28.44 7.837a12.938 12.938 0 0 0 8.656-3.106l.106 1.467c0 .753.264 1.031 1.031 1.031h2.96c.7 0 .965-.278.965-1.031V74.021c0-.753-.264-1.084-.965-1.084h-3.185c-.714 0-.991.33-.991 1.084v18.872a11.313 11.313 0 0 1-7.018 2.643c-2.974 0-3.965-1.322-3.965-3.568V74.021c0-.753-.33-1.084-1.031-1.084h-3.132c-.714 0-.978.33-.978 1.084V93.33c-.079 4 2.564 6.859 7.546 6.859zm19.07-.568h3.145c.7 0 .965-.33.965-1.084V79.902a12.344 12.344 0 0 1 7.361-2.762c2.974 0 3.965 1.322 3.965 3.568v17.828c0 .753.33 1.084 1.031 1.084h3.145c.7 0 .965-.33.965-1.084v-19.11c0-3.965-2.643-6.925-7.625-6.925a13.639 13.639 0 0 0-8.974 3.2l-.106-1.731c0-.7-.277-1.031-1.031-1.031h-2.868c-.753 0-1.031.33-1.031 1.031v24.568c.026.753.3 1.084 1.057 1.084zm23.577-22.36h2.974v15.37c0 4.771 2.273 7.414 9.9 7.414h1.784c.7 0 1.018-.264 1.018-1.031V96.74c0-.753-.317-1.07-1.018-1.07h-1.018c-4.057 0-5.471-1.322-5.471-3.568V77.26h5.551c.7 0 1.031-.33 1.031-1.084v-2.247c0-.7-.33-.965-1.031-.965h-5.564v-4.9c0-.753-.264-1.084-.978-1.084h-3.185c-.7 0-1.031.33-1.031 1.084v4.9h-.33l-2.643.291c-.753 0-1.031.317-1.031 1.031v1.89c.011.766.287 1.084 1.042 1.084zm19.163-6.013V67.4c0-.159.066-.225.211-.225h1.665c1.322 0 1.652.661 1.652 1.242v.33a1.084 1.084 0 0 1-.687 1.084l.581 1.414c0 .132 0 .225-.211.225h-.621c-.132 0-.145-.079-.211-.225l-.529-1.322h-.819v1.322c0 .145 0 .225-.2.225h-.621c-.145.013-.212-.066-.212-.211zm1.031-2.048h.74c.41 0 .7-.2.7-.489v-.238c0-.317-.264-.5-.7-.5h-.74zm-3.106 1.546V67.85c0-1 .449-2.392 3.753-2.392s3.74 1.322 3.74 2.392v2.894c0 1-.423 2.392-3.74 2.392s-3.753-1.374-3.753-2.379zm1.018.093c0 .7.515 1.322 2.736 1.322s2.709-.674 2.709-1.322v-3.092c0-.7-.489-1.322-2.709-1.322s-2.736.674-2.736 1.322zM282.2 99.607h3.463c.793 0 1.084-.344 1.084-1.084V84.806h1.353l9.819 13.731a2.009 2.009 0 0 0 1.652 1.084h4.48c.753 0 .912-.568.515-1.084l-11.81-16.177 11.352-15.555c.41-.555.238-1.07-.5-1.07h-3.753a2.392 2.392 0 0 0-1.758 1.07L288.1 80.669h-1.322V66.806c0-.74-.291-1.084-1.084-1.084h-3.463c-.74 0-1.031.344-1.031 1.084v31.718c-.04.753.291 1.1.991 1.1z"/><path d="M150.316 295.002h4.308l10.176 26.061 10.189-26.061h4.3l-12.172 30.185h-4.665zm32.894 0h3.753v30.185h-3.753zm20.591 18.185h-6.026v12h-3.754v-30.185h12.145a10.573 10.573 0 0 1 4.9 1.11 8.049 8.049 0 0 1 3.357 3.185 9.5 9.5 0 0 1 1.2 4.8 9.172 9.172 0 0 1-1.07 4.546 7.679 7.679 0 0 1-2.855 2.987 8.962 8.962 0 0 1-3.965 1.242l8.154 12.317h-4.441zm6.238-13.216a6 6 0 0 0-4.335-1.612h-7.929v11.5h7.929a5.96 5.96 0 0 0 4.335-1.626 5.524 5.524 0 0 0 1.678-4.163 5.445 5.445 0 0 0-1.678-4.11zm18.514-1.629h-9.555v-3.34h22.85v3.34h-9.595v26.841H228.5zm18.313-3.34h3.767v18.4a9.423 9.423 0 0 0 2.207 6.608 9.555 9.555 0 0 0 12.674 0 9.37 9.37 0 0 0 2.22-6.608v-18.4h3.753v18.5a12.528 12.528 0 0 1-3.145 9.04c-2.088 2.181-5.154 3.278-9.159 3.278s-7.07-1.1-9.172-3.278a12.529 12.529 0 0 1-3.145-9zm49.511 23.484h-15.291l-2.643 6.7h-4.163l12.132-30.185h4.652l12.176 30.186h-4.163zm-14.207-3.344h13.084l-6.514-16.8zm24.978-20.14h3.767v26.828h14.023v3.357h-17.79zm34.757 0h19.824v3.34h-16.07v9.74h15.7v3.344h-15.7v10.4h16.018v3.357h-19.825zm22.625 0h4.3L379 321.064l10.189-26.061h4.3l-12.172 30.185h-4.665zm32.895 0h19.824v3.34h-16.07v9.74h15.7v3.344h-15.7v10.4h16.013v3.357h-19.82zm29.444 5.84v24.343h-3.7v-30.183h3.846l17.379 23.788v-23.788h3.753v30.185h-3.621zm35.802-2.5h-9.542v-3.34h22.89v3.34h-9.581v26.841h-3.767zm-3.423-77.956v-42.29h20.286v6.33h-13.017v10.9h9.731v6.33h-9.727v18.73zm33.053 0h-7.031l7.8-42.29h9.026l7.8 42.29h-7.044l-1.322-9.383h-7.93zm2.352-15.7h5.855l-2.868-18.172h-.119zm25.85 15.7v-42.29h7.269v35.987h11.431v6.33zm29.418 0v-42.29h7.269v35.987h11.431v6.33zm-90.673 48.832v-5.617c9.026-13.216 13.956-20.458 13.956-26.669 0-3.344-1.322-4.811-3.291-4.811-2.339 0-3.515 1.824-3.515 4.4v2.868h-6.912v-1.982c0-6.225 3.965-11.022 10.784-11.022a9.449 9.449 0 0 1 9.846 9.37c0 6.687-2.115 11.6-13.48 27.555h12.832v5.974zm30.105-31.295c0-7.929 3.04-11.6 10.308-11.6s10.322 3.634 10.322 11.6v20.273c0 7.929-3.053 11.6-10.322 11.6s-10.308-3.621-10.308-11.6zm13.7-1.824c0-2.749-1.229-4.044-3.4-4.044s-3.4 1.322-3.4 4.044v23.921c0 2.749 1.229 4.044 3.4 4.044s3.4-1.322 3.4-4.044zm14.846 33.119v-5.617c9.013-13.216 13.943-20.458 13.943-26.669 0-3.344-1.322-4.811-3.278-4.811-2.352 0-3.515 1.824-3.515 4.4v2.868h-6.93v-1.982c0-6.225 3.965-11.022 10.784-11.022a9.436 9.436 0 0 1 9.846 9.37c0 6.687-2.1 11.6-13.48 27.555h12.85v5.974zm30.093-31.295c0-7.929 3.053-11.6 10.322-11.6s10.308 3.634 10.308 11.6v20.273c0 7.929-3.04 11.6-10.308 11.6s-10.322-3.621-10.322-11.6zm13.678-1.824c0-2.749-1.229-4.044-3.4-4.044s-3.41 1.322-3.41 4.044v23.921c0 2.749 1.242 4.044 3.41 4.044s3.4-1.322 3.4-4.044zM58.903 127.849h10.255a16.123 16.123 0 0 1 8.035 1.956 13.546 13.546 0 0 1 5.419 5.392 16.269 16.269 0 0 1 0 15.317 13.8 13.8 0 0 1-5.418 5.286 16.256 16.256 0 0 1-8.035 1.956H58.903zm10.255 26.643a11.789 11.789 0 0 0 6.145-1.546 10.308 10.308 0 0 0 3.965-4.2 12.5 12.5 0 0 0 1.322-5.894 12.846 12.846 0 0 0-1.322-5.921 10.176 10.176 0 0 0-3.965-4.2 11.894 11.894 0 0 0-6.2-1.559h-6.46v23.326zm25.163-26.643h3.73v30.026h-3.73zm15.516 6.939a14.445 14.445 0 0 1 5.577-5.485 15.859 15.859 0 0 1 7.8-1.956 14.3 14.3 0 0 1 11.63 5.617l-2.96 1.85a10.361 10.361 0 0 0-3.753-3.013 11.075 11.075 0 0 0-4.916-1.123 11.511 11.511 0 0 0-5.894 1.546 11.009 11.009 0 0 0-4.15 4.335 13.89 13.89 0 0 0 0 12.581 11.088 11.088 0 0 0 4.15 4.361 11.287 11.287 0 0 0 5.894 1.573 9.251 9.251 0 0 0 6.912-2.643 11.7 11.7 0 0 0 3.145-6.7h-12.3v-3.33h16.348a19.532 19.532 0 0 1-1.678 8.339 12.859 12.859 0 0 1-4.943 5.643 14.406 14.406 0 0 1-7.784 2.022 15.225 15.225 0 0 1-7.59-1.958 14.537 14.537 0 0 1-5.511-5.511 17.035 17.035 0 0 1 0-16.15zm36.686-6.939h3.74v30.026h-3.74zm22.11 3.32h-9.476v-3.32h22.731v3.32h-9.529v26.709h-3.727zm38.022 19.992H191.47l-2.643 6.608h-4.137l12.04-29.973h4.626l12.079 30.079h-4.137zm-14.115-3.317h12.991l-6.476-16.678zm28.758-19.995h3.727v26.643h13.929v3.383h-17.656zm46.982 0h12.04a10 10 0 0 1 5.06 1.219 8.1 8.1 0 0 1 3.225 3.277 9.78 9.78 0 0 1 0 9.079 8.286 8.286 0 0 1-3.264 3.277 10 10 0 0 1-5.009 1.216h-8.312v11.894h-3.74zm15.859 4.916a5.96 5.96 0 0 0-4.308-1.6h-7.863v11.418h7.863a5.719 5.719 0 0 0 4.308-9.819zm24.131 13.216h-5.974v11.894h-3.726v-30.026h12a10.572 10.572 0 0 1 4.877 1.1 8.115 8.115 0 0 1 3.33 3.172 9.344 9.344 0 0 1 1.189 4.758 9.251 9.251 0 0 1-1.057 4.52 7.824 7.824 0 0 1-2.828 2.96 8.908 8.908 0 0 1-3.9 1.242l8.088 12.225h-4.414zm6.264-13.216a5.96 5.96 0 0 0-4.308-1.6h-7.863v11.458h7.863a5.868 5.868 0 0 0 4.308-1.612 5.524 5.524 0 0 0 1.665-4.137 5.445 5.445 0 0 0-1.665-4.11zm15.953 2.168a13.9 13.9 0 0 1 5.286-5.551 15.753 15.753 0 0 1 15.489 0 14.141 14.141 0 0 1 5.286 5.551 17.63 17.63 0 0 1 0 15.859 14.273 14.273 0 0 1-5.286 5.564 15.859 15.859 0 0 1-15.489 0 14.022 14.022 0 0 1-5.286-5.564 17.855 17.855 0 0 1 0-15.859zm22.652 1.665a10.335 10.335 0 0 0-9.634-5.921 10.744 10.744 0 0 0-5.828 1.573 10.48 10.48 0 0 0-3.833 4.348 15.264 15.264 0 0 0 0 12.542 10.4 10.4 0 0 0 3.859 4.361 10.7 10.7 0 0 0 15.436-4.361 14.986 14.986 0 0 0 0-12.542zm21.224-5.429h-9.476v-3.32h22.731v3.32h-9.515v26.709h-3.74zm22.11-3.32h19.625v3.32H400.24v9.661h15.595v3.33H400.24v10.335h15.859v3.383h-19.626zm35.907 28.597a14.286 14.286 0 0 1-5.524-5.511 17.062 17.062 0 0 1 0-16.11 14.233 14.233 0 0 1 5.524-5.524 15.7 15.7 0 0 1 7.7-1.956 13.6 13.6 0 0 1 6.714 1.6 14.431 14.431 0 0 1 4.784 4.335l-3.145 1.758a9.818 9.818 0 0 0-3.529-3.145 9.938 9.938 0 0 0-4.824-1.216 10.982 10.982 0 0 0-9.912 5.894 13.07 13.07 0 0 0-1.507 6.3 12.9 12.9 0 0 0 1.507 6.277 11.325 11.325 0 0 0 4.11 4.348 11.075 11.075 0 0 0 5.8 1.573 10.07 10.07 0 0 0 4.824-1.189 9.529 9.529 0 0 0 3.529-3.172l3.185 1.758a13.639 13.639 0 0 1-11.537 5.934 15.7 15.7 0 0 1-7.7-1.956zm35.458-25.277h-9.476v-3.32h22.691v3.32h-9.529v26.709h-3.687zm22.097-3.32h3.727v30.026h-3.727zm15.343 7.084a13.9 13.9 0 0 1 5.286-5.551 15.727 15.727 0 0 1 15.476 0 14.088 14.088 0 0 1 5.286 5.551 17.63 17.63 0 0 1 0 15.859 14.207 14.207 0 0 1-5.286 5.564 15.859 15.859 0 0 1-15.476 0 14.022 14.022 0 0 1-5.286-5.564 17.854 17.854 0 0 1 0-15.859zm22.652 1.665a10.374 10.374 0 0 0-9.634-5.921 10.744 10.744 0 0 0-5.828 1.573 10.387 10.387 0 0 0-3.833 4.348 15.264 15.264 0 0 0 0 12.542 10.4 10.4 0 0 0 3.861 4.361 10.744 10.744 0 0 0 5.8 1.573 10.348 10.348 0 0 0 9.634-5.934 14.987 14.987 0 0 0 0-12.542zm18.753-2.96v24.238h-3.727v-30.027h3.819l17.26 23.683v-23.683h3.727v30.026h-3.595z"/></g></svg>