<svg version="1.1" id="Layer_1" xmlns="http://www.w3.org/2000/svg" x="0" y="0" viewBox="0 0 13.9 21.7" xml:space="preserve"><style type="text/css">.st0{fill:#2f3640}</style><path class="st0" d="M2.7 5.2h8.6v1H2.7zm0 4.1h8.6v1H2.7zm0 4.2h8.6v1H2.7z"/><path class="st0" d="M11.4 0H2.5C1.1 0 0 1.1 0 2.5v16.7c0 1.4 1.1 2.5 2.5 2.5h8.9c1.4 0 2.5-1.1 2.5-2.5V2.5c0-1.4-1.1-2.5-2.5-2.5zm1.5 2.7v15.4H1V2.7h11.9zM2.5 1h8.9c.5 0 1 .3 1.3.7H1.2c.3-.4.8-.7 1.3-.7zm8.9 19.7H2.5c-.8 0-1.5-.7-1.5-1.5v-.1h11.9v.1c0 .8-.6 1.5-1.5 1.5z"/><path class="st0" d="M7.8 19.4H6.1c-.3 0-.5.2-.5.5s.2.5.5.5h1.7c.3 0 .5-.2.5-.5s-.2-.5-.5-.5z"/></svg>