<svg version="1.1" id="Layer_1" xmlns="http://www.w3.org/2000/svg" x="0" y="0" viewBox="0 0 403.4 347.2" xml:space="preserve"><style type="text/css">.st0{fill:#fff;stroke:#fff;stroke-miterlimit:10}</style><path class="st0" d="M359.9 39.2v-36h-6c-10.1-.3-19.3-.9-28.1-1.4-40.3-2.4-69.5-4.1-125.2 19.4l-.1.1-.1-.1C144.5-2.3 115.3-.6 75 1.8c-8.8.5-18 1.1-28.1 1.4l-5.1.2v35.9H.5v307.5h402.4V39.2h-43zm-307.7 223c.1-5.1.1-10.1.1-15.2V13.5c8.3-.3 15.9-.8 23.3-1.2 38.5-2.3 66.5-3.9 119.1 18v180.2h10.5V30.6C258.3 8.4 286.4 10 325.1 12.3c7.7.5 15.6.9 24.2 1.3V247c0 5 .1 10.1.1 15.2.2 10.3.3 20.9-.2 31.2-47.7-18.8-106.6-15.6-149.3 8.7-42.9-24.4-99.9-27.6-147.6-8.7-.4-10.3-.3-20.9-.1-31.2zm341.9 75.7H9.3v-290h32.5V247c0 5-.1 10-.1 15-.2 13-.5 47-.5 47l8.6-3.1c46.3-20.9 103.5-18.6 145.8 5.8l4 2.3.4.2.4-.2 4-2.3c42.1-24.3 101.4-26.6 147.5-5.8l8.6 3.1s-.3-34-.5-47c-.1-5-.1-10-.1-15V48h34.3l-.1 289.9z"/><path class="st0" d="M46.9 3.2l-5.1.2v-.2zm153.4 310.9l-.2.3-.1-.1zm-.3.2l-.2.1-.2-.3zM41.8 3.4v4.9l-.2-4.9z"/></svg>