<svg xmlns="http://www.w3.org/2000/svg" width="162.68" height="25.97"><path d="M4.34 25.62v-11.2h5.81v-3.78H4.34V4.13h7.77V.35H0v25.27zM21.175 5.39h.07l1.715 10.85h-3.5zM18.83 20.02h4.76l.77 5.6h4.2L23.905.35h-5.39L13.86 25.62h4.2zm23.205 5.6v-3.78H35.21V.35h-4.34v25.27zm13.615 0v-3.78h-6.825V.35h-4.34v25.27zM78.12 6.125C77.735 2.555 75.635 0 72.1 0c-4.27 0-6.72 2.275-6.72 6.3 0 7.245 8.82 8.575 8.82 13.58a2.23 2.23 0 0 1-2.52 2.31c-1.4 0-2.415-1.26-2.59-3.815l-4.13.595c.175 3.78 2.485 7 6.51 7 4.06 0 6.86-2.31 6.86-6.475 0-6.86-8.82-8.925-8.82-13.23 0-1.575.77-2.485 2.17-2.485.98 0 2.135.63 2.31 2.8zm3.5 13.125c0 4.34 2.52 6.72 6.65 6.72s6.65-2.38 6.65-6.72V.35h-4.34v19.075c0 1.855-.735 2.765-2.31 2.765s-2.31-.91-2.31-2.765V.35h-4.34zM110.81.35l-3.08 14.77h-.07L104.58.35h-5.7v25.27h3.78V5.88h.07l3.915 19.74h2.1l3.92-19.74h.07v19.74h3.78V.35zm21.385 0l-3.08 14.77h-.07L125.965.35h-5.705v25.27h3.78V5.88h.07l3.92 19.74h2.1l3.92-19.74h.07v19.74h3.78V.35zm14.63 25.27V.35h-4.34v25.27zm7.315 0h4.34V4.13h4.2V.35h-12.74v3.78h4.2z" fill="#e57633"/></svg>