<svg xmlns="http://www.w3.org/2000/svg" width="1012.92" height="527"><defs><clipPath id="a"><path fill="none" d="M-87.08 0h1100v527h-1100z"/></clipPath><linearGradient id="b" x1="157.49" y1="659.26" x2="156.79" y2="659.52" gradientTransform="matrix(1018.61 0 0 -1313.52 -159594.95 866395.96)" gradientUnits="userSpaceOnUse"><stop offset="0" stop-color="#048abc"/><stop offset="1" stop-color="#2f4d7a"/></linearGradient></defs><g clip-path="url(#a)"><path d="M971.86-170.61L703.39-278.28l-131.32-52.67-147.4-59.12c-25.5-10.23-59.27 3.32-75 30.1L11.46 214.57c-15.77 26.8-15.77 70.63 0 97.4l338.18 574.56c15.76 26.78 49.53 40.33 75 30.09L610 842.31l183.82-73.72 178.08-71.43c25.51-10.23 46.38-45.69 46.38-78.8V-91.82c-.04-33.1-20.91-68.55-46.42-78.79z" fill="url(#b)" opacity=".98"/></g></svg>