<svg xmlns="http://www.w3.org/2000/svg" width="1016" height="527"><defs><clipPath id="clip-path"><path id="Rectangle_51" data-name="Rectangle 51" fill="#fff" d="M0 0h1016v527H0z"/></clipPath><linearGradient id="linear-gradient" x1=".188" y1=".193" x2=".92" y2=".641" gradientUnits="objectBoundingBox"><stop offset="0" stop-color="#0096aa"/><stop offset="1" stop-color="#2f4d7a"/></linearGradient></defs><g id="Mask_Group_1" data-name="Mask Group 1" opacity=".9" clip-path="url(#clip-path)"><path id="iStock-1082922466" d="M1124.419 462.947L855.958 355.275l-131.323-52.668-147.4-59.115c-25.5-10.229-59.274 3.319-75.039 30.1L164.027 848.133c-15.774 26.792-15.774 70.621 0 97.4L502.2 1520.086c15.765 26.782 49.537 40.329 75.039 30.091l185.283-74.312 183.825-73.719 178.073-71.425c25.51-10.228 46.384-45.689 46.384-78.8V541.744c-.004-33.108-20.875-68.559-46.385-78.797z" transform="translate(-65.482 -633.559)" fill="url(#linear-gradient)"/></g></svg>