<svg version="1.1" id="Layer_1" xmlns="http://www.w3.org/2000/svg" x="0" y="0" viewBox="0 0 229 279" xml:space="preserve"><style type="text/css">.st1{stroke:#fff;stroke-width:2;stroke-miterlimit:10}.st1,.st2{fill:#fff}</style><g id="REPORT"><path fill="none" stroke="#fff" stroke-width="9" stroke-miterlimit="10" d="M4.5 4.5h220v270H4.5z"/><path class="st1" d="M32.6 110.1h64.1v7H32.6zm0-31.5h64.1v7H32.6zm0-31.5h64.1v7H32.6z"/><path class="st2" d="M153.1 42.7v78.8c-21.8-2.3-37.5-21.8-35.3-43.5 1.9-18.6 16.7-33.3 35.3-35.3zm8 0v35.4h35.3c-1.9-18.7-16.6-33.5-35.3-35.4zm0 43.4v35.4c18.7-1.9 33.5-16.7 35.3-35.4h-35.3z"/><path class="st1" d="M129.1 229.7h64.1v7h-64.1zm0-31.5h64.1v7h-64.1zm0-31.5h64.1v7h-64.1z"/><path class="st2" d="M44.6 244.2l18.2-36.9 23.5 14 24.4-57.2-8.3-5-20.3 47.7-23.5-14-22.8 46.1 8.8 5.3z"/></g></svg>