<svg xmlns="http://www.w3.org/2000/svg" width="97.528" height="72.671"><g id="Icon" transform="translate(-990.277 -576.205)" stroke="#0096aa" stroke-linecap="square" stroke-miterlimit="10"><path id="Path_2054" data-name="Path 2054" d="M1076.331 637.907h1.3a8.664 8.664 0 0 0 8.677-8.652v-42.9a8.664 8.664 0 0 0-8.677-8.652h-77.17a8.664 8.664 0 0 0-8.677 8.652v42.9a8.664 8.664 0 0 0 8.677 8.652h43.725" fill="#fff" stroke-width="3"/><g id="Group_808" data-name="Group 808" transform="translate(1045.527 610.332)" fill="none"><path id="Rectangle_79" data-name="Rectangle 79" stroke-width="3" d="M0 14.105h29.832v22.938H0z"/><path id="Path_2055" data-name="Path 2055" d="M18.716 24.682a3.8 3.8 0 1 1-3.8-3.8 3.8 3.8 0 0 1 3.8 3.8z" stroke-width="2.632"/><path id="Line_5" data-name="Line 5" stroke-width="2.632" d="M14.916 28.479v2.567"/><path id="Path_2056" data-name="Path 2056" d="M25.412 7.822h0A7.822 7.822 0 0 0 17.589 0h-5.343a7.821 7.821 0 0 0-7.822 7.822v6.283" stroke-width="3"/></g><path id="Path_2057" data-name="Path 2057" d="M1084.684 601.914h-92.907v-13.535h92.907" fill="none" stroke-width="3"/></g></svg>