<svg version="1.1" id="Layer_1" xmlns="http://www.w3.org/2000/svg" x="0" y="0" width="54" height="54" xml:space="preserve"><g id="Symbol_4_3" transform="translate(-51.5 -5579.5)" stroke="#161616"><path id="Rectangle_649_copy_3" fill="none" d="M52 5580h53v53H52z"/><path id="Path_264" fill="#161616" d="M71.901 5605.863h15.247c.1 0 .2 0 .294.009a.587.587 0 0 1 .11 1.148 1.354 1.354 0 0 1-.386.037H71.91c.064.083.1.129.138.175 1.084 1.231 2.168 2.452 3.251 3.683.064.073.129.147.193.23a.6.6 0 1 1-.901.791c-.386-.432-.772-.873-1.157-1.3-1.038-1.185-2.085-2.37-3.123-3.555a1.87 1.87 0 0 1-.257-.349.54.54 0 0 1 .073-.661c1.488-1.69 2.976-3.377 4.464-5.061a.571.571 0 0 1 .863-.083.589.589 0 0 1 .018.891 1121.505 1121.505 0 0 0-3.417 3.876c-.057.05-.108.107-.154.169z"/></g></svg>