<svg xmlns="http://www.w3.org/2000/svg" width="15.23" height="12.377"><path id="Twitter" d="M18.8 11.791a6.217 6.217 0 0 1-1.795.492 3.13 3.13 0 0 0 1.374-1.729 6.255 6.255 0 0 1-1.984.759 3.127 3.127 0 0 0-5.324 2.85A8.872 8.872 0 0 1 4.634 10.9a3.129 3.129 0 0 0 .966 4.17 3.116 3.116 0 0 1-1.415-.391v.04a3.127 3.127 0 0 0 2.507 3.064 3.142 3.142 0 0 1-.823.109 3.1 3.1 0 0 1-.588-.056A3.128 3.128 0 0 0 8.2 20.005 6.305 6.305 0 0 1 3.574 21.3a8.886 8.886 0 0 0 13.68-7.486q0-.2-.009-.4a6.329 6.329 0 0 0 1.555-1.623z" transform="translate(-3.574 -10.326)" fill="#2f3640"/></svg>