<svg version="1.1" id="Layer_1" xmlns="http://www.w3.org/2000/svg" x="0" y="0" viewBox="0 0 20.4 14.8" xml:space="preserve"><style type="text/css">.st0{fill:#fff}</style><g id="Group_4656" transform="translate(-200.5 -349.5)"><path class="st0" d="M209.2 360c-.4 0-.7-.2-.9-.5-.1-.1-.1-.3-.1-.4v-4.3c0-.3.1-.5.3-.7.2-.2.5-.3.7-.3.2 0 .3 0 .4.1l4.2 2.1c.5.2.7.8.5 1.3-.1.2-.3.4-.5.5l-4.2 2.1c-.1.1-.2.1-.4.1zm0-1l4.3-2.1-4.2-2.1-.1 4.2z" id="Path_7755"/><path class="st0" d="M218.4 364.3H203c-1.4 0-2.5-1.1-2.5-2.5V352c0-1.4 1.1-2.5 2.5-2.5h15.4c1.4 0 2.5 1.1 2.5 2.5v9.8c0 1.3-1.1 2.5-2.5 2.5zM203 350.5c-.8 0-1.5.7-1.5 1.5v9.8c0 .8.7 1.5 1.5 1.5h15.4c.8 0 1.5-.7 1.5-1.5V352c0-.8-.7-1.5-1.5-1.5H203z" id="Rectangle_471"/></g></svg>