<svg version="1.1" id="Layer_1" xmlns="http://www.w3.org/2000/svg" x="0" y="0" viewBox="0 0 413.7 374.7" xml:space="preserve"><style type="text/css">.st0{fill:#fff;stroke:#fff;stroke-miterlimit:10}</style><path class="st0" d="M215.3 374.2c-85.2-1-154.8-6.1-210.9-61.7l-2.3-2.3-.3-76.9 125.4-.5.3 65.9 160.2-.6-.3-65.9 125.4-.5.3 77.8-3.4 2.3c-60.6 41.2-109.6 63.3-194.4 62.4zM17.6 303.7c51.5 49.4 117.3 54 197.8 54.9 79.7.9 124.5-18.6 182.2-57.4l-.2-54-94.3.4.3 65.9-191.4.8-.3-65.9-94.3.4.2 54.9zm-.9-89.5l-.6-149.1C16 38.8 37.2 17.3 63.6 17.2l285.3-1.1c26.3-.1 47.7 21.2 47.9 47.5l.6 149.1 15.5-.1-.6-149.1c-.2-34.9-28.6-63.1-63.5-63L63.5 1.7C28.6 1.8.4 30.2.5 65.1l.6 149h15.6z"/><path class="st0" d="M163.2 209.8l1.6-144.9 124.7 73.8-126.3 71.1zM180 92l-1 91.1 79.4-44.6L180 92z"/></svg>