<svg version="1.1" id="Layer_1" xmlns="http://www.w3.org/2000/svg" x="0" y="0" viewBox="0 0 26.1 16" xml:space="preserve"><style type="text/css">.st0{fill:#2f3640}</style><g id="Group_4658" transform="translate(-547.257 -356.863)"><path id="Path_7756" class="st0" d="M558.6 361c-.4-.2-.9-.1-1.1.3-.1.1-.1.3-.1.4v5.4c0 .5.4.8.8.8.1 0 .3 0 .4-.1l4.7-2.7c.4-.2.5-.7.3-1.1l-.3-.3-4.7-2.7zm-.4 6v-5.4l4.7 2.7-4.7 2.7z"/><path id="Path_7757" class="st0" d="M571.3 368.2v-9.5c0-1-.8-1.8-1.8-1.8h-18.3c-1 0-1.8.8-1.8 1.8v9.5h.8v-9.5c0-.6.4-1 1-1h18.3c.6 0 1 .4 1 1v9.5h.8z"/><path id="Path_7758" class="st0" d="M547.6 372c.2.5.6.9 1.2.9h23c.5 0 1-.3 1.2-.9l.3-1.1c.1-.4-.1-.9-.5-1h-9.4l-.5.5h-5.3l-.5-.5h-8.9c-.4 0-.8.4-.8.8v.2l.2 1.1zm25-1.3l.4.1-.4-.1zm-16 0l.5.5h6l.5-.5h8.9l-.3 1.1c-.1.2-.2.3-.4.3h-23c-.2 0-.3-.1-.4-.3l-.3-1.1h8.5z"/><path id="Rectangle_473" class="st0" d="M551.4 358.5h17.9v.8h-17.9z"/></g></svg>