<svg xmlns="http://www.w3.org/2000/svg" width="20" height="12" viewBox="0 0 17.013 11.187"><path id="Path_265" data-name="Path 265" d="M14.79 6.152H1.241c-.09 0-.18 0-.261-.008a.522.522 0 0 1-.1-1.021 1.194 1.194 0 0 1 .343-.033h13.559l-.122-.155c-.963-1.094-1.927-2.18-2.89-3.274a8.879 8.879 0 0 1-.171-.2.533.533 0 1 1 .8-.7c.343.384.686.776 1.029 1.159.923 1.053 1.853 2.106 2.776 3.16a1.691 1.691 0 0 1 .229.31.482.482 0 0 1-.065.588q-1.984 2.253-3.968 4.5a.508.508 0 0 1-.767.073.524.524 0 0 1-.016-.792q1.519-1.715 3.037-3.445a.974.974 0 0 0 .136-.162z" fill="#fff" stroke="#fff" stroke-width="1"/></svg>