<svg version="1.1" id="Layer_1" xmlns="http://www.w3.org/2000/svg" xmlns:xlink="http://www.w3.org/1999/xlink" x="0" y="0" viewBox="0 0 797.6 571.4" xml:space="preserve"><style type="text/css">.st0{clip-path:url(#SVGID_2_);fill:#fff}</style><defs><path id="SVGID_1_" d="M-304.8-119h1400v2500h-1400z"/></defs><clipPath id="SVGID_2_"><use xlink:href="#SVGID_1_" overflow="visible"/></clipPath><path class="st0" d="M677.3 453L108 522.7v-86.6l569.3-69.6z"/><path class="st0" d="M681.4 399.1v57.8l-59.1 7.3v20l111.2-13.8-12.2-37.4 12.2-40.4z"/><path d="M129.9 492.8c2.4-.4 3-1.1 3-3.3v-26.2c0-2.1-.6-2.8-3-2.5v-4.9l12.5-1.5c9.6-1.2 14.1.9 14.1 8.3 0 5.4-2.3 8.9-7.1 10.6 5.1.3 7.8 3.6 7.8 9.5 0 7.6-4 12.1-11.8 13l-15.4 1.9v-4.9zm11.3-20.5l2-.2c3.6-.4 5-2.6 5-7.1s-1.4-6.3-5-5.8l-2 .2v12.9zm0 19l2.1-.3c3.8-.5 5.3-2.8 5.3-7.8s-1.5-7-5.3-6.6l-2.1.3v14.4zm34.5-4.1v4.9l-14.4 1.8V489c2.4-.4 3-1.1 3-3.3v-26.2c0-2.1-.6-2.8-3-2.5v-5l12.5-1.5c10.1-1.2 14.6 1.1 14.6 9.8 0 6-2.9 9.6-8.6 10.7 4.8.5 6.1 3 6.4 8.4.2 4 .1 6.5 1.5 6.4 1.1-.1 1.6-1.4 1.6-4 0-.4-.1-.8-.1-1.3l3.2-.4v.7c0 7-1.9 10.2-6.9 10.8-5.7.7-7.3-2.9-7.4-10.7-.1-5.4-.1-8-3.8-7.6l-1.8.2v11.2c.2 2.1.7 2.7 3.2 2.5m-3-18.6l2.2-.3c4-.5 5.7-2.6 5.7-7.2s-1.7-6.3-5.7-5.8l-2.2.3v13zm36.8-17.6c-2.2.3-3 1.1-3 3.3v26.2c0 2.1.7 2.8 3 2.5v4.9l-14.4 1.8v-4.9c2.4-.4 3-1.1 3-3.3v-26.2c0-2.1-.6-2.8-3-2.5v-4.9l14.4-1.8v4.9zm15.8 30.1v4.9l-11.5 1.4v-4.9c2.4-.4 3-1.1 3-3.3V453c0-2.1-.6-2.8-3-2.5v-4.9l11.6-1.4 9.6 25.7v-19.1c0-2.1-.8-2.8-3-2.5v-4.9l11.6-1.4v4.9c-2.4.4-3 1.1-3 3.3v34l-7.7.9-10.5-28.4v21.9c-.1 2.1.7 2.8 2.9 2.5m35.7-16.4l-1.4.2V460l14.6-1.8v4.9c-2.1.4-2.8 1.2-2.8 3.2v14l-3.8.5-1.5-2.7c-2.5 2.9-4.9 4.4-7.9 4.7-7.3.9-10.9-5.8-10.9-20.1 0-14.8 4.3-22.9 11.8-23.8 2.8-.3 5 .7 7 2.6l.9-2.5 3.6-.4v16l-4.4.5c-.4-7.8-1.8-11.4-5.5-10.9-4.5.6-4.8 6.3-4.8 19.2 0 9.6.3 14.1 4 13.6 2.4-.3 3.7-2.3 3.7-6.1v-3.8c.2-1.8-.6-2.6-2.6-2.4m30.7-23.8c-.2 0-.5.1-.8.2v-4.9l14.1-1.7v4.9c-1.6.3-2.4.8-2.4 1.7 0 .2.1.3.1.6l3.5 10.5 3.3-11.3c.1-.2.1-.4.1-.6 0-.9-.9-1.3-2.7-1.1v-4.9l11.3-1.4v4.9c-.2 0-.4.1-.6.1-1.6.2-1.9.7-2.4 2.1l-6.3 18.2v9.9c0 2 .8 2.8 2.8 2.6l1.2-.2v4.9l-16.4 2v-4.9l.9-.1c2.4-.3 3.1-1.1 3.1-3.3v-9.9l-6.7-16.9c-.4-1.1-.8-1.5-2.1-1.4m31.9 29.3c-2.2-3-2.8-8.5-2.8-16.8s.6-14 2.8-17.5c2.1-3.4 5.3-5.4 9.6-5.9s7.4.6 9.5 3.6c2.2 3 2.8 8.5 2.8 16.8s-.6 14-2.8 17.5c-2.1 3.4-5.3 5.4-9.5 5.9-4.4.5-7.5-.7-9.6-3.6m13.2-18.7c0-11.3-.1-16.7-3.7-16.3-3.6.4-3.7 5.8-3.7 17.2 0 11.4.1 16.6 3.7 16.2 3.6-.5 3.7-5.8 3.7-17.1m12.3-17.6V429l14.2-1.7v4.9c-2.1.4-2.8 1.2-2.8 3.2v23.2c0 4.4.4 6.6 4 6.1 3.4-.4 4.3-2.7 4.3-7.4v-22.9c0-2-.6-2.7-2.7-2.6V427l11-1.4v4.9c-2.2.3-3 1.1-3 3.3v22.5c0 3.6-.1 6.4-2 9.2-1.7 2.5-4.7 4.1-8.7 4.6-8.9 1.1-11.2-2.4-11.2-11.9v-21.7c-.1-2.2-.7-2.8-3.1-2.6m45.8 26.5v4.9l-14.4 1.8v-4.9c2.4-.4 3-1.1 3-3.3v-26.2c0-2.1-.6-2.8-3-2.5v-4.9l12.5-1.5c10.1-1.2 14.6 1.1 14.6 9.8 0 6-2.9 9.6-8.6 10.7 4.8.5 6.1 3 6.4 8.4.2 4 .1 6.5 1.5 6.4 1.1-.1 1.6-1.4 1.6-4 0-.4-.1-.8-.1-1.3l3.2-.4v.7c0 7-1.9 10.2-6.9 10.8-5.7.7-7.3-2.9-7.4-10.7-.1-5.4-.1-8-3.8-7.6l-1.8.2V458c.1 2 .7 2.6 3.2 2.4m-3.1-18.6l2.2-.3c4-.5 5.7-2.6 5.7-7.2s-1.7-6.3-5.7-5.8l-2.2.3v13zm42.1-16.2c2.8-.3 4.3 1 4.3 3.7 0 2.5-2 4.9-4.6 5.2-3 .4-4.8-1.6-4.8-5.2 0-4.4 2.7-8.8 7.9-12l1.8 2.9c-2.4 1.6-4.1 3.5-5.2 5.4h.6m12-1.5c2.8-.3 4.3 1 4.3 3.7 0 2.5-1.9 4.9-4.6 5.2-3 .4-4.8-1.6-4.8-5.2 0-4.4 2.8-8.8 8-12l1.8 2.9c-2.4 1.6-4 3.4-5.1 5.4h.4m-.5 30.1c.2 0 .4 0 .5-.1 1.7-.2 2.2-.6 2.5-2.2l7.9-36 8.5-1 7.1 34.4c.2 1.2.8 1.6 2.1 1.4.2 0 .5-.1.8-.2v4.9l-14.7 1.8v-4.9c2.2-.3 3-.7 3-1.8 0-.2-.1-.3-.1-.5l-.8-5.5-7.3.9-1.2 5.8c-.1.2-.1.4-.1.5 0 .9.6 1.5 1.9 1.3.2 0 .5-.1.8-.2v4.9l-10.9 1.3v-4.8zm16.3-14.2l-2.5-15.5-3.3 16.2 5.8-.7zm13.4-18.4c-2.6.3-4.1-1.1-4.1-3.6 0-2.8 2-5.1 4.6-5.5 3-.4 4.8 1.6 4.8 5.2 0 4.3-2.8 8.8-8 12l-1.8-2.9c2.4-1.6 4-3.4 5.1-5.4-.1.1-.3.2-.6.2m12.1-1.5c-2.6.3-4.2-1.1-4.2-3.6 0-2.8 1.9-5.1 4.6-5.5 3-.4 4.8 1.6 4.8 5.2 0 4.3-2.8 8.8-8 12l-1.8-2.9c2.4-1.6 4.1-3.4 5.2-5.4-.2.1-.4.2-.6.2m37.6 12.4l-1.4.2v-4.9L538 426v4.9c-2.1.4-2.8 1.2-2.8 3.2v14l-3.8.5-1.5-2.7c-2.5 2.9-4.9 4.4-7.9 4.7-7.3.9-10.9-5.8-10.9-20.1 0-14.8 4.3-22.9 11.8-23.8 2.8-.3 5 .7 7 2.6l.9-2.5 3.6-.4v16l-4.4.5c-.4-7.8-1.8-11.4-5.5-10.9-4.5.6-4.8 6.3-4.8 19.2 0 9.6.3 14.1 4 13.6 2.4-.3 3.7-2.3 3.7-6.1V435c.2-2-.7-2.8-2.6-2.5m15.5 10.1c.2 0 .4 0 .5-.1 1.7-.2 2.2-.6 2.5-2.2l7.9-36 8.5-1 7.1 34.4c.2 1.2.8 1.6 2.1 1.4.2 0 .5-.1.8-.2v4.9l-14.7 1.8v-4.9c2.2-.3 3-.7 3-1.8 0-.2-.1-.3-.1-.5l-.8-5.5-7.3.9-1.2 5.8c-.1.2-.1.4-.1.5 0 .9.6 1.5 1.9 1.3.2 0 .5-.1.8-.2v4.9l-10.9 1.3v-4.8zm16.3-14.2l-2.5-15.5-3.3 16.2 5.8-.7zm26 9v4.9l-10.7 1.3v-4.9c2.4-.4 3-1.1 3-3.3v-26.2c0-2.1-.6-2.8-3-2.5v-4.9l14.1-1.7 4.2 25.7 4.7-26.7 13.7-1.7v4.9c-2.2.3-3 1.1-3 3.3v26.2c0 2.1.8 2.8 3 2.5v4.9l-13.1 1.6v-4.9c2.1-.4 2.7-1.2 2.7-3.2v-27.9l-6.8 36.6-5 .6-6.6-34.9V435c0 1.8.7 2.5 2.8 2.4m29.9-3.7c2.4-.4 3-1.1 3-3.3v-26.2c0-2.1-.6-2.8-3-2.5v-4.9l26.4-3.2v14.1l-4.3.5c-.4-6.9-2.1-9-8-8.2l-2.8.3v13h.3c3.1-.4 3.9-2.1 4-6.5l3.8-.5v16.6l-3.8.5c-.1-4.5-.9-6.1-4-5.7h-.3v14.6l2.8-.3c6.5-.8 8-3.8 8-12.4l4.3-.5v16.3l-26.4 3.2v-4.9zm36.1-18c0-6.9-2.9-12-2.9-16.7 0-4.5 1.9-7.4 4.8-7.8 3-.4 4.8 2.1 4.8 6.6 0 4.7-2.9 10.5-2.9 17.4v7.6l-3.9.5v-7.6zm-2.4 15c0-2.4 2-4.6 4.4-4.9 2.4-.3 4.4 1.4 4.4 3.8 0 2.6-1.9 4.6-4.4 4.9-2.5.2-4.4-1.5-4.4-3.8" fill="#619540" clip-path="url(#SVGID_2_)"/><path class="st0" d="M171.6 205.1c4 4.1 5.9 8.9 5.9 14.2v6.5h-13.2v-3c0-3-.7-5.6-2.1-7.8-1.4-2.2-3.8-3.3-7.2-3.3-1.8 0-3.3.3-4.4 1-1.1.7-2 1.6-2.7 2.6-.7 1.1-1.2 2.4-1.4 3.8-.3 1.4-.4 2.9-.4 4.5 0 1.8.1 3.3.2 4.5.1 1.2.5 2.3 1 3.2s1.3 1.8 2.3 2.5c1 .7 2.3 1.4 4.1 2.1l10.1 4c2.9 1.1 5.3 2.4 7.1 3.9 1.8 1.5 3.2 3.3 4.3 5.2.9 2.1 1.6 4.4 1.9 7 .3 2.6.5 5.6.5 9 0 3.9-.4 7.5-1.2 10.8-.8 3.3-2 6.1-3.7 8.5-1.8 2.4-4.2 4.3-7.1 5.7-2.9 1.4-6.5 2.1-10.7 2.1-3.2 0-6.2-.6-8.9-1.7-2.8-1.1-5.1-2.7-7.1-4.7s-3.6-4.3-4.7-6.9c-1.2-2.6-1.7-5.5-1.7-8.6v-4.9h13.2v4.1c0 2.4.7 4.6 2.1 6.5 1.4 1.9 3.8 2.9 7.2 2.9 2.2 0 4-.3 5.2-1 1.2-.6 2.2-1.6 2.9-2.8.7-1.2 1.1-2.7 1.2-4.3.1-1.7.2-3.6.2-5.6 0-2.4-.1-4.4-.3-5.9-.2-1.6-.5-2.8-1-3.7-.6-.9-1.4-1.7-2.4-2.3-1-.6-2.3-1.2-3.9-1.9l-9.4-3.9c-5.7-2.3-9.5-5.4-11.4-9.2-1.9-3.8-2.9-8.6-2.9-14.4 0-3.4.5-6.7 1.4-9.8.9-3.1 2.4-5.8 4.3-8 1.8-2.2 4.1-4 6.9-5.4 2.8-1.3 6.1-2 10-2 3.3 0 6.3.6 9 1.8 2.5 1.2 4.9 2.8 6.8 4.7m56.9 64.3c0 3.3-.8 5.7-2.3 7.2-1.6 1.6-3.5 2.3-5.8 2.3s-4.3-.8-5.8-2.3c-1.6-1.6-2.3-4-2.3-7.2v-70.1H199v71.3c0 3 .6 5.8 1.7 8.3 1.1 2.5 2.7 4.8 4.7 6.8s4.2 3.5 6.8 4.7c2.5 1.1 5.3 1.7 8.2 1.7 2.9 0 5.7-.6 8.3-1.7 2.6-1.1 4.9-2.7 6.8-4.7 2-2 3.5-4.2 4.6-6.8 1.1-2.5 1.6-5.3 1.6-8.3v-71.3h-13.2v70.1zm67.1-21.3h-.3l-16.9-48.7h-12.7v92h13.2v-56h.3l12.9 39.6h6.6l13.1-39.6h.3v56h13.2v-92h-12.8l-16.9 48.7zm83.5 0h-.3l-16.9-48.7h-12.7v92h13.2v-56h.3l12.9 39.6h6.6l13.1-39.6h.3v56h13.2v-92H396l-16.9 48.7zm54 43.3h13.2v-92h-13.2v92zm59.5 0v-79.6h15.3v-12.4h-43.7v12.4h15.3v79.6h13.1zm31.9-69.3l13.2-9.6v-13.2h-13.2v22.8zm64.6 13.7c.6-1.4 1-2.8 1.3-4.1.3-1.4.4-2.8.5-4.3.1-1.5.1-3.4.1-5.6 0-3.1-.4-6-1.1-8.8-.7-2.8-1.9-5.2-3.4-7.4-1.6-2.2-3.7-3.9-6.1-5.1-2.5-1.2-5.4-1.9-8.9-1.9-2.8 0-5.3.5-7.8 1.6-2.4 1.1-4.5 2.5-6.2 4.3-1.8 1.8-3.2 3.9-4.3 6.3-1 2.4-1.6 5-1.6 7.8v7.2h13.2v-7.5c0-2.2.6-3.8 1.7-4.9 1.2-1.1 2.7-1.7 4.7-1.7 1.6 0 2.9.3 3.7 1 .9.6 1.5 1.4 1.9 2.4.4.9.7 2 .7 3.3 0 1.2.1 2.4.1 3.6 0 2.5-.1 4.6-.3 6.3-.2 1.7-.9 3.6-2.1 5.9L551.4 279v12.4H591v-13.2h-23.8l19.4-37.4c1.1-2 1.9-3.6 2.5-5m60-25.7c1.1 2.4 1.6 5.2 1.6 8.3v54c0 3.1-.5 5.9-1.6 8.3-1.1 2.4-2.5 4.5-4.3 6.2-1.8 1.7-3.9 3-6.3 3.9-2.4.9-4.8 1.4-7.4 1.4-2.6 0-5.1-.5-7.4-1.4-2.4-.9-4.5-2.2-6.3-3.9-1.8-1.7-3.3-3.8-4.3-6.2-1.1-2.4-1.6-5.2-1.6-8.3v-54c0-3.1.5-5.9 1.6-8.3 1.1-2.4 2.5-4.5 4.3-6.2 1.8-1.7 3.9-3 6.3-3.9 2.4-.9 4.8-1.4 7.4-1.4 2.6 0 5.1.5 7.4 1.4 2.4.9 4.5 2.2 6.3 3.9 1.8 1.7 3.3 3.7 4.3 6.2m-11.5 8.2c0-1.9-.6-3.5-1.8-4.7-1.2-1.2-2.8-1.9-4.7-1.9-1.9 0-3.4.6-4.7 1.9-1.2 1.2-1.8 2.8-1.8 4.7v54c0 1.9.6 3.5 1.8 4.7 1.2 1.2 2.8 1.9 4.7 1.9 1.9 0 3.4-.6 4.7-1.9 1.2-1.2 1.8-2.8 1.8-4.7v-54zm68.3-88.4v185.8c0 10.5-8.2 21.3-18.3 24.1l-296 83.8-296-83.8c-10.1-2.8-18.3-13.7-18.3-24.1V129.9c0-10.5 8.2-21.3 18.3-24.1l296-83.8 296 83.8c10.1 2.8 18.3 13.7 18.3 24.1m-5.9 0c0-7.9-6.4-16.4-14-18.5L391.7 28.1 97.3 111.4c-7.6 2.2-14 10.6-14 18.5v185.8c0 7.9 6.4 16.4 14 18.5l294.4 83.3L686 334.2c7.6-2.1 14-10.6 14-18.5V129.9zm-384.5 2.2c.8 1.1 2.4 1.6 3.6 1.2l9-2.9-16.4-22.5L328.3 85l-9.2-3c-1.2-.4-2.9.1-3.6 1.2l-16.4 22.5c-.8 1.1-.8 2.8 0 3.8l16.4 22.6zm16.9-3.2l13.2-4.3c1.2-.4 2.2-1.8 2.2-3.1V93.7c0-1.3-1-2.7-2.2-3.1l-13-4.2-15.6 21.4 15.4 21.1zm52.6-11.1v-12.9c0-4.5 3.2-7.4 10.9-7.4 7.6 0 10.8 3 10.8 7.4v12.9c0 4.5-3.2 7.4-10.8 7.4-7.7 0-10.9-3-10.9-7.4m5.2-.5c0 2.3 1.6 3.6 5.7 3.6s5.7-1.3 5.7-3.6v-12c0-2.3-1.6-3.6-5.7-3.6s-5.7 1.3-5.7 3.6v12zm28.5 7.9c4.5 0 7.2-1.8 8.7-3.1l.1 1.5c0 .8.3 1 1 1h2.9c.7 0 1-.3 1-1V98.9c0-.8-.3-1.1-1-1.1h-3.2c-.7 0-1 .3-1 1.1v18.9c-1.1.9-3.6 2.7-7.1 2.7-3 0-4-1.3-4-3.6v-18c0-.8-.3-1.1-1-1.1H412c-.7 0-1 .3-1 1.1v19.4c0 4 2.7 6.9 7.7 6.9m19.1-.6h3.1c.7 0 1-.3 1-1.1v-18.7c1.2-.9 3.9-2.8 7.4-2.8 3 0 4 1.4 4 3.6v17.9c0 .8.3 1.1 1 1.1h3.1c.7 0 1-.3 1-1.1v-19.2c0-4-2.6-6.9-7.7-6.9-4.5 0-7.5 1.9-9 3.2l-.1-1.7c-.1-.7-.3-1-1-1h-2.9c-.8 0-1 .3-1 1v24.6c.1.8.4 1.1 1.1 1.1m23.7-22.4h3v15.4c0 4.8 2.3 7.4 9.9 7.4h1.8c.7 0 1-.3 1-1v-2.3c0-.8-.3-1.1-1-1.1h-1c-4.1 0-5.5-1.3-5.5-3.6v-14.9h5.6c.7 0 1-.3 1-1.1v-2.2c0-.7-.3-1-1-1h-5.6v-4.9c0-.8-.3-1.1-1-1.1h-3.2c-.7 0-1 .3-1 1.1v4.9h-.3l-2.7.3c-.8.1-1 .3-1 1v1.9c-.1.9.2 1.2 1 1.2m19.2-6v-3.9c0-.2.1-.2.2-.2h1.7c1.4 0 1.7.7 1.7 1.2v.3c0 .4-.1.9-.7 1.1l.6 1.4c0 .1 0 .2-.2.2h-.6c-.1 0-.2-.1-.2-.2l-.5-1.3h-.8v1.3c0 .1 0 .2-.2.2h-.6c-.3.1-.4 0-.4-.1m1-2.1h.7c.4 0 .7-.2.7-.5v-.2c0-.3-.3-.5-.7-.5h-.7v1.2zm-3.1 1.6v-2.9c0-1 .4-2.4 3.8-2.4 3.3 0 3.7 1.4 3.7 2.4v2.9c0 1-.4 2.4-3.7 2.4-3.3 0-3.8-1.4-3.8-2.4m1 .1c0 .7.5 1.4 2.7 1.4s2.7-.7 2.7-1.4v-3.1c0-.7-.5-1.4-2.7-1.4s-2.7.7-2.7 1.4v3.1zm-119 28.8h3.5c.8 0 1.1-.3 1.1-1.1v-13.8h1.4l9.9 13.8c.4.6.9 1.1 1.6 1.1h4.5c.7 0 .9-.6.5-1.1l-11.8-16.2 11.4-15.6c.4-.6.2-1.1-.5-1.1h-3.8c-.7 0-1.3.5-1.8 1.1l-10.1 13.9h-1.4V91.7c0-.7-.3-1.1-1.1-1.1h-3.5c-.7 0-1 .3-1 1.1v31.8c.1.8.4 1.1 1.1 1.1m-213.4 61h-11.3v-28.7h11.3c3 0 5.6.6 7.9 1.8 2.3 1.2 4.1 2.9 5.4 5.1 1.3 2.2 1.9 4.7 1.9 7.5s-.6 5.3-1.9 7.5c-1.3 2.2-3.1 3.8-5.4 5-2.3 1.2-4.9 1.8-7.9 1.8m-5.2-5.4h5.2c1.8 0 3.4-.4 4.8-1.2s2.4-1.9 3.1-3.3c.7-1.4 1.1-2.9 1.1-4.5 0-2.6-.8-4.8-2.4-6.5-1.6-1.7-3.8-2.5-6.6-2.5H142v18zm35.5-23.4h-6.1v28.7h6.1v-28.7zm31.6 27.4c2.2-1.3 3.9-3.2 5.1-5.7 1.2-2.5 1.8-5.4 1.8-8.8h-15.7v5.3h9c-.4 1.6-1.3 3-2.6 4.1-1.3 1.1-2.9 1.6-5 1.6-1.7 0-3.3-.4-4.6-1.2-1.4-.8-2.4-1.9-3.2-3.4-.8-1.4-1.2-3-1.2-4.8s.4-3.4 1.2-4.8c.8-1.4 1.8-2.6 3.2-3.4 1.4-.8 2.9-1.2 4.6-1.2 1.4 0 2.8.3 3.9 1 1.2.7 2.1 1.5 2.9 2.6l5.1-2.8c-1.2-1.9-2.8-3.4-4.8-4.6-2-1.1-4.3-1.7-7.1-1.7s-5.4.6-7.7 1.8c-2.3 1.2-4.2 3-5.5 5.2-1.4 2.3-2 4.9-2 7.8 0 2.9.7 5.5 2 7.8 1.4 2.3 3.2 4 5.4 5.3 2.3 1.2 4.7 1.9 7.3 1.9 3-.1 5.6-.7 7.9-2m21.5-27.4h-6.1v28.7h6.1v-28.7zm8.5 5.4h8.4v23.4h6.2v-23.4h8.4v-5.4h-22.9v5.4zm32.4 23.4h-6.7l11.1-28.7h7.7l11.1 28.7H288l-1.8-5h-12.8l-1.9 5zm3.4-10.3h9.5l-4.7-13.2-4.8 13.2zm27-18.5v28.7h18.3v-5.4H308v-23.4h-6.1zm42.8 0h13.4c2 0 3.7.4 5.2 1.2 1.5.8 2.6 1.9 3.3 3.3.7 1.4 1.1 3 1.1 4.7 0 1.7-.4 3.2-1.1 4.6-.8 1.4-1.9 2.5-3.3 3.3-1.5.8-3.2 1.2-5.2 1.2h-7.3v10.3h-6.1v-28.6zm6.1 13.2h6.5c1.2 0 2.2-.4 3-1.1.8-.7 1.2-1.7 1.2-2.9s-.4-2.1-1.2-2.9c-.8-.7-1.8-1.1-3-1.1h-6.5v8zm42.2 4.6l6.5 10.9h-7l-5.6-10.3h-4.5v10.3h-6.1v-28.7h13.4c2 0 3.7.4 5.1 1.2 1.5.8 2.6 1.9 3.4 3.3s1.2 3 1.2 4.8c0 2.4-.6 4.3-1.8 5.7-1.4 1.5-2.9 2.4-4.6 2.8m0-8.5c0-1.2-.4-2.1-1.2-2.9-.8-.7-1.8-1.1-3.1-1.1h-6.4v7.9h6.4c1.2 0 2.3-.4 3.1-1.1.8-.7 1.2-1.7 1.2-2.8m36.8 18.1c-2.3 1.3-4.9 1.9-7.7 1.9s-5.4-.6-7.7-1.9c-2.3-1.3-4.1-3-5.4-5.3-1.3-2.3-1.9-4.8-1.9-7.7 0-2.8.6-5.4 1.9-7.7 1.3-2.3 3.1-4 5.4-5.3 2.3-1.3 4.8-1.9 7.7-1.9 2.9 0 5.5.6 7.7 1.9 2.3 1.3 4.1 3.1 5.4 5.3 1.3 2.3 1.9 4.8 1.9 7.7 0 2.8-.6 5.4-1.9 7.7-1.3 2.3-3.1 4-5.4 5.3m0-8.1c.7-1.4 1.1-3.1 1.1-4.8 0-1.8-.4-3.4-1.1-4.8-.7-1.4-1.7-2.6-3.1-3.4-1.3-.8-2.9-1.2-4.6-1.2s-3.2.4-4.6 1.2c-1.3.8-2.3 2-3.1 3.4-.7 1.4-1.1 3.1-1.1 4.8 0 1.8.4 3.4 1.1 4.8.7 1.4 1.7 2.6 3.1 3.4 1.3.8 2.8 1.2 4.6 1.2s3.3-.4 4.6-1.2c1.3-.8 2.3-2 3.1-3.4m28 9.5v-23.4h8.4v-5.4h-22.9v5.4h8.4v23.4h6.1zm16.9 0H495v-5.3h-14.2v-6.7h13.9v-5.3h-13.9v-6.2H495v-5.3h-20.3v28.8zm35.8-1.3c2.3 1.3 4.8 1.9 7.6 1.9 5.4 0 9.5-2.4 12.2-7.1l-5.3-2.5c-.6 1.2-1.6 2.2-2.8 3-1.2.8-2.6 1.2-4.2 1.2s-3.1-.4-4.5-1.2c-1.4-.8-2.4-1.9-3.2-3.4-.8-1.4-1.1-3.1-1.1-4.8 0-1.8.4-3.4 1.1-4.8.8-1.4 1.8-2.6 3.2-3.4 1.3-.8 2.8-1.2 4.5-1.2 1.5 0 2.9.4 4.2 1.2 1.2.8 2.2 1.8 2.8 3l5.3-2.6c-1.2-2.1-2.8-3.8-4.7-5.1-2-1.3-4.5-2-7.5-2-2.8 0-5.3.6-7.6 1.9-2.3 1.3-4.1 3-5.4 5.3-1.3 2.3-2 4.8-2 7.7 0 2.9.7 5.5 2 7.7s3.1 3.9 5.4 5.2m49.3-27.5h-22.9v5.4h8.4v23.4h6.2v-23.4h8.4v-5.4zm14.6 0h-6.1v28.7h6.1v-28.7zm39 14.5c0 2.8-.6 5.4-1.9 7.7-1.3 2.3-3.1 4-5.4 5.3-2.3 1.3-4.9 1.9-7.7 1.9s-5.4-.6-7.7-1.9c-2.3-1.3-4.1-3-5.4-5.3-1.3-2.3-1.9-4.8-1.9-7.7 0-2.8.6-5.4 1.9-7.7 1.3-2.3 3.1-4 5.4-5.3 2.3-1.3 4.8-1.9 7.7-1.9 2.9 0 5.5.6 7.7 1.9 2.3 1.3 4.1 3.1 5.4 5.3 1.2 2.3 1.9 4.8 1.9 7.7m-6.3 0c0-1.8-.4-3.4-1.1-4.8-.7-1.4-1.7-2.6-3.1-3.4-1.3-.8-2.9-1.2-4.6-1.2-1.7 0-3.2.4-4.6 1.2-1.3.8-2.3 2-3.1 3.4-.7 1.4-1.1 3.1-1.1 4.8 0 1.8.4 3.4 1.1 4.8.7 1.4 1.7 2.6 3.1 3.4 1.3.8 2.8 1.2 4.6 1.2 1.7 0 3.3-.4 4.6-1.2 1.3-.8 2.4-1.9 3.1-3.4.7-1.4 1.1-3.1 1.1-4.8m21.3-5l13.7 19.3h5.9v-28.7h-6.1v18.6l-13.3-18.6h-6.3v28.7h6.1v-19.3zM279.5 339c-1.3-.6-3.1-1.1-5.2-1.7-1.6-.4-2.9-.8-3.8-1.1-.9-.3-1.6-.8-2.3-1.4-.6-.6-.9-1.3-.9-2.2 0-1.4.6-2.5 1.7-3.3 1.1-.9 2.5-1.3 4.2-1.3 1.6 0 3.2.3 4.6.9 1.4.6 2.7 1.4 3.7 2.6l2.2-2.6c-2.5-2.7-5.9-4-10.2-4-1.9 0-3.5.3-5 1s-2.7 1.6-3.5 2.8c-.9 1.2-1.3 2.6-1.3 4.1 0 1.8.5 3.2 1.4 4.2.9 1.1 2 1.8 3.3 2.4 1.3.5 3 1.1 5.1 1.6 1.7.5 3 .9 3.9 1.3s1.7.9 2.4 1.6c.6.7 1 1.5 1 2.6 0 1.3-.5 2.5-1.6 3.5s-2.8 1.5-5.1 1.5c-1.9 0-3.6-.4-5.1-1.2-1.6-.8-2.9-1.8-3.9-2.9l-2.1 2.7c1.3 1.4 2.8 2.5 4.7 3.3 1.9.8 4 1.2 6.4 1.2 2.4 0 4.5-.4 6.1-1.2 1.6-.8 2.8-1.8 3.5-3.1.7-1.3 1.1-2.7 1.1-4.2 0-1.9-.5-3.4-1.4-4.5-1.5-1.2-2.6-2.1-3.9-2.6m27.3-13.8l11.6 28.7h-4l-2.5-6.4h-14.6l-2.5 6.4h-4l11.5-28.7h4.5zm4.1 19.2l-6.2-16-6.2 16h12.4zm36.1 3.5l-16.5-22.7h-3.7V354h3.6v-23.2l16.8 23.2h3.4v-28.7H347v22.6zm53.4-15.6c1.2 2.2 1.8 4.6 1.8 7.3s-.6 5.2-1.8 7.3c-1.2 2.2-2.9 3.9-5.2 5.1-2.2 1.2-4.8 1.9-7.7 1.9h-9.8v-28.7h9.8c2.9 0 5.5.6 7.7 1.9 2.2 1.2 3.9 3 5.2 5.2m-1.9 7.3c0-2.1-.4-4-1.3-5.7-.9-1.7-2.1-3-3.8-4-1.7-1-3.6-1.5-5.9-1.5h-6.2v22.4h6.2c2.3 0 4.2-.5 5.9-1.5 1.7-1 2.9-2.3 3.8-4 .8-1.7 1.3-3.6 1.3-5.7m13.9 14.4h3.6v-28.7h-3.6V354zm14.9 0h18.8v-3.2h-15.3v-9.9h15v-3.2h-15v-9.3h15.3v-3.2h-18.8V354zm40.6-11.6h11.8c-.4 2.6-1.4 4.7-3 6.4-1.6 1.7-3.8 2.5-6.6 2.5-2.1 0-3.9-.5-5.6-1.5-1.7-1-3-2.4-4-4.2-1-1.8-1.4-3.8-1.4-6s.5-4.2 1.4-6c1-1.8 2.3-3.2 4-4.2 1.7-1 3.6-1.5 5.6-1.5 1.7 0 3.2.4 4.7 1.1 1.5.7 2.7 1.7 3.6 2.9l2.8-1.8c-2.9-3.6-6.6-5.4-11.2-5.4-2.7 0-5.2.6-7.5 1.9-2.3 1.2-4 3-5.3 5.3-1.3 2.3-2 4.8-2 7.7 0 2.9.7 5.5 2 7.8s3.1 4 5.3 5.3c2.2 1.2 4.6 1.9 7.3 1.9 2.9 0 5.3-.6 7.4-1.9 2.1-1.3 3.7-3.1 4.7-5.4 1.1-2.3 1.6-5 1.6-8h-15.7v3.1zm50.9-10.4c1.2 2.3 1.8 4.8 1.8 7.6s-.6 5.4-1.8 7.6c-1.2 2.3-2.9 4-5 5.3-2.2 1.3-4.6 1.9-7.4 1.9-2.8 0-5.3-.6-7.4-1.9-2.2-1.3-3.8-3.1-5-5.3-1.2-2.3-1.8-4.8-1.8-7.6s.6-5.4 1.8-7.6c1.2-2.3 2.9-4 5-5.3 2.2-1.3 4.6-1.9 7.4-1.9 2.8 0 5.3.6 7.4 1.9 2.1 1.3 3.8 3.1 5 5.3m-1.9 7.6c0-2.2-.4-4.3-1.3-6-.9-1.8-2.1-3.2-3.7-4.2s-3.4-1.5-5.5-1.5-4 .5-5.6 1.5c-1.6 1-2.8 2.4-3.7 4.2-.9 1.8-1.3 3.8-1.3 6s.4 4.2 1.3 6c.9 1.8 2.1 3.2 3.7 4.2s3.5 1.5 5.6 1.5c2.1 0 3.9-.5 5.5-1.5s2.8-2.4 3.7-4.2c.8-1.8 1.3-3.8 1.3-6m-413 150.6v-57.8l59.1-7.3v-20L51.8 418.9 64 456.3l-12.2 40.4z"/><path d="M445.4 1791.7h3.9c3 0 4.5-1 4.5-2.9 0-1.8-1.6-2.9-4.7-2.9h-3.6v5.8zm0-13.7v5.3h3.4c2.5 0 3.9-.9 3.9-2.7 0-1.7-1.4-2.7-3.9-2.7l-3.4.1zm-5.3 16.6v-2.9h2.3V1778h-2.3v-2.9h9c4.2 0 6.7 1.9 6.7 5.2 0 2.2-1.3 3.5-2.9 4.2 2.3.6 4 2.3 4 4.5 0 3.6-2.8 5.5-7.3 5.5l-9.5.1zm33.2-10.2c-.3-1.1-1.2-1.8-2.3-1.8-2.6 0-5.1 1.9-5.1 5.4v3.7h5v2.9h-11.1v-2.9h3.2v-8.6h-2.5v-2.9h5.4v2.4c.9-1.7 2.8-2.9 5.2-2.9 2.8 0 4.5 1.6 5 3.8l-2.8.9m15.2 4.4c-.9-.3-2.4-.6-3.7-.6-1.9 0-3.7.6-3.7 2.3 0 1.3 1.1 1.9 2.7 1.9 2.2 0 4.7-1.2 4.7-3.2v-.4zm0-2.6v-.8c0-2-1.6-2.9-3.4-2.9-1.7 0-3.1.7-4.2 1.7l-2-2.1c1.4-1.2 3.3-2.4 6.2-2.4 3.6 0 6.4 1.9 6.4 5.5v6.4h2.1v2.9h-5.1v-1.5c-.8 1.2-2.9 2-4.9 2-3 0-5.5-1.5-5.5-4.5 0-3.5 3.5-4.9 6.7-4.9 1.4.1 2.7.4 3.7.6m14.3-13.2h3.3v4.4h-3.3v-4.4zm8.9 18.7v2.9h-14.5v-2.9h6v-8.6h-4.6v-2.9h7.6v11.5h5.5zm3.6 0h2.2v-8.6h-2.1v-2.9h5v1.8c.9-1.4 2.7-2.3 4.9-2.3 3.2 0 5.5 2 5.5 5.3v6.6h2.2v2.9h-7.5v-2.9h2.3v-5.8c0-2.5-1.5-3.2-2.9-3.2-2.3 0-4.5 1.7-4.5 4.3v4.8h2.3v2.9h-7.5v-2.9m21.9-8.6h-3.7v-2.9h3.7v-5.2h3v5.2h7v2.9h-7v6c0 2.2 1.6 3.1 3.3 3.1 1.7 0 3.1-.9 4.2-2l2 2c-1.3 1.4-3.3 2.7-6.1 2.7-3.6 0-6.3-2-6.3-5.8l-.1-6m28.7 1.3c-.3-1.1-1.2-1.8-2.3-1.8-2.6 0-5.1 1.9-5.1 5.4v3.7h5v2.9h-11.1v-2.9h3.2v-8.6H553v-2.9h5.4v2.4c.9-1.7 2.8-2.9 5.2-2.9 2.8 0 4.5 1.6 5 3.8l-2.8.9m8 1.5h8.8c-.4-2-2.3-3.4-4.3-3.4-2.2 0-4 1.4-4.5 3.4m12 6.5c-1.5 1.5-4.1 2.7-7.1 2.7-4.8 0-8.2-3.2-8.2-7.6 0-4.4 3.3-7.6 7.8-7.6s7.7 3.5 7.7 8.2v.5h-12.4c.5 2.4 2.5 3.8 5.1 3.8 2.2 0 4-.9 5-2l2.1 2zm6.5-6.5h8.8c-.4-2-2.3-3.4-4.3-3.4-2.3 0-4 1.4-4.5 3.4m12 6.5c-1.5 1.5-4.1 2.7-7.1 2.7-4.8 0-8.2-3.2-8.2-7.6 0-4.4 3.3-7.6 7.8-7.6s7.7 3.5 7.7 8.2v.5h-12.4c.5 2.4 2.5 3.8 5.1 3.8 2.2 0 4-.9 5-2l2.1 2zm-83.6 14.9l-.8 1.5h-.9l3.4-6.4h.8l1.4 6.4h-.9l-.3-1.5h-2.7zm2-3.8l-1.6 3h2.2l-.6-3zm56.5 4.7c.3 0 .6-.1.8-.2.2-.1.4-.3.5-.5.1-.2.2-.4.2-.6 0-.2-.1-.3-.2-.5-.1-.1-.3-.3-.5-.4l-.8-.3c-.5-.2-.8-.4-1-.7-.2-.2-.3-.5-.3-.9s.1-.7.3-1c.2-.3.5-.5.8-.7.3-.2.7-.2 1.2-.2.4 0 .7.1 1 .2.3.1.5.2.7.4l-.1.9c-.5-.4-1-.7-1.7-.7-.4 0-.7.1-.9.3-.2.2-.4.4-.4.7 0 .2.1.3.2.4.1.1.3.2.7.4l.8.4c.4.2.7.4.9.7.2.2.3.5.3.9s-.1.7-.2 1.1c-.2.3-.4.6-.8.8-.4.2-.8.3-1.4.3-.8 0-1.4-.2-1.9-.6l.1-.9c.5.5 1.1.7 1.7.7m6.9-3.6c.3.3.5.8.5 1.3v.4c0 .1 0 .3-.1.4H583c0 .5.1.8.4 1.1.3.2.6.4 1.1.4.3 0 .6 0 .8-.1s.5-.2.8-.3l-.1.7c-.5.3-1 .5-1.7.5-.4 0-.8-.1-1.1-.3-.3-.2-.5-.4-.7-.8-.2-.3-.2-.7-.2-1.1 0-.4.1-.8.3-1.2.2-.4.5-.8.9-1.1.4-.3.9-.4 1.5-.4.4 0 .8.2 1.1.5m-2.4.6c-.3.3-.5.6-.6.9h2.7v-.2c0-.3-.1-.6-.3-.8-.2-.2-.4-.3-.8-.3s-.7.2-1 .4m5.8-.2c-.4 0-.7.1-.9.4-.3.3-.4.6-.5 1.1l-.4 2.3h-.8l.7-4.5h.8l-.1.8c.4-.5.8-.8 1.3-.8h.4l-.1.7h-.4m2.4 3.8h-.7l-1.1-4.5h.8l.8 3.5 1.9-3.5h.8zm3 0h-.8l.7-4.5h.8l-.7 4.5zm.1-5.4c-.1-.1-.1-.2-.1-.3 0-.2.1-.3.2-.4.1-.1.3-.2.4-.2.1 0 .2 0 .3.1.1.1.1.2.1.3 0 .2-.1.3-.2.4-.1.1-.3.2-.4.2-.1 0-.2 0-.3-.1m1.9 5.3c-.3-.2-.5-.4-.7-.8-.2-.3-.3-.7-.3-1.1 0-.5.1-.9.3-1.4.2-.4.5-.8 1-1 .4-.3.9-.4 1.5-.4.5 0 1 .1 1.3.4l-.1.8c-.3-.3-.7-.5-1.2-.5-.4 0-.7.1-1 .3-.3.2-.5.4-.7.7-.2.3-.2.6-.2 1s.1.7.4 1 .6.4 1 .4c.3 0 .5 0 .8-.1.3-.1.5-.2.7-.4l-.1.9c-.2.2-.5.3-.7.3-.2.1-.5.1-.8.1-.6.1-.9 0-1.2-.2m7.2-4.1c.3.3.5.8.5 1.3v.4c0 .1 0 .3-.1.4H601c0 .5.1.8.4 1.1.3.2.6.4 1.1.4.3 0 .6 0 .8-.1.3-.1.5-.2.7-.3l-.1.7c-.5.3-1 .5-1.7.5-.4 0-.8-.1-1.1-.3-.3-.2-.5-.4-.7-.8-.2-.3-.2-.7-.2-1.1 0-.4.1-.8.3-1.2.2-.4.5-.8.9-1.1.4-.3.9-.4 1.5-.4.4 0 .9.2 1.2.5m-2.5.6c-.3.3-.5.6-.6.9h2.7v-.2c0-.3-.1-.6-.3-.8-.2-.2-.4-.3-.8-.3-.3 0-.7.2-1 .4m-42.3-6.1h-3.5c-.2 0-.4.2-.5.4l-1.4 9c0 .2.1.3.3.3h1.8c.2 0 .3-.1.3-.3l.4-2.5c0-.2.2-.4.5-.4h1.1c2.3 0 3.6-1.1 4-3.3.2-1 0-1.7-.4-2.3-.5-.6-1.4-.9-2.6-.9m.4 3.2c-.2 1.3-1.2 1.3-2.1 1.3h-.5l.4-2.3c0-.1.1-.2.3-.2h.2c.6 0 1.2 0 1.5.4.2.1.3.4.2.8m-25.4-3.2h-3.5c-.2 0-.4.2-.5.4l-1.4 9c0 .2.1.3.3.3h1.7c.2 0 .4-.2.5-.4l.4-2.4c0-.2.2-.4.5-.4h1.1c2.3 0 3.6-1.1 4-3.3.2-1 0-1.7-.4-2.3-.6-.6-1.5-.9-2.7-.9m.4 3.2c-.2 1.3-1.2 1.3-2.1 1.3h-.5l.4-2.3c0-.1.1-.2.3-.2h.2c.6 0 1.2 0 1.5.4.2.1.3.4.2.8m10.1 0h-1.7c-.1 0-.3.1-.3.2l-.1.5-.1-.2c-.4-.5-1.2-.7-2-.7-1.9 0-3.4 1.4-3.7 3.4-.2 1 .1 1.9.6 2.6.5.6 1.2.9 2.1.9 1.5 0 2.3-1 2.3-1l-.1.5c0 .2.1.3.3.3h1.5c.2 0 .4-.2.5-.4l.9-5.7c.1-.2 0-.4-.2-.4m-2.4 3.3c-.2 1-.9 1.6-1.9 1.6-.5 0-.9-.2-1.1-.5-.2-.3-.3-.7-.3-1.2.2-.9.9-1.6 1.9-1.6.5 0 .9.2 1.1.5.3.3.4.7.3 1.2m27.4-3.3h-1.7c-.1 0-.3.1-.3.2l-.1.5-.1-.2c-.4-.5-1.2-.7-2-.7-1.9 0-3.4 1.4-3.7 3.4-.2 1 .1 1.9.6 2.6.5.6 1.2.9 2.1.9 1.5 0 2.3-1 2.3-1l-.1.5c0 .2.1.3.3.3h1.5c.2 0 .4-.2.5-.4l.9-5.7c.1-.2 0-.4-.2-.4m-2.4 3.3c-.2 1-.9 1.6-1.9 1.6-.5 0-.9-.2-1.1-.5-.2-.3-.3-.7-.3-1.2.2-.9.9-1.6 1.9-1.6.5 0 .9.2 1.1.5.3.3.4.7.3 1.2m-13.7-3.3H552c-.2 0-.3.1-.4.2l-2.3 3.4-1-3.3c-.1-.2-.3-.3-.5-.3h-1.7c-.2 0-.3.2-.3.4l1.9 5.5-1.7 2.5c-.1.2 0 .5.2.5h1.7c.2 0 .3-.1.4-.2l5.6-8.1c.2-.3 0-.6-.2-.6m18.1-3l-1.4 9.2c0 .2.1.3.3.3h1.4c.2 0 .4-.2.5-.4l1.4-9c0-.2-.1-.3-.3-.3H572c-.1 0-.2.1-.2.2" fill="#090306" clip-path="url(#SVGID_2_)"/><path d="M146 1776.9c-.6 0-1 .5-1 1v7.2h19.1l-8.7-8.3-9.4.1zm18.8 10.4c0-.6-.5-1-1-1h-7.2v19.1l8.3-8.7-.1-9.4zm-10.5 18.8c.6 0 1-.5 1-1v-7.2h-19.1l8.7 8.3 9.4-.1zm-18.7-10.4c0 .6.5 1 1 1h7.2v-19.1l-8.3 8.7v9.4z" clip-path="url(#SVGID_2_)" fill="#006ab5"/><path d="M48 1780.4v8.8H35.7v-8.8h-4.5v22.2h4.5v-9.5H48v9.5h4.5v-22.2zm59.5 0v22.2h19.7l-2.5-3.9H112v-5.6h12.3v-3.8H112v-5.1h12.7l2.4-3.8zm-92.9 0c-4.7 0-7 2.8-7 6.9v8.3c0 4.8 3 7 7 7h14l-2.6-4.1H15.4c-2.2 0-3.2-.8-3.2-3.3v-7.5c0-2.4.8-3.4 3.3-3.4h10.6l2.5-3.9h-14zm73.3 0c-2.7 0-5.4 1.6-5.4 5.8v1.1c0 4.3 2.7 6 5.3 6h9.3c1 0 1.8.2 1.8 1.8v1.9c0 1.5-.8 1.8-1.8 1.8H84.8l-2.5 3.9h15.1c3.6 0 6.1-1.8 6.1-6v-1.5c0-4-2.3-5.9-5.8-5.9h-8.9c-1 0-1.7-.3-1.7-1.7v-1.5c0-1.2.5-1.7 1.6-1.7h11.7l2.4-3.8-14.9-.2zm-20.2 4.6l4.1 9.2h-8.1l4-9.2zm-2.2-4.6L55 1802.6h5l2.1-4.6h11.5l2 4.6h5L70 1780.4h-4.5z" clip-path="url(#SVGID_2_)"/></svg>