<svg xmlns="http://www.w3.org/2000/svg" xmlns:xlink="http://www.w3.org/1999/xlink" width="1103.172" height="386.938" viewBox="0 0 1103.172 386.938"><defs><linearGradient id="a" y1="0.516" x2="0.296" y2="0.514" gradientUnits="objectBoundingBox"><stop offset="0" stop-color="#fff" stop-opacity="0.302"/><stop offset="1" stop-color="#fff"/></linearGradient><linearGradient id="b" y1="0.516" x2="1.082" y2="0.513" gradientUnits="objectBoundingBox"><stop offset="0" stop-color="#0096aa"/><stop offset="1" stop-color="#2f4d7a"/></linearGradient><clipPath id="c"><rect width="991.172" height="386.938" transform="translate(454 118)" fill="url(#a)"/></clipPath><clipPath id="e"><rect width="1103.172" height="386.938" transform="translate(454 118)" fill="url(#b)"/></clipPath></defs><g transform="translate(-307 -119)"><g transform="translate(-147 1)" clip-path="url(#c)" style="isolation:isolate"><path d="M1023.481,403.714,782.891,324.659h0L665.2,285.988l-132.094-43.4c-22.854-7.51-53.12,2.437-67.248,22.1L162.8,686.528c-14.136,19.671-14.136,51.852,0,71.516l303.063,421.851c14.128,19.664,44.394,29.611,67.248,22.094l166.047-54.562h0L863.9,1093.3h0l159.585-52.442c22.862-7.51,41.568-33.546,41.568-57.855V461.569C1065.049,437.26,1046.342,411.231,1023.481,403.714Z" transform="translate(316.783 -410.982)" fill="url(#a)"/></g><g transform="translate(-147 1)" clip-path="url(#e)" style="mix-blend-mode:multiply;isolation:isolate"><path d="M1023.481,403.714,782.891,324.659h0L665.2,285.988l-132.094-43.4c-22.854-7.51-53.12,2.437-67.248,22.1L162.8,686.528c-14.136,19.671-14.136,51.852,0,71.516l303.063,421.851c14.128,19.664,44.394,29.611,67.248,22.094l166.047-54.562h0L863.9,1093.3h0l159.585-52.442c21.261-6.984,147.636-15.374,160.642-38.172.823-1.435,94.547-11.465,94.547-13.167V468.084C1278.67,443.776,1046.342,411.231,1023.481,403.714Z" transform="translate(316.783 -410.982)" fill="url(#b)"/></g></g></svg>