<?xml version="1.0" encoding="utf-8"?>
<!-- Generator: Adobe Illustrator 23.0.3, SVG Export Plug-In . SVG Version: 6.00 Build 0)  -->
<svg version="1.1" id="Layer_1" xmlns="http://www.w3.org/2000/svg" xmlns:xlink="http://www.w3.org/1999/xlink" x="0px" y="0px"
	 viewBox="0 0 13.4 15.6" style="enable-background:new 0 0 13.4 15.6;" xml:space="preserve">
<style type="text/css">
	.st0{fill:#2F3640;}
</style>
<g id="Group_4657" transform="translate(-23.5 -150.5)">
	<g id="Rectangle_472">
		<path class="st0" d="M34.4,166.1H26c-1.4,0-2.5-1.1-2.5-2.5V153c0-1.4,1.1-2.5,2.5-2.5h8.4c1.4,0,2.5,1.1,2.5,2.5v10.6
			C36.9,164.9,35.8,166.1,34.4,166.1z M26,151.5c-0.8,0-1.5,0.7-1.5,1.5v10.6c0,0.8,0.7,1.5,1.5,1.5h8.4c0.8,0,1.5-0.7,1.5-1.5V153
			c0-0.8-0.7-1.5-1.5-1.5H26z"/>
	</g>
	<g id="Line_66">
		<path class="st0" d="M33.2,155.7h-6c-0.3,0-0.5-0.2-0.5-0.5s0.2-0.5,0.5-0.5h6c0.3,0,0.5,0.2,0.5,0.5S33.4,155.7,33.2,155.7z"/>
	</g>
	<g id="Line_67">
		<path class="st0" d="M33.2,158.6h-6c-0.3,0-0.5-0.2-0.5-0.5s0.2-0.5,0.5-0.5h6c0.3,0,0.5,0.2,0.5,0.5S33.4,158.6,33.2,158.6z"/>
	</g>
	<g id="Line_68">
		<path class="st0" d="M30.5,161.9h-3.3c-0.3,0-0.5-0.2-0.5-0.5s0.2-0.5,0.5-0.5h3.3c0.3,0,0.5,0.2,0.5,0.5S30.8,161.9,30.5,161.9z"
			/>
	</g>
</g>
</svg>
