<?xml version="1.0" encoding="utf-8"?>
<!-- Generator: Adobe Illustrator 24.2.3, SVG Export Plug-In . SVG Version: 6.00 Build 0)  -->
<svg version="1.1" id="Layer_1" xmlns="http://www.w3.org/2000/svg" xmlns:xlink="http://www.w3.org/1999/xlink" x="0px" y="0px"
	 viewBox="0 0 372.4 377.5" style="enable-background:new 0 0 372.4 377.5;" xml:space="preserve">
<style type="text/css">
	.st0{fill:#FFFFFF;stroke:#FFFFFF;stroke-width:2;stroke-miterlimit:10;}
</style>
<rect x="284.3" y="33.8" transform="matrix(0.7071 -0.7071 0.7071 0.7071 26.452 229.1543)" class="st0" width="11.1" height="97.7"/>
<path class="st0" d="M112.9,259.6l9.9-79L295.5,7.9c8.9-9.1,23.5-9.2,32.5-0.3c0.1,0.1,0.2,0.2,0.3,0.3l36.3,36.3
	c9.1,8.9,9.2,23.5,0.3,32.5c-0.1,0.1-0.2,0.2-0.3,0.3L191.8,249.7L112.9,259.6z M133.3,185.8l-7.6,61l61-7.6L356.8,69.1
	c4.7-4.6,4.8-12.1,0.3-16.8c-0.1-0.1-0.2-0.2-0.3-0.3l-36.3-36.3c-4.7-4.7-12.3-4.7-17.1,0L133.3,185.8z M189.2,244.5L189.2,244.5z"
	/>
<polygon class="st0" points="326.8,172.4 326.8,364.1 13.4,364.1 13.4,50.7 180.4,50.7 180.4,38.4 1,38.4 1,376.5 339.1,376.5 
	339.1,172.4 "/>
</svg>
