<?xml version="1.0" encoding="utf-8"?>
<!-- Generator: Adobe Illustrator 23.0.3, SVG Export Plug-In . SVG Version: 6.00 Build 0)  -->
<svg version="1.1" id="Layer_1" xmlns="http://www.w3.org/2000/svg" xmlns:xlink="http://www.w3.org/1999/xlink" x="0px" y="0px"
	 viewBox="0 0 16.7 20.7" style="enable-background:new 0 0 16.7 20.7;" xml:space="preserve">
<style type="text/css">
	.st0{fill:#2F3640;}
</style>
<g id="Group_4709" transform="translate(-19.509 -16.404)">
	<path id="Path_653" class="st0" d="M36.2,37.1H19.5V16.4h16.7V37.1z M20.6,36H35V17.6H20.6V36z"/>
	<path id="Path_655" class="st0" d="M31.5,27.7h-7.2c-0.3,0.1-0.7-0.1-0.8-0.4s0.1-0.7,0.4-0.8c0,0,0,0,0,0c0.1,0,0.2,0,0.3,0h7.2
		c0.3-0.1,0.7,0.1,0.8,0.4s-0.1,0.7-0.4,0.8c0,0,0,0,0,0C31.7,27.8,31.6,27.8,31.5,27.7z"/>
	<path id="Path_656" class="st0" d="M31.5,30.7h-7.2c-0.3,0.1-0.7-0.1-0.8-0.5c-0.1-0.3,0.1-0.7,0.5-0.8c0.1,0,0.2,0,0.3,0h7.2
		c0.3-0.1,0.7,0.1,0.8,0.5s-0.1,0.7-0.5,0.8C31.7,30.7,31.6,30.7,31.5,30.7z"/>
	<path id="Path_657" class="st0" d="M28.3,33.7h-4c-0.3,0.1-0.7-0.1-0.8-0.4c-0.1-0.3,0.1-0.7,0.4-0.8c0,0,0,0,0,0
		c0.1,0,0.2,0,0.3,0h4c0.3-0.1,0.7,0.1,0.8,0.5c0.1,0.3-0.1,0.7-0.5,0.8C28.5,33.7,28.4,33.7,28.3,33.7z"/>
	<g id="Rectangle_528">
		<path class="st0" d="M32.4,25h-8.6c-0.5,0-0.9-0.4-0.9-0.9v-3.7c0-0.5,0.4-0.9,0.9-0.9h8.6c0.5,0,0.9,0.4,0.9,0.9v3.7
			C33.4,24.6,32.9,25,32.4,25z M24.2,23.7h8v-3.1h-8V23.7z"/>
	</g>
</g>
</svg>
