<?xml version="1.0" encoding="utf-8"?>
<!-- Generator: Adobe Illustrator 24.2.3, SVG Export Plug-In . SVG Version: 6.00 Build 0)  -->
<svg version="1.1" id="Layer_1" xmlns="http://www.w3.org/2000/svg" xmlns:xlink="http://www.w3.org/1999/xlink" x="0px" y="0px"
	 viewBox="0 0 283.1 283" style="enable-background:new 0 0 283.1 283;" xml:space="preserve">
<style type="text/css">
	.st0{fill:#FFFFFF;}
	.st1{fill:none;stroke:#FFFFFF;stroke-width:8;stroke-miterlimit:10;}
</style>
<g id="CASE_STUDY">
	<rect x="34" y="197.4" class="st0" width="170" height="7"/>
	<rect x="34" y="157.7" class="st0" width="162" height="7"/>
	<rect x="34" y="237" class="st0" width="170" height="7"/>
	<rect x="116" y="122.2" class="st0" width="20" height="7"/>
	<rect x="116" y="37" class="st0" width="50" height="7"/>
	<rect x="116" y="80.6" class="st0" width="12" height="7"/>
	<path class="st0" d="M221,152.7V273H10V10h211v30.3c0.8,0.2,1.6,0.5,2.3,0.9c1.9,1.2,4,2,5.9,3.3c0.6,0.4,1,1.8,1.5,2.2
		c0.1,0.1,0.2-0.9,0.4-0.8V0H0v283h231V142.8C228.3,146.6,224.9,150,221,152.7z"/>
	<path class="st0" d="M254.9,98.6c0-35.4-28.7-64.2-64.2-64.2s-64.2,28.7-64.2,64.2c0,35.4,28.7,64.2,64.2,64.2l0,0
		C226.2,162.7,254.9,134,254.9,98.6z M190.7,157.6c-32.6,0-59-26.4-59-59s26.4-59,59-59s59,26.4,59,59
		C249.7,131.2,223.3,157.6,190.7,157.6L190.7,157.6z"/>
	<path class="st0" d="M190.7,165.8c-37.1,0-67.2-30.1-67.2-67.2c0-37.1,30.1-67.2,67.2-67.2s67.2,30.1,67.2,67.2l0,0
		C257.9,135.7,227.8,165.7,190.7,165.8z M190.7,42.5c-30.9,0-56,25.1-56,56s25.1,56,56,56s56-25.1,56-56
		C246.7,67.6,221.6,42.6,190.7,42.5L190.7,42.5z"/>
	<path class="st0" d="M279.4,176.4l-34.5-34.5c-3.2,4-6.9,7.7-10.9,10.9l34.5,34.5c1,1,2.6,1,3.6,0l7.3-7.3
		C280.4,179,280.4,177.4,279.4,176.4C279.4,176.4,279.4,176.4,279.4,176.4z"/>
	<path class="st0" d="M270.3,191c-1.5,0-2.9-0.6-3.9-1.6l-36.9-36.9l2.6-2.1c3.8-3.1,7.3-6.6,10.4-10.4l2.1-2.6l36.9,36.9
		c2.2,2.2,2.2,5.7,0,7.9l-7.3,7.3C273.2,190.4,271.8,191,270.3,191L270.3,191z M238.4,152.9l31.9,31.9l6.6-6.6l-31.9-31.9
		C243,148.6,240.8,150.9,238.4,152.9L238.4,152.9z"/>
	<rect x="34" y="41" class="st1" width="67" height="86"/>
</g>
</svg>
