<svg xmlns="http://www.w3.org/2000/svg" width="192.351" height="202.296" viewBox="0 0 192.351 202.296">
  <g id="Circle_1" transform="translate(0)">
    <g id="Group_520" data-name="Group 520" transform="translate(21.611 0)">
      <path id="Path_644" data-name="Path 644" d="M870.337,480.129a100.723,100.723,0,0,1-69.591-27.747l6.614-6.97a91.539,91.539,0,1,0,62.976-157.97v-9.609a101.148,101.148,0,1,1,0,202.3Z" transform="translate(-800.746 -277.833)" fill="#0096aa"/>
    </g>
    <g id="Group_521" data-name="Group 521" transform="translate(0 9.943)">
      <path id="Path_645" data-name="Path 645" d="M880.7,292.616a81.6,81.6,0,1,1-81.6,81.6,81.689,81.689,0,0,1,81.6-81.6m0-9.609a91.2,91.2,0,1,0,91.2,91.2,91.2,91.2,0,0,0-91.2-91.2Z" transform="translate(-789.5 -283.007)" fill="#dbdbdb"/>
    </g>
  </g>
</svg>
