<?xml version="1.0" encoding="utf-8"?>
<!-- Generator: Adobe Illustrator 26.0.2, SVG Export Plug-In . SVG Version: 6.00 Build 0)  -->
<svg version="1.1" id="Layer_1" xmlns="http://www.w3.org/2000/svg" xmlns:xlink="http://www.w3.org/1999/xlink" x="0px" y="0px"
	 viewBox="0 0 19.4 19.4" style="enable-background:new 0 0 19.4 19.4;" xml:space="preserve">
<style type="text/css">
	.st0{fill-rule:evenodd;clip-rule:evenodd;fill:#FFFFFF;}
</style>
<g id="cancel-music_1_">
	<path id="Path_275" class="st0" d="M12,9.7L19,2.8c0.6-0.6,0.6-1.7,0-2.3c-0.6-0.6-1.6-0.6-2.3,0L9.7,7.4L2.8,0.5
		c-0.6-0.6-1.7-0.6-2.3,0s-0.6,1.7,0,2.3c0,0,0,0,0,0l6.9,6.9l-6.9,6.9c-0.6,0.6-0.6,1.7,0,2.3c0.6,0.6,1.6,0.6,2.3,0L9.7,12
		l6.9,6.9c0.6,0.6,1.7,0.6,2.3,0c0.6-0.6,0.6-1.6,0-2.3L12,9.7z"/>
</g>
</svg>
