<?xml version="1.0" encoding="utf-8"?>
<!-- Generator: Adobe Illustrator 23.0.3, SVG Export Plug-In . SVG Version: 6.00 Build 0)  -->
<svg version="1.1" id="Layer_1" xmlns="http://www.w3.org/2000/svg" xmlns:xlink="http://www.w3.org/1999/xlink" x="0px" y="0px"
	 viewBox="0 0 16.7 20.7" style="enable-background:new 0 0 16.7 20.7;" xml:space="preserve">
<style type="text/css">
	.st0{fill:#2F3640;}
</style>
<g id="sheets-1" transform="translate(-2 -7.297)">
	<path id="Path_653" class="st0" d="M18.7,28H2V7.3h16.7V28z M3.1,26.8h14.3V8.4H3.1V26.8z"/>
	<path id="Path_655" class="st0" d="M14,12.5H6.8c-0.3,0.1-0.7-0.1-0.8-0.5c-0.1-0.3,0.1-0.7,0.5-0.8c0.1,0,0.2,0,0.3,0H14
		c0.3-0.1,0.7,0.1,0.8,0.5c0.1,0.3-0.1,0.7-0.5,0.8C14.2,12.5,14.1,12.5,14,12.5z"/>
	<path id="Path_656" class="st0" d="M14,16.5H6.8C6.4,16.6,6.1,16.4,6,16c-0.1-0.3,0.1-0.7,0.5-0.8c0.1,0,0.2,0,0.3,0H14
		c0.3-0.1,0.7,0.1,0.8,0.5c0.1,0.3-0.1,0.7-0.5,0.8C14.2,16.5,14.1,16.5,14,16.5z"/>
	<path id="Path_657" class="st0" d="M10.7,20.7h-4c-0.3,0.1-0.7-0.1-0.8-0.5c-0.1-0.3,0.1-0.7,0.5-0.8c0.1,0,0.2,0,0.3,0h4
		c0.3-0.1,0.7,0.1,0.8,0.5c0.1,0.3-0.1,0.7-0.5,0.8C11,20.7,10.9,20.7,10.7,20.7z"/>
</g>
</svg>
