<svg xmlns="http://www.w3.org/2000/svg" width="626.427" height="400.292" viewBox="0 0 626.427 400.292"><g transform="translate(-0.05)" style="isolation:isolate"><path d="M196.832,287.411a19.824,19.824,0,0,1,5.921,14.167v6.449H189.616v-3a14.009,14.009,0,0,0-2.128-7.784q-2.115-3.291-7.15-3.291a8.247,8.247,0,0,0-4.374,1.031,8.577,8.577,0,0,0-2.709,2.643,10.7,10.7,0,0,0-1.414,3.793,24.384,24.384,0,0,0-.4,4.454,42.5,42.5,0,0,0,.2,4.507,8.67,8.67,0,0,0,.965,3.225,7.2,7.2,0,0,0,2.26,2.445,20.415,20.415,0,0,0,4.057,2.062l10.044,3.965a24.886,24.886,0,0,1,7.084,3.965,16.824,16.824,0,0,1,4.255,5.207,24.263,24.263,0,0,1,1.929,7.031,69.4,69.4,0,0,1,.515,8.947,47.574,47.574,0,0,1-1.15,10.758,22.678,22.678,0,0,1-3.74,8.445,18.581,18.581,0,0,1-7.084,5.67,25,25,0,0,1-10.692,2.062,23.261,23.261,0,0,1-8.894-1.731,20.868,20.868,0,0,1-7.084-4.639,22.467,22.467,0,0,1-4.7-6.885,20.96,20.96,0,0,1-1.744-8.577v-4.89h13.15v4.123a10.731,10.731,0,0,0,2.115,6.5c1.427,1.93,3.806,2.908,7.163,2.908a11.446,11.446,0,0,0,5.207-.978,6.9,6.9,0,0,0,2.907-2.762,10.044,10.044,0,0,0,1.216-4.322c.132-1.678.2-3.542.2-5.6a55.154,55.154,0,0,0-.264-5.921,10.573,10.573,0,0,0-1.018-3.74,7.454,7.454,0,0,0-2.392-2.326,32.074,32.074,0,0,0-3.965-1.93l-9.41-3.859q-8.5-3.489-11.405-9.251a31.718,31.718,0,0,1-2.894-14.366,33.555,33.555,0,0,1,1.414-9.793,22.467,22.467,0,0,1,4.255-8,19.3,19.3,0,0,1,6.885-5.286,23.035,23.035,0,0,1,9.991-2.009,21.845,21.845,0,0,1,8.96,1.811,23.141,23.141,0,0,1,7.057,4.771Zm58.017,64.03q0,4.89-2.326,7.216a8.379,8.379,0,0,1-11.59,0q-2.326-2.313-2.326-7.216V281.609H225.47v71.127a20.206,20.206,0,0,0,1.678,8.3,22.282,22.282,0,0,0,11.392,11.405,19.956,19.956,0,0,0,8.181,1.678,20.4,20.4,0,0,0,8.26-1.692,21.727,21.727,0,0,0,6.833-4.639A20.788,20.788,0,0,0,268,352.723V281.609h-13.15Zm66.859-21.3h-.251L304.58,281.57H291.985V373.3h13.15V317.556h.251l12.885,39.423h6.608L337.9,317.556h.264V373.34H351.3V281.609H338.545Zm84.581,0h-.251L389.161,281.57H376.566V373.3h13.15V317.556h.251l12.885,39.423h6.608l13-39.423h.264V373.34h13.136V281.609H423.112ZM461.478,373.3h13.136V281.609H461.478Zm60.581,0V293.979H537.27v-12.37H493.658v12.37h15.211V373.34ZM729.427,211.1V396.216c0,10.454-8.167,21.225-18.2,24.066l-295.015,83.55-295.068-83.5C111.1,417.494,103,406.71,103,396.216V211.1c0-10.44,8.167-21.225,18.2-24.066l295.015-83.5,295.042,83.5C721.26,189.879,729.427,200.623,729.427,211.1Zm-5.828,0c0-7.929-6.4-16.335-13.982-18.5l-293.4-83.035-293.5,83.127c-7.573,2.141-13.969,10.573-13.969,18.5V396.216c0,7.929,6.4,16.348,13.969,18.5l293.5,83.087L709.6,414.718c7.586-2.141,13.982-10.573,13.982-18.5Zm-383.389-.5a3.476,3.476,0,0,0,3.621,1.176l8.947-2.907L336.456,186.4l16.52-22.731-9.145-2.974a3.476,3.476,0,0,0-3.621,1.176L323.9,184.341a3.436,3.436,0,0,0,0,3.806Zm16.877-3.119,13.15-4.282a3.449,3.449,0,0,0,2.233-3.079V172.368a3.449,3.449,0,0,0-2.233-3.079l-12.951-4.2-15.595,21.33Zm52.44-11.154V183.442c0-4.44,3.185-7.414,10.824-7.414s10.81,2.974,10.81,7.414v12.872c0,4.44-3.2,7.4-10.81,7.4s-10.824-2.947-10.824-7.388Zm5.141-.436c0,2.326,1.626,3.621,5.683,3.621s5.67-1.322,5.67-3.621V183.879c0-2.313-1.612-3.608-5.67-3.608s-5.683,1.322-5.683,3.608Zm28.44,7.837a12.938,12.938,0,0,0,8.656-3.106l.106,1.467c0,.753.264,1.031,1.031,1.031h2.96c.7,0,.965-.278.965-1.031V177.561c0-.753-.264-1.084-.965-1.084h-3.185c-.714,0-.991.33-.991,1.084v18.872a11.313,11.313,0,0,1-7.018,2.643c-2.974,0-3.965-1.322-3.965-3.568V177.561c0-.753-.33-1.084-1.031-1.084h-3.132c-.714,0-.978.33-.978,1.084V196.87c-.079,4,2.564,6.859,7.546,6.859Zm19.07-.568h3.145c.7,0,.965-.33.965-1.084V183.442a12.344,12.344,0,0,1,7.361-2.762c2.974,0,3.965,1.322,3.965,3.568v17.828c0,.753.33,1.084,1.031,1.084h3.145c.7,0,.965-.33.965-1.084v-19.11c0-3.965-2.643-6.925-7.625-6.925a13.639,13.639,0,0,0-8.974,3.2l-.106-1.731c0-.7-.277-1.031-1.031-1.031h-2.868c-.753,0-1.031.33-1.031,1.031v24.568c.026.753.3,1.084,1.057,1.084ZM485.755,180.8h2.974v15.37c0,4.771,2.273,7.414,9.9,7.414h1.784c.7,0,1.018-.264,1.018-1.031v-2.273c0-.753-.317-1.07-1.018-1.07h-1.018c-4.057,0-5.471-1.322-5.471-3.568V180.8h5.551c.7,0,1.031-.33,1.031-1.084v-2.247c0-.7-.33-.965-1.031-.965h-5.564v-4.9c0-.753-.264-1.084-.978-1.084h-3.185c-.7,0-1.031.33-1.031,1.084v4.9h-.33l-2.643.291c-.753,0-1.031.317-1.031,1.031v1.89C484.724,180.482,485,180.8,485.755,180.8Zm19.163-6.013V170.94c0-.159.066-.225.211-.225h1.665c1.322,0,1.652.661,1.652,1.242v.33a1.084,1.084,0,0,1-.687,1.084l.581,1.414c0,.132,0,.225-.211.225h-.621c-.132,0-.145-.079-.211-.225l-.529-1.322h-.819v1.322c0,.145,0,.225-.2.225h-.621c-.145.013-.212-.066-.212-.211Zm1.031-2.048h.74c.41,0,.7-.2.7-.489v-.238c0-.317-.264-.5-.7-.5h-.74Zm-3.106,1.546V171.39c0-1,.449-2.392,3.753-2.392s3.74,1.322,3.74,2.392v2.894c0,1-.423,2.392-3.74,2.392s-3.753-1.374-3.753-2.379Zm1.018.093c0,.7.515,1.322,2.736,1.322s2.709-.674,2.709-1.322v-3.092c0-.7-.489-1.322-2.709-1.322s-2.736.674-2.736,1.322ZM385.2,203.147h3.463c.793,0,1.084-.344,1.084-1.084V188.346H391.1l9.819,13.731a2.009,2.009,0,0,0,1.652,1.084h4.48c.753,0,.912-.568.515-1.084L395.756,185.9l11.352-15.555c.41-.555.238-1.07-.5-1.07h-3.753a2.392,2.392,0,0,0-1.758,1.07L391.1,184.209h-1.322V170.346c0-.74-.291-1.084-1.084-1.084h-3.463c-.74,0-1.031.344-1.031,1.084v31.718c-.04.753.291,1.1.991,1.1Z" transform="translate(-102.95 -103.54)" fill="#fff"/><path d="M216.74,326.76h4.308l10.176,26.061,10.189-26.061h4.3l-12.172,30.185h-4.665Z" transform="translate(-66.374 -31.758)" fill="#fff"/><path d="M241.63,326.76h3.753v30.185H241.63Z" transform="translate(-58.37 -31.758)" fill="#fff"/><path d="M259.59,344.945h-6.026v12H249.81V326.76h12.145a10.573,10.573,0,0,1,4.9,1.11,8.049,8.049,0,0,1,3.357,3.185,9.5,9.5,0,0,1,1.2,4.8,9.172,9.172,0,0,1-1.07,4.546,7.679,7.679,0,0,1-2.855,2.987,8.962,8.962,0,0,1-3.965,1.242l8.154,12.317h-4.441Zm6.238-13.216a6,6,0,0,0-4.335-1.612h-7.929v11.5h7.929a5.96,5.96,0,0,0,4.335-1.626,5.524,5.524,0,0,0,1.678-4.163,5.445,5.445,0,0,0-1.678-4.11Z" transform="translate(-55.739 -31.758)" fill="#fff"/><path d="M278.265,330.1H268.71V326.76h22.85V330.1h-9.595v26.841h-3.753Z" transform="translate(-49.662 -31.758)" fill="#fff"/><path d="M289.8,326.76h3.767v18.4a9.423,9.423,0,0,0,2.207,6.608,9.555,9.555,0,0,0,12.674,0,9.37,9.37,0,0,0,2.22-6.608v-18.4h3.753v18.5a12.528,12.528,0,0,1-3.145,9.04c-2.088,2.181-5.154,3.278-9.159,3.278s-7.07-1.1-9.172-3.278a12.529,12.529,0,0,1-3.145-9Z" transform="translate(-42.884 -31.758)" fill="#fff"/><path d="M332.637,350.244H317.346l-2.643,6.7H310.54l12.132-30.185h4.652L339.5,356.945h-4.163ZM318.43,346.9h13.084L325,330.1Z" transform="translate(-36.21 -31.758)" fill="#fff"/><path d="M335.41,326.76h3.767v26.828H353.2v3.357H335.41Z" transform="translate(-28.212 -31.758)" fill="#fff"/><path d="M361.723,326.76h19.824V330.1h-16.07v9.74h15.7v3.344h-15.7v10.4h16.018v3.357H361.67Z" transform="translate(-19.768 -31.758)" fill="#fff"/><path d="M378.83,326.76h4.3L393.3,352.822l10.189-26.061h4.3l-12.172,30.185h-4.665Z" transform="translate(-14.25 -31.758)" fill="#fff"/><path d="M403.733,326.76h19.824V330.1h-16.07v9.74h15.7v3.344h-15.7v10.4H423.5v3.357H403.68Z" transform="translate(-6.258 -31.758)" fill="#fff"/><path d="M426.9,332.6v24.343h-3.7V326.76h3.846l17.379,23.788V326.76h3.753v30.185h-3.621Z" transform="translate(0.019 -31.758)" fill="#fff"/><path d="M455.412,330.1H445.87V326.76h22.89V330.1h-9.581v26.841h-3.767Z" transform="translate(7.309 -31.758)" fill="#fff"/><path d="M450.5,280.59V238.3h20.286v6.33H457.769v10.9H467.5v6.33h-9.727V280.59Z" transform="translate(8.798 -60.204)" fill="#fff"/><path d="M477.221,280.59H470.19l7.8-42.29h9.026l7.8,42.29h-7.044l-1.322-9.383h-7.93Zm2.352-15.7h5.855l-2.868-18.172h-.119Z" transform="translate(15.13 -60.204)" fill="#fff"/><path d="M496.85,280.59V238.3h7.269v35.987H515.55v6.33Z" transform="translate(23.703 -60.204)" fill="#fff"/><path d="M519.11,280.59V238.3h7.269v35.987H537.81v6.33Z" transform="translate(30.861 -60.204)" fill="#fff"/><path d="M450.5,317.674v-5.617c9.026-13.216,13.956-20.458,13.956-26.669,0-3.344-1.322-4.811-3.291-4.811-2.339,0-3.515,1.824-3.515,4.4v2.868h-6.912v-1.982c0-6.225,3.965-11.022,10.784-11.022a9.449,9.449,0,0,1,9.846,9.37c0,6.687-2.115,11.6-13.48,27.555H470.72v5.974Z" transform="translate(8.798 -48.456)" fill="#fff"/><path d="M473.28,286.393c0-7.929,3.04-11.6,10.308-11.6s10.322,3.634,10.322,11.6v20.273c0,7.929-3.053,11.6-10.322,11.6s-10.308-3.621-10.308-11.6Zm13.7-1.824c0-2.749-1.229-4.044-3.4-4.044s-3.4,1.322-3.4,4.044V308.49c0,2.749,1.229,4.044,3.4,4.044s3.4-1.322,3.4-4.044Z" transform="translate(16.123 -48.47)" fill="#fff"/><path d="M494.88,317.674v-5.617c9.013-13.216,13.943-20.458,13.943-26.669,0-3.344-1.322-4.811-3.278-4.811-2.352,0-3.515,1.824-3.515,4.4v2.868H495.1v-1.982c0-6.225,3.965-11.022,10.784-11.022a9.436,9.436,0,0,1,9.846,9.37c0,6.687-2.1,11.6-13.48,27.555H515.1v5.974Z" transform="translate(23.069 -48.456)" fill="#fff"/><path d="M517.65,286.393c0-7.929,3.053-11.6,10.322-11.6s10.308,3.634,10.308,11.6v20.273c0,7.929-3.04,11.6-10.308,11.6s-10.322-3.621-10.322-11.6Zm13.678-1.824c0-2.749-1.229-4.044-3.4-4.044s-3.41,1.322-3.41,4.044V308.49c0,2.749,1.242,4.044,3.41,4.044s3.4-1.322,3.4-4.044Z" transform="translate(30.392 -48.47)" fill="#fff"/><path d="M147.57,200.281h10.255a16.123,16.123,0,0,1,8.035,1.956,13.546,13.546,0,0,1,5.419,5.392,16.269,16.269,0,0,1,0,15.317,13.8,13.8,0,0,1-5.418,5.286,16.256,16.256,0,0,1-8.035,1.956H147.57Zm10.255,26.643a11.789,11.789,0,0,0,6.145-1.546,10.308,10.308,0,0,0,3.965-4.2,12.5,12.5,0,0,0,1.322-5.894,12.846,12.846,0,0,0-1.322-5.921,10.176,10.176,0,0,0-3.965-4.2,11.894,11.894,0,0,0-6.2-1.559H151.31v23.326Z" transform="translate(-88.617 -72.432)" fill="#fff"/><path d="M174.37,200.28H178.1v30.026H174.37Z" transform="translate(-79.999 -72.431)" fill="#fff"/><path d="M186.612,207.341a14.445,14.445,0,0,1,5.577-5.485,15.859,15.859,0,0,1,7.8-1.956,14.3,14.3,0,0,1,11.63,5.617l-2.96,1.85a10.361,10.361,0,0,0-3.753-3.013,11.075,11.075,0,0,0-4.916-1.123,11.511,11.511,0,0,0-5.894,1.546,11.009,11.009,0,0,0-4.15,4.335,13.89,13.89,0,0,0,0,12.581,11.088,11.088,0,0,0,4.15,4.361,11.287,11.287,0,0,0,5.894,1.573,9.251,9.251,0,0,0,6.912-2.643,11.7,11.7,0,0,0,3.145-6.7h-12.3v-3.33h16.348a19.532,19.532,0,0,1-1.678,8.339,12.859,12.859,0,0,1-4.943,5.643,14.406,14.406,0,0,1-7.784,2.022A15.225,15.225,0,0,1,192.1,229a14.537,14.537,0,0,1-5.511-5.511,17.035,17.035,0,0,1,0-16.15Z" transform="translate(-76.725 -72.553)" fill="#fff"/><path d="M213.87,200.28h3.74v30.026h-3.74Z" transform="translate(-67.297 -72.431)" fill="#fff"/><path d="M232.906,203.6H223.43V200.28h22.731V203.6h-9.529v26.709h-3.727Z" transform="translate(-64.223 -72.431)" fill="#fff"/><path d="M264.715,223.605H249.53l-2.643,6.608H242.75l12.04-29.973h4.626l12.079,30.079h-4.137ZM250.6,220.288h12.991l-6.476-16.678Z" transform="translate(-58.01 -72.444)" fill="#fff"/><path d="M270.45,200.28h3.727v26.643h13.929v3.383H270.45Z" transform="translate(-49.102 -72.431)" fill="#fff"/><path d="M306,200.281h12.04A10,10,0,0,1,323.1,201.5a8.1,8.1,0,0,1,3.225,3.277,9.78,9.78,0,0,1,0,9.079,8.286,8.286,0,0,1-3.264,3.277,10,10,0,0,1-5.009,1.216H309.74v11.894H306Zm15.859,4.916a5.96,5.96,0,0,0-4.308-1.6h-7.863v11.418h7.863a5.719,5.719,0,0,0,4.308-9.819Z" transform="translate(-37.67 -72.432)" fill="#fff"/><path d="M338.62,218.412h-5.974v11.894H328.92V200.28h12a10.572,10.572,0,0,1,4.877,1.1,8.115,8.115,0,0,1,3.33,3.172,9.344,9.344,0,0,1,1.189,4.758,9.251,9.251,0,0,1-1.057,4.52,7.824,7.824,0,0,1-2.828,2.96,8.908,8.908,0,0,1-3.9,1.242l8.088,12.225h-4.414Zm6.264-13.216a5.96,5.96,0,0,0-4.308-1.6h-7.863v11.458h7.863a5.868,5.868,0,0,0,4.308-1.612,5.524,5.524,0,0,0,1.665-4.137,5.445,5.445,0,0,0-1.665-4.11Z" transform="translate(-30.3 -72.431)" fill="#fff"/><path d="M353.522,207.486a13.9,13.9,0,0,1,5.286-5.551,15.753,15.753,0,0,1,15.489,0,14.141,14.141,0,0,1,5.286,5.551,17.63,17.63,0,0,1,0,15.859,14.273,14.273,0,0,1-5.286,5.564,15.859,15.859,0,0,1-15.489,0,14.022,14.022,0,0,1-5.286-5.564A17.855,17.855,0,0,1,353.522,207.486Zm22.652,1.665a10.335,10.335,0,0,0-9.634-5.921,10.744,10.744,0,0,0-5.828,1.573,10.48,10.48,0,0,0-3.833,4.348,15.264,15.264,0,0,0,0,12.542,10.4,10.4,0,0,0,3.859,4.361,10.7,10.7,0,0,0,15.436-4.361A14.986,14.986,0,0,0,376.174,209.151Z" transform="translate(-22.985 -72.553)" fill="#fff"/><path d="M388.576,203.6H379.1V200.28h22.731V203.6h-9.515v26.709h-3.74Z" transform="translate(-14.163 -72.431)" fill="#fff"/><path d="M403,200.28h19.625V203.6H406.767v9.661h15.595v3.33H406.767v10.335h15.859v3.383H403Z" transform="translate(-6.477 -72.431)" fill="#fff"/><path d="M432.006,229a14.286,14.286,0,0,1-5.524-5.511,17.062,17.062,0,0,1,0-16.11,14.233,14.233,0,0,1,5.524-5.524,15.7,15.7,0,0,1,7.7-1.956,13.6,13.6,0,0,1,6.714,1.6,14.431,14.431,0,0,1,4.784,4.335l-3.145,1.758a9.818,9.818,0,0,0-3.529-3.145,9.938,9.938,0,0,0-4.824-1.216,10.982,10.982,0,0,0-9.912,5.894,13.07,13.07,0,0,0-1.507,6.3,12.9,12.9,0,0,0,1.507,6.277,11.325,11.325,0,0,0,4.11,4.348,11.075,11.075,0,0,0,5.8,1.573,10.07,10.07,0,0,0,4.824-1.189,9.529,9.529,0,0,0,3.529-3.172l3.185,1.758a13.639,13.639,0,0,1-11.537,5.934,15.7,15.7,0,0,1-7.7-1.956Z" transform="translate(0.424 -72.554)" fill="#fff"/><path d="M459.306,203.6H449.83V200.28h22.691V203.6h-9.529v26.709h-3.687Z" transform="translate(8.582 -72.431)" fill="#fff"/><path d="M473.72,200.28h3.727v30.026H473.72Z" transform="translate(16.265 -72.431)" fill="#fff"/><path d="M485.782,207.486a13.9,13.9,0,0,1,5.286-5.551,15.727,15.727,0,0,1,15.476,0,14.088,14.088,0,0,1,5.286,5.551,17.63,17.63,0,0,1,0,15.859,14.207,14.207,0,0,1-5.286,5.564,15.859,15.859,0,0,1-15.476,0,14.022,14.022,0,0,1-5.286-5.564A17.854,17.854,0,0,1,485.782,207.486Zm22.652,1.665a10.374,10.374,0,0,0-9.634-5.921,10.744,10.744,0,0,0-5.828,1.573,10.387,10.387,0,0,0-3.833,4.348,15.264,15.264,0,0,0,0,12.542A10.4,10.4,0,0,0,493,226.054a10.744,10.744,0,0,0,5.8,1.573,10.348,10.348,0,0,0,9.634-5.934A14.987,14.987,0,0,0,508.434,209.151Z" transform="translate(19.546 -72.553)" fill="#fff"/><path d="M517.567,206.069v24.238H513.84V200.28h3.819l17.26,23.683V200.28h3.727v30.026h-3.595Z" transform="translate(29.166 -72.431)" fill="#fff"/></g></svg>