<?xml version="1.0" encoding="utf-8"?>
<!-- Generator: Adobe Illustrator 23.0.3, SVG Export Plug-In . SVG Version: 6.00 Build 0)  -->
<svg version="1.1" id="Layer_1" xmlns="http://www.w3.org/2000/svg" xmlns:xlink="http://www.w3.org/1999/xlink" x="0px" y="0px"
	 viewBox="0 0 13.9 21.7" style="enable-background:new 0 0 13.9 21.7;" xml:space="preserve">
<style type="text/css">
	.st0{fill:#2F3640;}
</style>
<g>
	<rect x="2.7" y="5.2" class="st0" width="8.6" height="1"/>
	<rect x="2.7" y="9.3" class="st0" width="8.6" height="1"/>
	<rect x="2.7" y="13.5" class="st0" width="8.6" height="1"/>
	<path class="st0" d="M11.4,0H2.5C1.1,0,0,1.1,0,2.5v16.7c0,1.4,1.1,2.5,2.5,2.5h8.9c1.4,0,2.5-1.1,2.5-2.5V2.5
		C13.9,1.1,12.8,0,11.4,0z M12.9,2.7v15.4H1V2.7H12.9z M2.5,1h8.9c0.5,0,1,0.3,1.3,0.7H1.2C1.5,1.3,2,1,2.5,1z M11.4,20.7H2.5
		C1.7,20.7,1,20,1,19.2v-0.1h11.9v0.1C12.9,20,12.3,20.7,11.4,20.7z"/>
	<path class="st0" d="M7.8,19.4H6.1c-0.3,0-0.5,0.2-0.5,0.5s0.2,0.5,0.5,0.5h1.7c0.3,0,0.5-0.2,0.5-0.5S8.1,19.4,7.8,19.4z"/>
</g>
</svg>
