<?xml version="1.0" encoding="utf-8"?>
<!-- Generator: Adobe Illustrator 24.2.3, SVG Export Plug-In . SVG Version: 6.00 Build 0)  -->
<svg version="1.1" id="Layer_1" xmlns="http://www.w3.org/2000/svg" xmlns:xlink="http://www.w3.org/1999/xlink" x="0px" y="0px"
	 viewBox="0 0 403.4 347.2" style="enable-background:new 0 0 403.4 347.2;" xml:space="preserve">
<style type="text/css">
	.st0{fill:#FFFFFF;stroke:#FFFFFF;stroke-miterlimit:10;}
</style>
<path class="st0" d="M359.9,39.2v-36h-6c-10.1-0.3-19.3-0.9-28.1-1.4c-40.3-2.4-69.5-4.1-125.2,19.4l-0.1,0.1l-0.1-0.1
	C144.5-2.3,115.3-0.6,75,1.8c-8.8,0.5-18,1.1-28.1,1.4l-5.1,0.2v35.9H0.5v307.5h402.4V39.2H359.9z M52.2,262.2
	c0.1-5.1,0.1-10.1,0.1-15.2V13.5c8.3-0.3,15.9-0.8,23.3-1.2c38.5-2.3,66.5-3.9,119.1,18v180.2h10.5V30.6
	C258.3,8.4,286.4,10,325.1,12.3c7.7,0.5,15.6,0.9,24.2,1.3V247c0,5,0.1,10.1,0.1,15.2c0.2,10.3,0.3,20.9-0.2,31.2
	c-47.7-18.8-106.6-15.6-149.3,8.7c-42.9-24.4-99.9-27.6-147.6-8.7C51.9,283.1,52,272.5,52.2,262.2L52.2,262.2z M394.1,337.9H9.3
	v-290h32.5V247c0,5-0.1,10-0.1,15c-0.2,13-0.5,47-0.5,47l8.6-3.1c46.3-20.9,103.5-18.6,145.8,5.8l4,2.3l0.4,0.2l0.4-0.2l4-2.3
	c42.1-24.3,101.4-26.6,147.5-5.8l8.6,3.1c0,0-0.3-34-0.5-47c-0.1-5-0.1-10-0.1-15V48h34.3L394.1,337.9z"/>
<polygon class="st0" points="46.9,3.2 41.8,3.4 41.8,3.2 "/>
<polygon class="st0" points="200.3,314.1 200.1,314.4 200,314.3 "/>
<polygon class="st0" points="200,314.3 199.8,314.4 199.6,314.1 "/>
<polygon class="st0" points="41.8,3.4 41.8,8.3 41.6,3.4 "/>
</svg>
