<svg xmlns="http://www.w3.org/2000/svg" width="162.68" height="25.97" viewBox="0 0 162.68 25.97"><path d="M6.44,25V13.8h5.81V10.02H6.44V3.51h7.77V-.27H2.1V25ZM23.275,4.77h.07L25.06,15.62h-3.5ZM20.93,19.4h4.76l.77,5.6h4.2L26.005-.27h-5.39L15.96,25h4.2ZM44.135,25V21.22H37.31V-.27H32.97V25ZM57.75,25V21.22H50.925V-.27h-4.34V25ZM80.22,5.505C79.835,1.935,77.735-.62,74.2-.62c-4.27,0-6.72,2.275-6.72,6.3,0,7.245,8.82,8.575,8.82,13.58a2.23,2.23,0,0,1-2.52,2.31c-1.4,0-2.415-1.26-2.59-3.815l-4.13.595c.175,3.78,2.485,7,6.51,7,4.06,0,6.86-2.31,6.86-6.475,0-6.86-8.82-8.925-8.82-13.23,0-1.575.77-2.485,2.17-2.485.98,0,2.135.63,2.31,2.8Zm3.5,13.125c0,4.34,2.52,6.72,6.65,6.72s6.65-2.38,6.65-6.72V-.27H92.68V18.805c0,1.855-.735,2.765-2.31,2.765s-2.31-.91-2.31-2.765V-.27H83.72ZM112.91-.27,109.83,14.5h-.07L106.68-.27h-5.7V25h3.78V5.26h.07L108.745,25h2.1l3.92-19.74h.07V25h3.78V-.27Zm21.385,0-3.08,14.77h-.07L128.065-.27H122.36V25h3.78V5.26h.07L130.13,25h2.1l3.92-19.74h.07V25H140V-.27ZM148.925,25V-.27h-4.34V25Zm7.315,0h4.34V3.51h4.2V-.27H152.04V3.51h4.2Z" transform="translate(-2.1 0.62)" fill="#e57633"/></svg>