<svg xmlns="http://www.w3.org/2000/svg" xmlns:xlink="http://www.w3.org/1999/xlink" width="1012.92" height="527" viewBox="0 0 1012.92 527"><defs><style>.a{fill:none;}.b{clip-path:url(#a);}.c{opacity:0.98;}.d{fill:url(#b);}</style><clipPath id="a"><rect class="a" x="-87.08" width="1100" height="527"/></clipPath><linearGradient id="b" x1="157.49" y1="659.26" x2="156.79" y2="659.52" gradientTransform="matrix(1018.61, 0, 0, -1313.52, -159594.95, 866395.96)" gradientUnits="userSpaceOnUse"><stop offset="0" stop-color="#048abc"/><stop offset="1" stop-color="#2f4d7a"/></linearGradient></defs><g class="b"><g class="c"><path class="d" d="M971.86-170.61,703.39-278.28h0L572.07-330.95l-147.4-59.12c-25.5-10.23-59.27,3.32-75,30.1L11.46,214.57c-15.77,26.8-15.77,70.63,0,97.4L349.64,886.53c15.76,26.78,49.53,40.33,75,30.09L610,842.31h0l183.82-73.72h0l178.08-71.43c25.51-10.23,46.38-45.69,46.38-78.8V-91.82C1018.24-124.92,997.37-160.37,971.86-170.61Z"/></g></g></svg>