<?xml version="1.0" encoding="utf-8"?>
<!-- Generator: Adobe Illustrator 24.2.3, SVG Export Plug-In . SVG Version: 6.00 Build 0)  -->
<svg version="1.1" id="Layer_1" xmlns="http://www.w3.org/2000/svg" xmlns:xlink="http://www.w3.org/1999/xlink" x="0px" y="0px"
	 viewBox="0 0 229 279" style="enable-background:new 0 0 229 279;" xml:space="preserve">
<style type="text/css">
	.st0{fill:none;stroke:#FFFFFF;stroke-width:9;stroke-miterlimit:10;}
	.st1{fill:#FFFFFF;stroke:#FFFFFF;stroke-width:2;stroke-miterlimit:10;}
	.st2{fill:#FFFFFF;}
</style>
<g id="REPORT">
	<rect x="4.5" y="4.5" class="st0" width="220" height="270"/>
	<rect x="32.6" y="110.1" class="st1" width="64.1" height="7"/>
	<rect x="32.6" y="78.6" class="st1" width="64.1" height="7"/>
	<rect x="32.6" y="47.1" class="st1" width="64.1" height="7"/>
	<path class="st2" d="M153.1,42.7v78.8c-21.8-2.3-37.5-21.8-35.3-43.5C119.7,59.4,134.5,44.7,153.1,42.7L153.1,42.7z M161.1,42.7
		v35.4h35.3C194.5,59.4,179.8,44.6,161.1,42.7z M161.1,86.1v35.4c18.7-1.9,33.5-16.7,35.3-35.4H161.1z"/>
	<rect x="129.1" y="229.7" class="st1" width="64.1" height="7"/>
	<rect x="129.1" y="198.2" class="st1" width="64.1" height="7"/>
	<rect x="129.1" y="166.7" class="st1" width="64.1" height="7"/>
	<path class="st2" d="M44.6,244.2l18.2-36.9l23.5,14l24.4-57.2l-8.3-5l-20.3,47.7l-23.5-14l-22.8,46.1L44.6,244.2z"/>
</g>
</svg>
