<svg xmlns="http://www.w3.org/2000/svg" width="15.334" height="15.334" viewBox="0 0 15.334 15.334">
    <defs>
        <style>
            .cls-1{fill:#2f3640}
        </style>
    </defs>
    <path id="Instagram" d="M1424.514-634.665a4.513 4.513 0 0 1-3.215-1.206 4.449 4.449 0 0 1-1.3-3.308v-6.338a4.235 4.235 0 0 1 4.483-4.483h6.369a4.4 4.4 0 0 1 3.246 1.267 4.432 4.432 0 0 1 1.237 3.215v6.369a4.425 4.425 0 0 1-1.268 3.277 4.565 4.565 0 0 1-3.246 1.206zm-2.257-13.109a3.081 3.081 0 0 0-.835 2.257v6.338a3.106 3.106 0 0 0 .835 2.288 3.2 3.2 0 0 0 2.257.8h6.307a3.2 3.2 0 0 0 2.257-.8 3.021 3.021 0 0 0 .9-2.257v-6.369a3.189 3.189 0 0 0-.835-2.226 3.082 3.082 0 0 0-2.257-.835h-6.369a3.144 3.144 0 0 0-2.26.804zm1.453 5.41a3.965 3.965 0 0 1 3.957-3.957 3.985 3.985 0 0 1 3.957 3.957 3.965 3.965 0 0 1-3.957 3.957 3.945 3.945 0 0 1-3.957-3.957zm1.422 0a2.547 2.547 0 0 0 2.535 2.535 2.547 2.547 0 0 0 2.535-2.535 2.547 2.547 0 0 0-2.535-2.535 2.547 2.547 0 0 0-2.535 2.535zm5.751-4.05a.9.9 0 0 1 .9-.9.9.9 0 0 1 .9.9.9.9 0 0 1-.9.9.9.9 0 0 1-.9-.9z" class="cls-1" transform="translate(-1420 650)"/>
</svg>
