<svg xmlns="http://www.w3.org/2000/svg" width="66.779" height="70.118" viewBox="0 0 66.779 70.118">
    <defs>
        <style>
            .cls-1{fill:#fff}.cls-2{fill:#99b33c}
        </style>
    </defs>
    <g id="Group_3949" data-name="Group 3949" transform="translate(-634 -253.463)">
        <path id="Rectangle_101" d="M0 0h61.68v38.939H0z" class="cls-1" data-name="Rectangle 101" transform="translate(637.339 282.683)"/>
        <g id="Group_3946" data-name="Group 3946" transform="translate(634 280.175)">
            <path id="Path_6632" d="M694.23 312.869h-53.68a6.354 6.354 0 0 1-6.55-6.122v-31.162a6.354 6.354 0 0 1 6.549-6.122h53.68a6.354 6.354 0 0 1 6.549 6.122v31.162a6.354 6.354 0 0 1-6.548 6.122zM640.549 272.8a3.023 3.023 0 0 0-3.21 2.783v31.162a3.023 3.023 0 0 0 3.21 2.783h53.68a3.023 3.023 0 0 0 3.21-2.783v-31.16a3.023 3.023 0 0 0-3.21-2.783z" class="cls-2" data-name="Path 6632" transform="translate(-634 -269.463)"/>
        </g>
        <g id="Group_3947" data-name="Group 3947" transform="translate(648.641 253.463)">
            <path id="Path_6633" d="M644.44 283.513a1.668 1.668 0 0 1-1.669-1.669v-11.13c0-9.511 8.411-17.251 18.748-17.251 8.217 0 15.6 5.052 17.96 12.282a1.671 1.671 0 0 1-3.177 1.035c-1.913-5.875-7.993-9.978-14.783-9.978-8.5 0-15.409 6.242-15.409 13.912v11.13a1.669 1.669 0 0 1-1.67 1.669z" class="cls-2" data-name="Path 6633" transform="translate(-642.77 -253.463)"/>
        </g>
        <g id="Group_3948" data-name="Group 3948" transform="translate(658.399 293.53)">
            <path id="Path_6634" d="M657.605 294.158c-4.957 0-8.99-3.745-8.99-8.347s4.033-8.347 8.99-8.347 8.99 3.746 8.99 8.347-4.033 8.347-8.99 8.347zm0-13.356c-3.115 0-5.651 2.247-5.651 5.008s2.536 5.008 5.651 5.008 5.651-2.245 5.651-5.008-2.536-5.01-5.651-5.01z" class="cls-2" data-name="Path 6634" transform="translate(-648.615 -277.463)"/>
        </g>
    </g>
</svg>
