
<svg xmlns="http://www.w3.org/2000/svg" width="63.604" height="72.228" viewBox="0 0 63.604 72.228">
    <defs>
        <style>
            .cls-1{fill:#fff}.cls-2{fill:#0096aa}
        </style>
    </defs>
    <g id="Group_3936" data-name="Group 3936" transform="translate(-120.064 -253.528)">
        <path id="Rectangle_98" d="M0 0h44.653v68.578H0z" class="cls-1" data-name="Rectangle 98" transform="translate(129.488 255.142)"/>
        <g id="Group_3941" data-name="Group 3941" transform="translate(120.064 253.528)">
            <g id="Group_3936-2" data-name="Group 3936" transform="translate(8.051 13.8)">
                <path id="Path_6624" d="M166.6 319.956h-36.23c-3.108 0-5.639-2.788-5.639-6.215v-50.6a1.614 1.614 0 0 1 3.227 0v50.6a2.749 2.749 0 0 0 2.412 2.988h36.23a2.749 2.749 0 0 0 2.412-2.988v-50.6a1.614 1.614 0 0 1 3.228 0v50.6c-.006 3.427-2.54 6.215-5.64 6.215z" class="cls-2" data-name="Path 6624" transform="translate(-124.731 -261.528)"/>
            </g>
            <g id="Group_3937" data-name="Group 3937" transform="translate(20.126 13.8)">
                <path id="Path_6625" d="M133.346 278.555a1.614 1.614 0 0 1-1.615-1.615v-13.8a1.614 1.614 0 0 1 3.227 0v13.8a1.614 1.614 0 0 1-1.612 1.615z" class="cls-2" data-name="Path 6625" transform="translate(-131.731 -261.528)"/>
            </g>
            <g id="Group_3938" data-name="Group 3938" transform="translate(20.126 50.6)">
                <path id="Path_6626" d="M133.346 290.689a1.614 1.614 0 0 1-1.615-1.615v-4.6a1.614 1.614 0 0 1 3.227 0v4.6a1.614 1.614 0 0 1-1.612 1.615z" class="cls-2" data-name="Path 6626" transform="translate(-131.731 -282.861)"/>
            </g>
            <g id="Group_3939" data-name="Group 3939" transform="translate(40.251 13.8)">
                <path id="Path_6627" d="M145.011 319.956a1.614 1.614 0 0 1-1.613-1.615v-55.2a1.614 1.614 0 0 1 3.227 0v55.2a1.614 1.614 0 0 1-1.614 1.615z" class="cls-2" data-name="Path 6627" transform="translate(-143.398 -261.528)"/>
            </g>
            <g id="Group_3940" data-name="Group 3940">
                <path id="Path_6628" d="M182.054 256.755h-60.375a1.614 1.614 0 1 1 0-3.227h60.375a1.614 1.614 0 1 1 0 3.227z" class="cls-2" data-name="Path 6628" transform="translate(-120.064 -253.528)"/>
            </g>
        </g>
    </g>
</svg>
