<?xml version="1.0" encoding="utf-8"?>
<!-- Generator: Adobe Illustrator 17.0.0, SVG Export Plug-In . SVG Version: 6.00 Build 0)  -->
<!DOCTYPE svg PUBLIC "-//W3C//DTD SVG 1.1//EN" "http://www.w3.org/Graphics/SVG/1.1/DTD/svg11.dtd">
<svg version="1.1" id="Layer_1" xmlns="http://www.w3.org/2000/svg" xmlns:xlink="http://www.w3.org/1999/xlink" x="0px" y="0px"
	 width="584px" height="610.103px" viewBox="0 0 584 610.103" enable-background="new 0 0 584 610.103" xml:space="preserve">
<g id="Pentagon_Outline_Yellow" transform="translate(33.526 -2627.184)">
	<path id="Pentagon_Outline" fill="none" stroke="#ffffff" stroke-width="3" d="M522.517,2731.74l-153.127-49.754l0,0l-74.9-24.338
		l-84.073-27.316c-14.546-4.726-33.809,1.534-42.8,13.909L-25.278,2909.73c-9,12.38-9,32.633,0,45.008l177.135,243.809
		c8.992,12.376,274.048-37.902,288.593-42.637l-129.92,25.177l0,0l104.58-19.629l38.195-8.363l80.42-23.659
		c3.344-1.429,15.25-17.815,15.25-33.114v-328.171C548.977,2752.852,537.068,2736.471,522.517,2731.74z"/>
</g>
</svg>
