<?xml version="1.0" encoding="utf-8"?>
<!-- Generator: Adobe Illustrator 23.0.3, SVG Export Plug-In . SVG Version: 6.00 Build 0)  -->
<svg version="1.1" id="Layer_1" xmlns="http://www.w3.org/2000/svg" xmlns:xlink="http://www.w3.org/1999/xlink" x="0px" y="0px"
	 viewBox="0 0 21.6 21.6" style="enable-background:new 0 0 21.6 21.6;" xml:space="preserve">
<style type="text/css">
	.st0{fill:none;}
	.st1{fill:#2F3640;}
</style>
<g>
	<circle class="st0" cx="9" cy="9" r="7.5"/>
	<path class="st1" d="M21,20l-5-5c-0.1-0.1-0.1-0.1-0.2-0.1C17.2,13.3,18,11.2,18,9c0-5-4-9-9-9C4,0,0,4,0,9c0,5,4,9,9,9
		c2.2,0,4.3-0.8,5.8-2.2c0,0.1,0.1,0.1,0.1,0.2l5,5c0.1,0.1,0.3,0.2,0.5,0.2s0.4-0.1,0.5-0.2C21.3,20.7,21.3,20.3,21,20z M9,16.5
		c-4.1,0-7.5-3.4-7.5-7.5S4.9,1.5,9,1.5s7.5,3.4,7.5,7.5S13.1,16.5,9,16.5z"/>
</g>
</svg>
