<svg xmlns="http://www.w3.org/2000/svg" width="53" height="53" viewBox="0 0 53 53">
  <g id="Right_Arrow" data-name="Right Arrow" transform="translate(-1170 -2971)">
    <rect id="Rectangle_649_copy_3" data-name="Rectangle 649 copy 3" width="53" height="53" transform="translate(1170 2971)" fill="#161616"/>
    <path id="Path_264" data-name="Path 264" d="M294.865,239.954h15.247c.1,0,.2,0,.294.009a.587.587,0,0,1,.11,1.148,1.344,1.344,0,0,1-.386.037H294.874c.064.083.1.129.138.175,1.084,1.231,2.168,2.452,3.251,3.683.064.073.129.147.193.23a.6.6,0,1,1-.9.79c-.386-.432-.772-.873-1.157-1.3-1.038-1.185-2.085-2.37-3.123-3.555a1.9,1.9,0,0,1-.257-.349.542.542,0,0,1,.073-.661q2.232-2.535,4.464-5.061a.572.572,0,0,1,.863-.083.589.589,0,0,1,.018.891q-1.708,1.929-3.417,3.876A1.09,1.09,0,0,0,294.865,239.954Z" transform="translate(1498.914 3238.017) rotate(180)" fill="#fff" stroke="#fff" stroke-width="1"/>
  </g>
</svg>
