<?xml version="1.0" encoding="utf-8"?>
<!-- Generator: Adobe Illustrator 23.0.3, SVG Export Plug-In . SVG Version: 6.00 Build 0)  -->
<svg version="1.1" id="Layer_1" xmlns="http://www.w3.org/2000/svg" xmlns:xlink="http://www.w3.org/1999/xlink" x="0px" y="0px"
	 viewBox="0 0 20.4 14.8" style="enable-background:new 0 0 20.4 14.8;" xml:space="preserve">
<style type="text/css">
	.st0{fill:#FFFFFF;}
</style>
<g id="Group_4656" transform="translate(-200.5 -349.5)">
	<g id="Path_7755">
		<path class="st0" d="M209.2,360c-0.4,0-0.7-0.2-0.9-0.5c-0.1-0.1-0.1-0.3-0.1-0.4c0,0,0,0,0,0v-4.3c0-0.3,0.1-0.5,0.3-0.7
			c0.2-0.2,0.5-0.3,0.7-0.3c0.2,0,0.3,0,0.4,0.1l4.2,2.1c0.5,0.2,0.7,0.8,0.5,1.3c-0.1,0.2-0.3,0.4-0.5,0.5l-4.2,2.1
			C209.5,360,209.4,360,209.2,360z M209.2,359C209.2,359,209.2,359,209.2,359l4.3-2.1l-4.2-2.1L209.2,359z"/>
	</g>
	<g id="Rectangle_471">
		<path class="st0" d="M218.4,364.3H203c-1.4,0-2.5-1.1-2.5-2.5V352c0-1.4,1.1-2.5,2.5-2.5h15.4c1.4,0,2.5,1.1,2.5,2.5v9.8
			C220.9,363.1,219.8,364.3,218.4,364.3z M203,350.5c-0.8,0-1.5,0.7-1.5,1.5v9.8c0,0.8,0.7,1.5,1.5,1.5h15.4c0.8,0,1.5-0.7,1.5-1.5
			V352c0-0.8-0.7-1.5-1.5-1.5H203z"/>
	</g>
</g>
</svg>
