<?xml version="1.0" encoding="utf-8"?>
<!-- Generator: Adobe Illustrator 23.0.3, SVG Export Plug-In . SVG Version: 6.00 Build 0)  -->
<svg version="1.1" id="Layer_1" xmlns="http://www.w3.org/2000/svg" xmlns:xlink="http://www.w3.org/1999/xlink" x="0px" y="0px"
	 viewBox="0 0 26.1 16" style="enable-background:new 0 0 26.1 16;" xml:space="preserve">
<style type="text/css">
	.st0{fill:#2F3640;}
</style>
<g id="Group_4658" transform="translate(-547.257 -356.863)">
	<path id="Path_7756" class="st0" d="M558.6,361c-0.4-0.2-0.9-0.1-1.1,0.3c-0.1,0.1-0.1,0.3-0.1,0.4v5.4c0,0.5,0.4,0.8,0.8,0.8
		c0.1,0,0.3,0,0.4-0.1l4.7-2.7c0.4-0.2,0.5-0.7,0.3-1.1c-0.1-0.1-0.2-0.2-0.3-0.3L558.6,361z M558.2,367v-5.4l4.7,2.7L558.2,367z"/>
	<path id="Path_7757" class="st0" d="M571.3,368.2v-9.5c0-1-0.8-1.8-1.8-1.8h-18.3c-1,0-1.8,0.8-1.8,1.8v9.5h0.8v-9.5
		c0-0.6,0.4-1,1-1h18.3c0.6,0,1,0.4,1,1v9.5H571.3z"/>
	<path id="Path_7758" class="st0" d="M547.6,372c0.2,0.5,0.6,0.9,1.2,0.9h23c0.5,0,1-0.3,1.2-0.9l0.3-1.1c0.1-0.4-0.1-0.9-0.5-1
		c-0.1,0-0.2,0-0.2,0h-9.2l-0.5,0.5h-5.3l-0.5-0.5h-8.9c-0.4,0-0.8,0.4-0.8,0.8c0,0.1,0,0.2,0,0.2L547.6,372z M572.6,370.7l0.4,0.1
		L572.6,370.7z M556.6,370.7l0.5,0.5h6l0.5-0.5h8.9l-0.3,1.1c-0.1,0.2-0.2,0.3-0.4,0.3h-23c-0.2,0-0.3-0.1-0.4-0.3l-0.3-1.1H556.6z"
		/>
	<rect id="Rectangle_473" x="551.4" y="358.5" class="st0" width="17.9" height="0.8"/>
</g>
</svg>
