<svg xmlns="http://www.w3.org/2000/svg" width="26.113" height="16" viewBox="0 0 26.113 16">
  <g id="Group_4658" data-name="Group 4658" transform="translate(-547.257 -356.863)">
    <path id="Path_7756" data-name="Path 7756" d="M598.175,376.514a.814.814,0,0,0-1.222.7V382.6a.815.815,0,0,0,1.222.705l4.658-2.689a.814.814,0,0,0,0-1.41Zm-.407,6.083v-5.378l4.657,2.689Z" transform="translate(-39.578 -15.564)" fill="#fff"/>
    <path id="Path_7757" data-name="Path 7757" d="M579.423,368.161v-9.489a1.811,1.811,0,0,0-1.809-1.809H559.276a1.811,1.811,0,0,0-1.809,1.809v9.489h.814v-9.489a1,1,0,0,1,.995-1h18.338a1,1,0,0,1,.995,1v9.489Z" transform="translate(-8.131 0)" fill="#fff"/>
    <path id="Path_7758" data-name="Path 7758" d="M547.636,422.839a1.216,1.216,0,0,0,1.166.857h23.024a1.216,1.216,0,0,0,1.166-.857l.342-1.092a.815.815,0,0,0-.777-1.058h-9.24l-.514.491h-5.328l-.514-.491h-8.89a.814.814,0,0,0-.777,1.058Zm24.92-1.335.389.122-.389-.122Zm-15.922,0,.514.491h5.981l.514-.491h8.914l-.341,1.092a.406.406,0,0,1-.389.286H548.8a.405.405,0,0,1-.389-.286l-.342-1.092Z" transform="translate(0 -50.833)" fill="#fff"/>
    <rect id="Rectangle_473" data-name="Rectangle 473" width="17.885" height="0.814" transform="translate(551.372 358.492)" fill="#fff"/>
  </g>
</svg>
