<?xml version="1.0" encoding="utf-8"?>
<!-- Generator: Adobe Illustrator 24.2.3, SVG Export Plug-In . SVG Version: 6.00 Build 0)  -->
<svg version="1.1" id="Layer_1" xmlns="http://www.w3.org/2000/svg" xmlns:xlink="http://www.w3.org/1999/xlink" x="0px" y="0px"
	 viewBox="0 0 413.7 374.7" style="enable-background:new 0 0 413.7 374.7;" xml:space="preserve">
<style type="text/css">
	.st0{fill:#FFFFFF;stroke:#FFFFFF;stroke-miterlimit:10;}
</style>
<path class="st0" d="M215.3,374.2c-85.2-1-154.8-6.1-210.9-61.7l-2.3-2.3l-0.3-76.9l125.4-0.5l0.3,65.9l160.2-0.6l-0.3-65.9
	l125.4-0.5l0.3,77.8l-3.4,2.3C349.1,353,300.1,375.1,215.3,374.2z M17.6,303.7c51.5,49.4,117.3,54,197.8,54.9
	c79.7,0.9,124.5-18.6,182.2-57.4l-0.2-54l-94.3,0.4l0.3,65.9L112,314.3l-0.3-65.9l-94.3,0.4L17.6,303.7z"/>
<path class="st0" d="M16.7,214.2L16.1,65.1C16,38.8,37.2,17.3,63.6,17.2l285.3-1.1c26.3-0.1,47.7,21.2,47.9,47.5l0.6,149.1l15.5-0.1
	l-0.6-149.1c-0.2-34.9-28.6-63.1-63.5-63L63.5,1.7C28.6,1.8,0.4,30.2,0.5,65.1l0.6,149H16.7z"/>
<path class="st0" d="M163.2,209.8l1.6-144.9l124.7,73.8L163.2,209.8z M180,92l-1,91.1l79.4-44.6L180,92z"/>
</svg>
