<svg xmlns="http://www.w3.org/2000/svg" width="20" height="12" viewBox="0 0 17.013 11.187">
  <path id="Path_265" data-name="Path 265" d="M294.651,239.387H308.2c.09,0,.18,0,.261.008a.522.522,0,0,1,.1,1.021,1.194,1.194,0,0,1-.343.033H294.659c.057.073.09.114.122.155.963,1.094,1.927,2.18,2.89,3.274.057.065.114.131.171.2a.533.533,0,1,1-.8.7c-.343-.384-.686-.776-1.029-1.159-.923-1.053-1.853-2.106-2.776-3.16a1.691,1.691,0,0,1-.229-.31.482.482,0,0,1,.065-.588q1.984-2.253,3.968-4.5a.508.508,0,0,1,.767-.073.524.524,0,0,1,.016.792q-1.519,1.715-3.037,3.445A.974.974,0,0,0,294.651,239.387Z" transform="translate(309.441 245.539) rotate(180)" fill="#ffffff" stroke="#ffffff" stroke-width="1"/>
</svg>
