<?xml version="1.0" encoding="utf-8"?>
<!-- Generator: Adobe Illustrator 22.0.1, SVG Export Plug-In . SVG Version: 6.00 Build 0)  -->
<svg version="1.1" id="Layer_1" xmlns="http://www.w3.org/2000/svg" xmlns:xlink="http://www.w3.org/1999/xlink" x="0px" y="0px"
	 viewBox="0 0 797.6 571.4" style="enable-background:new 0 0 797.6 571.4;" xml:space="preserve">
<style type="text/css">
	.st0{clip-path:url(#SVGID_2_);fill:#FFFFFF;}
	.st1{clip-path:url(#SVGID_2_);fill:#619540;}
	.st2{clip-path:url(#SVGID_2_);fill:#090306;}
	.st3{clip-path:url(#SVGID_2_);fill:#006AB5;}
	.st4{clip-path:url(#SVGID_2_);}
</style>
<g>
	<defs>
		<rect id="SVGID_1_" x="-304.8" y="-119" width="1400" height="2500"/>
	</defs>
	<clipPath id="SVGID_2_">
		<use xlink:href="#SVGID_1_"  style="overflow:visible;"/>
	</clipPath>
	<polygon class="st0" points="677.3,453 108,522.7 108,436.1 677.3,366.5 	"/>
	<polygon class="st0" points="681.4,399.1 681.4,456.9 622.3,464.2 622.3,484.2 733.5,470.4 721.3,433 733.5,392.6 	"/>
	<path class="st1" d="M129.9,492.8c2.4-0.4,3-1.1,3-3.3v-26.2c0-2.1-0.6-2.8-3-2.5v-4.9l12.5-1.5c9.6-1.2,14.1,0.9,14.1,8.3
		c0,5.4-2.3,8.9-7.1,10.6c5.1,0.3,7.8,3.6,7.8,9.5c0,7.6-4,12.1-11.8,13l-15.4,1.9V492.8z M141.2,472.3l2-0.2c3.6-0.4,5-2.6,5-7.1
		c0-4.5-1.4-6.3-5-5.8l-2,0.2V472.3z M141.2,491.3l2.1-0.3c3.8-0.5,5.3-2.8,5.3-7.8c0-5-1.5-7-5.3-6.6l-2.1,0.3V491.3z"/>
	<path class="st1" d="M175.7,487.2v4.9l-14.4,1.8v-4.9c2.4-0.4,3-1.1,3-3.3v-26.2c0-2.1-0.6-2.8-3-2.5V452l12.5-1.5
		c10.1-1.2,14.6,1.1,14.6,9.8c0,6-2.9,9.6-8.6,10.7c4.8,0.5,6.1,3,6.4,8.4c0.2,4,0.1,6.5,1.5,6.4c1.1-0.1,1.6-1.4,1.6-4
		c0-0.4-0.1-0.8-0.1-1.3l3.2-0.4v0.7c0,7-1.9,10.2-6.9,10.8c-5.7,0.7-7.3-2.9-7.4-10.7c-0.1-5.4-0.1-8-3.8-7.6l-1.8,0.2v11.2
		C172.7,486.8,173.2,487.4,175.7,487.2 M172.7,468.6l2.2-0.3c4-0.5,5.7-2.6,5.7-7.2c0-4.6-1.7-6.3-5.7-5.8l-2.2,0.3V468.6z"/>
	<path class="st1" d="M209.5,451c-2.2,0.3-3,1.1-3,3.3v26.2c0,2.1,0.7,2.8,3,2.5v4.9l-14.4,1.8v-4.9c2.4-0.4,3-1.1,3-3.3v-26.2
		c0-2.1-0.6-2.8-3-2.5v-4.9l14.4-1.8V451z"/>
	<path class="st1" d="M225.3,481.1v4.9l-11.5,1.4v-4.9c2.4-0.4,3-1.1,3-3.3V453c0-2.1-0.6-2.8-3-2.5v-4.9l11.6-1.4l9.6,25.7v-19.1
		c0-2.1-0.8-2.8-3-2.5v-4.9l11.6-1.4v4.9c-2.4,0.4-3,1.1-3,3.3v34l-7.7,0.9l-10.5-28.4v21.9C222.3,480.7,223.1,481.4,225.3,481.1"/>
	<path class="st1" d="M261,464.7l-1.4,0.2V460l14.6-1.8v4.9c-2.1,0.4-2.8,1.2-2.8,3.2v14l-3.8,0.5l-1.5-2.7
		c-2.5,2.9-4.9,4.4-7.9,4.7c-7.3,0.9-10.9-5.8-10.9-20.1c0-14.8,4.3-22.9,11.8-23.8c2.8-0.3,5,0.7,7,2.6l0.9-2.5l3.6-0.4v16
		l-4.4,0.5c-0.4-7.8-1.8-11.4-5.5-10.9c-4.5,0.6-4.8,6.3-4.8,19.2c0,9.6,0.3,14.1,4,13.6c2.4-0.3,3.7-2.3,3.7-6.1v-3.8
		C263.8,465.3,263,464.5,261,464.7"/>
	<path class="st1" d="M291.7,440.9c-0.2,0-0.5,0.1-0.8,0.2v-4.9l14.1-1.7v4.9c-1.6,0.3-2.4,0.8-2.4,1.7c0,0.2,0.1,0.3,0.1,0.6
		l3.5,10.5l3.3-11.3c0.1-0.2,0.1-0.4,0.1-0.6c0-0.9-0.9-1.3-2.7-1.1v-4.9l11.3-1.4v4.9c-0.2,0-0.4,0.1-0.6,0.1
		c-1.6,0.2-1.9,0.7-2.4,2.1l-6.3,18.2v9.9c0,2,0.8,2.8,2.8,2.6l1.2-0.2v4.9l-16.4,2v-4.9l0.9-0.1c2.4-0.3,3.1-1.1,3.1-3.3v-9.9
		l-6.7-16.9C293.4,441.2,293,440.8,291.7,440.9"/>
	<path class="st1" d="M323.6,470.2c-2.2-3-2.8-8.5-2.8-16.8c0-8.3,0.6-14,2.8-17.5c2.1-3.4,5.3-5.4,9.6-5.9c4.3-0.5,7.4,0.6,9.5,3.6
		c2.2,3,2.8,8.5,2.8,16.8c0,8.3-0.6,14-2.8,17.5c-2.1,3.4-5.3,5.4-9.5,5.9C328.8,474.3,325.7,473.1,323.6,470.2 M336.8,451.5
		c0-11.3-0.1-16.7-3.7-16.3c-3.6,0.4-3.7,5.8-3.7,17.2c0,11.4,0.1,16.6,3.7,16.2C336.7,468.1,336.8,462.8,336.8,451.5"/>
	<path class="st1" d="M349.1,433.9V429l14.2-1.7v4.9c-2.1,0.4-2.8,1.2-2.8,3.2v23.2c0,4.4,0.4,6.6,4,6.1c3.4-0.4,4.3-2.7,4.3-7.4
		v-22.9c0-2-0.6-2.7-2.7-2.6V427l11-1.4v4.9c-2.2,0.3-3,1.1-3,3.3v21.8v0.7c0,3.6-0.1,6.4-2,9.2c-1.7,2.5-4.7,4.1-8.7,4.6
		c-8.9,1.1-11.2-2.4-11.2-11.9v-21.7C352.1,434.3,351.5,433.7,349.1,433.9"/>
	<path class="st1" d="M394.9,460.4v4.9l-14.4,1.8v-4.9c2.4-0.4,3-1.1,3-3.3v-26.2c0-2.1-0.6-2.8-3-2.5v-4.9l12.5-1.5
		c10.1-1.2,14.6,1.1,14.6,9.8c0,6-2.9,9.6-8.6,10.7c4.8,0.5,6.1,3,6.4,8.4c0.2,4,0.1,6.5,1.5,6.4c1.1-0.1,1.6-1.4,1.6-4
		c0-0.4-0.1-0.8-0.1-1.3l3.2-0.4v0.7c0,7-1.9,10.2-6.9,10.8c-5.7,0.7-7.3-2.9-7.4-10.7c-0.1-5.4-0.1-8-3.8-7.6l-1.8,0.2v11.2
		C391.8,460,392.4,460.6,394.9,460.4 M391.8,441.8l2.2-0.3c4-0.5,5.7-2.6,5.7-7.2c0-4.6-1.7-6.3-5.7-5.8l-2.2,0.3V441.8z"/>
	<path class="st1" d="M433.9,425.6c2.8-0.3,4.3,1,4.3,3.7c0,2.5-2,4.9-4.6,5.2c-3,0.4-4.8-1.6-4.8-5.2c0-4.4,2.7-8.8,7.9-12l1.8,2.9
		c-2.4,1.6-4.1,3.5-5.2,5.4C433.5,425.6,433.7,425.6,433.9,425.6 M445.9,424.1c2.8-0.3,4.3,1,4.3,3.7c0,2.5-1.9,4.9-4.6,5.2
		c-3,0.4-4.8-1.6-4.8-5.2c0-4.4,2.8-8.8,8-12l1.8,2.9c-2.4,1.6-4,3.4-5.1,5.4C445.5,424.1,445.8,424.1,445.9,424.1"/>
	<path class="st1" d="M445.4,454.2c0.2,0,0.4,0,0.5-0.1c1.7-0.2,2.2-0.6,2.5-2.2l7.9-36l8.5-1l7.1,34.4c0.2,1.2,0.8,1.6,2.1,1.4
		c0.2,0,0.5-0.1,0.8-0.2v4.9l-14.7,1.8v-4.9c2.2-0.3,3-0.7,3-1.8c0-0.2-0.1-0.3-0.1-0.5l-0.8-5.5l-7.3,0.9l-1.2,5.8
		c-0.1,0.2-0.1,0.4-0.1,0.5c0,0.9,0.6,1.5,1.9,1.3c0.2,0,0.5-0.1,0.8-0.2v4.9l-10.9,1.3V454.2z M461.7,440l-2.5-15.5l-3.3,16.2
		L461.7,440z"/>
	<path class="st1" d="M475.1,421.6c-2.6,0.3-4.1-1.1-4.1-3.6c0-2.8,2-5.1,4.6-5.5c3-0.4,4.8,1.6,4.8,5.2c0,4.3-2.8,8.8-8,12
		l-1.8-2.9c2.4-1.6,4-3.4,5.1-5.4C475.6,421.5,475.4,421.6,475.1,421.6 M487.2,420.1c-2.6,0.3-4.2-1.1-4.2-3.6
		c0-2.8,1.9-5.1,4.6-5.5c3-0.4,4.8,1.6,4.8,5.2c0,4.3-2.8,8.8-8,12l-1.8-2.9c2.4-1.6,4.1-3.4,5.2-5.4
		C487.6,420,487.4,420.1,487.2,420.1"/>
	<path class="st1" d="M524.8,432.5l-1.4,0.2v-4.9l14.6-1.8v4.9c-2.1,0.4-2.8,1.2-2.8,3.2v14l-3.8,0.5l-1.5-2.7
		c-2.5,2.9-4.9,4.4-7.9,4.7c-7.3,0.9-10.9-5.8-10.9-20.1c0-14.8,4.3-22.9,11.8-23.8c2.8-0.3,5,0.7,7,2.6l0.9-2.5l3.6-0.4v16
		l-4.4,0.5c-0.4-7.8-1.8-11.4-5.5-10.9c-4.5,0.6-4.8,6.3-4.8,19.2c0,9.6,0.3,14.1,4,13.6c2.4-0.3,3.7-2.3,3.7-6.1V435
		C527.6,433,526.7,432.2,524.8,432.5"/>
	<path class="st1" d="M540.3,442.6c0.2,0,0.4,0,0.5-0.1c1.7-0.2,2.2-0.6,2.5-2.2l7.9-36l8.5-1l7.1,34.4c0.2,1.2,0.8,1.6,2.1,1.4
		c0.2,0,0.5-0.1,0.8-0.2v4.9l-14.7,1.8v-4.9c2.2-0.3,3-0.7,3-1.8c0-0.2-0.1-0.3-0.1-0.5l-0.8-5.5l-7.3,0.9l-1.2,5.8
		c-0.1,0.2-0.1,0.4-0.1,0.5c0,0.9,0.6,1.5,1.9,1.3c0.2,0,0.5-0.1,0.8-0.2v4.9l-10.9,1.3V442.6z M556.6,428.4l-2.5-15.5l-3.3,16.2
		L556.6,428.4z"/>
	<path class="st1" d="M582.6,437.4v4.9l-10.7,1.3v-4.9c2.4-0.4,3-1.1,3-3.3v-26.2c0-2.1-0.6-2.8-3-2.5v-4.9l14.1-1.7l4.2,25.7
		l4.7-26.7l13.7-1.7v4.9c-2.2,0.3-3,1.1-3,3.3v26.2c0,2.1,0.8,2.8,3,2.5v4.9l-13.1,1.6v-4.9c2.1-0.4,2.7-1.2,2.7-3.2v-27.9
		l-6.8,36.6l-5,0.6l-6.6-34.9v27.9C579.8,436.8,580.5,437.5,582.6,437.4"/>
	<path class="st1" d="M612.5,433.7c2.4-0.4,3-1.1,3-3.3v-26.2c0-2.1-0.6-2.8-3-2.5v-4.9l26.4-3.2v14.1l-4.3,0.5
		c-0.4-6.9-2.1-9-8-8.2l-2.8,0.3v13c0.1,0,0.2,0,0.3,0c3.1-0.4,3.9-2.1,4-6.5l3.8-0.5v16.6l-3.8,0.5c-0.1-4.5-0.9-6.1-4-5.7
		c-0.1,0-0.2,0-0.3,0v14.6l2.8-0.3c6.5-0.8,8-3.8,8-12.4l4.3-0.5v16.3l-26.4,3.2V433.7z"/>
	<path class="st1" d="M648.6,415.7c0-6.9-2.9-12-2.9-16.7c0-4.5,1.9-7.4,4.8-7.8c3-0.4,4.8,2.1,4.8,6.6c0,4.7-2.9,10.5-2.9,17.4v7.6
		l-3.9,0.5V415.7z M646.2,430.7c0-2.4,2-4.6,4.4-4.9c2.4-0.3,4.4,1.4,4.4,3.8c0,2.6-1.9,4.6-4.4,4.9
		C648.1,434.7,646.2,433,646.2,430.7"/>
	<path class="st0" d="M171.6,205.1c4,4.1,5.9,8.9,5.9,14.2v6.5h-13.2v-3c0-3-0.7-5.6-2.1-7.8c-1.4-2.2-3.8-3.3-7.2-3.3
		c-1.8,0-3.3,0.3-4.4,1c-1.1,0.7-2,1.6-2.7,2.6c-0.7,1.1-1.2,2.4-1.4,3.8c-0.3,1.4-0.4,2.9-0.4,4.5c0,1.8,0.1,3.3,0.2,4.5
		c0.1,1.2,0.5,2.3,1,3.2s1.3,1.8,2.3,2.5c1,0.7,2.3,1.4,4.1,2.1l10.1,4c2.9,1.1,5.3,2.4,7.1,3.9c1.8,1.5,3.2,3.3,4.3,5.2
		c0.9,2.1,1.6,4.4,1.9,7c0.3,2.6,0.5,5.6,0.5,9c0,3.9-0.4,7.5-1.2,10.8c-0.8,3.3-2,6.1-3.7,8.5c-1.8,2.4-4.2,4.3-7.1,5.7
		c-2.9,1.4-6.5,2.1-10.7,2.1c-3.2,0-6.2-0.6-8.9-1.7c-2.8-1.1-5.1-2.7-7.1-4.7c-2-2-3.6-4.3-4.7-6.9c-1.2-2.6-1.7-5.5-1.7-8.6v-4.9
		h13.2v4.1c0,2.4,0.7,4.6,2.1,6.5c1.4,1.9,3.8,2.9,7.2,2.9c2.2,0,4-0.3,5.2-1c1.2-0.6,2.2-1.6,2.9-2.8c0.7-1.2,1.1-2.7,1.2-4.3
		c0.1-1.7,0.2-3.6,0.2-5.6c0-2.4-0.1-4.4-0.3-5.9c-0.2-1.6-0.5-2.8-1-3.7c-0.6-0.9-1.4-1.7-2.4-2.3c-1-0.6-2.3-1.2-3.9-1.9l-9.4-3.9
		c-5.7-2.3-9.5-5.4-11.4-9.2c-1.9-3.8-2.9-8.6-2.9-14.4c0-3.4,0.5-6.7,1.4-9.8c0.9-3.1,2.4-5.8,4.3-8c1.8-2.2,4.1-4,6.9-5.4
		c2.8-1.3,6.1-2,10-2c3.3,0,6.3,0.6,9,1.8C167.3,201.6,169.7,203.2,171.6,205.1 M228.5,269.4c0,3.3-0.8,5.7-2.3,7.2
		c-1.6,1.6-3.5,2.3-5.8,2.3c-2.3,0-4.3-0.8-5.8-2.3c-1.6-1.6-2.3-4-2.3-7.2v-70.1H199v71.3c0,3,0.6,5.8,1.7,8.3
		c1.1,2.5,2.7,4.8,4.7,6.8c2,2,4.2,3.5,6.8,4.7c2.5,1.1,5.3,1.7,8.2,1.7c2.9,0,5.7-0.6,8.3-1.7c2.6-1.1,4.9-2.7,6.8-4.7
		c2-2,3.5-4.2,4.6-6.8c1.1-2.5,1.6-5.3,1.6-8.3v-71.3h-13.2V269.4z M295.6,248.1h-0.3l-16.9-48.7h-12.7v92h13.2v-56h0.3l12.9,39.6
		h6.6l13.1-39.6h0.3v56h13.2v-92h-12.8L295.6,248.1z M379.1,248.1h-0.3l-16.9-48.7h-12.7v92h13.2v-56h0.3l12.9,39.6h6.6l13.1-39.6
		h0.3v56h13.2v-92h-12.8L379.1,248.1z M433.1,291.4h13.2v-92h-13.2V291.4z M492.6,291.4v-79.6h15.3v-12.4h-43.7v12.4h15.3v79.6
		H492.6z M524.5,222.1l13.2-9.6v-13.2h-13.2V222.1z M589.1,235.8c0.6-1.4,1-2.8,1.3-4.1c0.3-1.4,0.4-2.8,0.5-4.3
		c0.1-1.5,0.1-3.4,0.1-5.6c0-3.1-0.4-6-1.1-8.8c-0.7-2.8-1.9-5.2-3.4-7.4c-1.6-2.2-3.7-3.9-6.1-5.1c-2.5-1.2-5.4-1.9-8.9-1.9
		c-2.8,0-5.3,0.5-7.8,1.6c-2.4,1.1-4.5,2.5-6.2,4.3c-1.8,1.8-3.2,3.9-4.3,6.3c-1,2.4-1.6,5-1.6,7.8v7.2h13.2v-7.5
		c0-2.2,0.6-3.8,1.7-4.9c1.2-1.1,2.7-1.7,4.7-1.7c1.6,0,2.9,0.3,3.7,1c0.9,0.6,1.5,1.4,1.9,2.4c0.4,0.9,0.7,2,0.7,3.3
		c0,1.2,0.1,2.4,0.1,3.6c0,2.5-0.1,4.6-0.3,6.3c-0.2,1.7-0.9,3.6-2.1,5.9l-23.8,44.8v12.4H591v-13.2h-23.8l19.4-37.4
		C587.7,238.8,588.5,237.2,589.1,235.8 M649.1,210.1c1.1,2.4,1.6,5.2,1.6,8.3v54c0,3.1-0.5,5.9-1.6,8.3c-1.1,2.4-2.5,4.5-4.3,6.2
		c-1.8,1.7-3.9,3-6.3,3.9c-2.4,0.9-4.8,1.4-7.4,1.4c-2.6,0-5.1-0.5-7.4-1.4c-2.4-0.9-4.5-2.2-6.3-3.9c-1.8-1.7-3.3-3.8-4.3-6.2
		c-1.1-2.4-1.6-5.2-1.6-8.3v-54c0-3.1,0.5-5.9,1.6-8.3c1.1-2.4,2.5-4.5,4.3-6.2c1.8-1.7,3.9-3,6.3-3.9c2.4-0.9,4.8-1.4,7.4-1.4
		c2.6,0,5.1,0.5,7.4,1.4c2.4,0.9,4.5,2.2,6.3,3.9C646.6,205.6,648.1,207.6,649.1,210.1 M637.6,218.3c0-1.9-0.6-3.5-1.8-4.7
		c-1.2-1.2-2.8-1.9-4.7-1.9c-1.9,0-3.4,0.6-4.7,1.9c-1.2,1.2-1.8,2.8-1.8,4.7v54c0,1.9,0.6,3.5,1.8,4.7c1.2,1.2,2.8,1.9,4.7,1.9
		c1.9,0,3.4-0.6,4.7-1.9c1.2-1.2,1.8-2.8,1.8-4.7V218.3z M705.9,129.9v185.8c0,10.5-8.2,21.3-18.3,24.1l-296,83.8l-296-83.8
		c-10.1-2.8-18.3-13.7-18.3-24.1V129.9c0-10.5,8.2-21.3,18.3-24.1l296-83.8l296,83.8C697.7,108.6,705.9,119.5,705.9,129.9
		 M700,129.9c0-7.9-6.4-16.4-14-18.5L391.7,28.1L97.3,111.4c-7.6,2.2-14,10.6-14,18.5v185.8c0,7.9,6.4,16.4,14,18.5l294.4,83.3
		L686,334.2c7.6-2.1,14-10.6,14-18.5V129.9z M315.5,132.1c0.8,1.1,2.4,1.6,3.6,1.2l9-2.9l-16.4-22.5L328.3,85l-9.2-3
		c-1.2-0.4-2.9,0.1-3.6,1.2l-16.4,22.5c-0.8,1.1-0.8,2.8,0,3.8L315.5,132.1z M332.4,128.9l13.2-4.3c1.2-0.4,2.2-1.8,2.2-3.1V93.7
		c0-1.3-1-2.7-2.2-3.1l-13-4.2L317,107.8L332.4,128.9z M385,117.8v-12.9c0-4.5,3.2-7.4,10.9-7.4c7.6,0,10.8,3,10.8,7.4v12.9
		c0,4.5-3.2,7.4-10.8,7.4C388.2,125.2,385,122.2,385,117.8 M390.2,117.3c0,2.3,1.6,3.6,5.7,3.6c4.1,0,5.7-1.3,5.7-3.6v-12
		c0-2.3-1.6-3.6-5.7-3.6c-4.1,0-5.7,1.3-5.7,3.6V117.3z M418.7,125.2c4.5,0,7.2-1.8,8.7-3.1l0.1,1.5c0,0.8,0.3,1,1,1h2.9
		c0.7,0,1-0.3,1-1V98.9c0-0.8-0.3-1.1-1-1.1h-3.2c-0.7,0-1,0.3-1,1.1v18.9c-1.1,0.9-3.6,2.7-7.1,2.7c-3,0-4-1.3-4-3.6V98.9
		c0-0.8-0.3-1.1-1-1.1H412c-0.7,0-1,0.3-1,1.1v19.4C411,122.3,413.7,125.2,418.7,125.2 M437.8,124.6h3.1c0.7,0,1-0.3,1-1.1v-18.7
		c1.2-0.9,3.9-2.8,7.4-2.8c3,0,4,1.4,4,3.6v17.9c0,0.8,0.3,1.1,1,1.1h3.1c0.7,0,1-0.3,1-1.1v-19.2c0-4-2.6-6.9-7.7-6.9
		c-4.5,0-7.5,1.9-9,3.2l-0.1-1.7c-0.1-0.7-0.3-1-1-1h-2.9c-0.8,0-1,0.3-1,1v24.6C436.8,124.3,437.1,124.6,437.8,124.6 M461.5,102.2
		h3v15.4c0,4.8,2.3,7.4,9.9,7.4h1.8c0.7,0,1-0.3,1-1v-2.3c0-0.8-0.3-1.1-1-1.1h-1c-4.1,0-5.5-1.3-5.5-3.6v-14.9h5.6
		c0.7,0,1-0.3,1-1.1l0-2.2c0-0.7-0.3-1-1-1h-5.6l0-4.9c0-0.8-0.3-1.1-1-1.1h-3.2c-0.7,0-1,0.3-1,1.1l0,4.9h-0.3l-2.7,0.3
		c-0.8,0.1-1,0.3-1,1v1.9C460.4,101.9,460.7,102.2,461.5,102.2 M480.7,96.2v-3.9c0-0.2,0.1-0.2,0.2-0.2h1.7c1.4,0,1.7,0.7,1.7,1.2
		v0.3c0,0.4-0.1,0.9-0.7,1.1l0.6,1.4c0,0.1,0,0.2-0.2,0.2h-0.6c-0.1,0-0.2-0.1-0.2-0.2l-0.5-1.3h-0.8v1.3c0,0.1,0,0.2-0.2,0.2h-0.6
		C480.8,96.4,480.7,96.3,480.7,96.2 M481.7,94.1h0.7c0.4,0,0.7-0.2,0.7-0.5v-0.2c0-0.3-0.3-0.5-0.7-0.5h-0.7V94.1z M478.6,95.7v-2.9
		c0-1,0.4-2.4,3.8-2.4c3.3,0,3.7,1.4,3.7,2.4v2.9c0,1-0.4,2.4-3.7,2.4C479.1,98.1,478.6,96.7,478.6,95.7 M479.6,95.8
		c0,0.7,0.5,1.4,2.7,1.4c2.2,0,2.7-0.7,2.7-1.4v-3.1c0-0.7-0.5-1.4-2.7-1.4c-2.2,0-2.7,0.7-2.7,1.4V95.8z M360.6,124.6h3.5
		c0.8,0,1.1-0.3,1.1-1.1v-13.8h1.4l9.9,13.8c0.4,0.6,0.9,1.1,1.6,1.1h4.5c0.7,0,0.9-0.6,0.5-1.1l-11.8-16.2l11.4-15.6
		c0.4-0.6,0.2-1.1-0.5-1.1h-3.8c-0.7,0-1.3,0.5-1.8,1.1l-10.1,13.9h-1.4V91.7c0-0.7-0.3-1.1-1.1-1.1h-3.5c-0.7,0-1,0.3-1,1.1v31.8
		C359.6,124.3,359.9,124.6,360.6,124.6 M147.2,185.6h-11.3v-28.7h11.3c3,0,5.6,0.6,7.9,1.8c2.3,1.2,4.1,2.9,5.4,5.1
		c1.3,2.2,1.9,4.7,1.9,7.5c0,2.8-0.6,5.3-1.9,7.5c-1.3,2.2-3.1,3.8-5.4,5C152.8,185,150.2,185.6,147.2,185.6 M142,180.2h5.2
		c1.8,0,3.4-0.4,4.8-1.2s2.4-1.9,3.1-3.3c0.7-1.4,1.1-2.9,1.1-4.5c0-2.6-0.8-4.8-2.4-6.5c-1.6-1.7-3.8-2.5-6.6-2.5H142V180.2z
		 M177.5,156.8h-6.1v28.7h6.1V156.8z M209.1,184.2c2.2-1.3,3.9-3.2,5.1-5.7c1.2-2.5,1.8-5.4,1.8-8.8h-15.7v5.3h9
		c-0.4,1.6-1.3,3-2.6,4.1c-1.3,1.1-2.9,1.6-5,1.6c-1.7,0-3.3-0.4-4.6-1.2c-1.4-0.8-2.4-1.9-3.2-3.4c-0.8-1.4-1.2-3-1.2-4.8
		s0.4-3.4,1.2-4.8c0.8-1.4,1.8-2.6,3.2-3.4c1.4-0.8,2.9-1.2,4.6-1.2c1.4,0,2.8,0.3,3.9,1c1.2,0.7,2.1,1.5,2.9,2.6l5.1-2.8
		c-1.2-1.9-2.8-3.4-4.8-4.6c-2-1.1-4.3-1.7-7.1-1.7c-2.8,0-5.4,0.6-7.7,1.8c-2.3,1.2-4.2,3-5.5,5.2c-1.4,2.3-2,4.9-2,7.8
		c0,2.9,0.7,5.5,2,7.8c1.4,2.3,3.2,4,5.4,5.3c2.3,1.2,4.7,1.9,7.3,1.9C204.2,186.1,206.8,185.5,209.1,184.2 M230.6,156.8h-6.1v28.7
		h6.1V156.8z M239.1,162.2h8.4v23.4h6.2v-23.4h8.4v-5.4h-22.9V162.2z M271.5,185.6h-6.7l11.1-28.7h7.7l11.1,28.7h-6.7l-1.8-5h-12.8
		L271.5,185.6z M274.9,175.3h9.5l-4.7-13.2L274.9,175.3z M301.9,156.8v28.7h18.3v-5.4H308v-23.4H301.9z M344.7,156.8h13.4
		c2,0,3.7,0.4,5.2,1.2c1.5,0.8,2.6,1.9,3.3,3.3c0.7,1.4,1.1,3,1.1,4.7c0,1.7-0.4,3.2-1.1,4.6c-0.8,1.4-1.9,2.5-3.3,3.3
		c-1.5,0.8-3.2,1.2-5.2,1.2h-7.3v10.3h-6.1V156.8z M350.8,170h6.5c1.2,0,2.2-0.4,3-1.1c0.8-0.7,1.2-1.7,1.2-2.9
		c0-1.2-0.4-2.1-1.2-2.9c-0.8-0.7-1.8-1.1-3-1.1h-6.5V170z M393,174.6l6.5,10.9h-7l-5.6-10.3h-4.5v10.3h-6.1v-28.7h13.4
		c2,0,3.7,0.4,5.1,1.2c1.5,0.8,2.6,1.9,3.4,3.3s1.2,3,1.2,4.8c0,2.4-0.6,4.3-1.8,5.7C396.2,173.3,394.7,174.2,393,174.6 M393,166.1
		c0-1.2-0.4-2.1-1.2-2.9c-0.8-0.7-1.8-1.1-3.1-1.1h-6.4v7.9h6.4c1.2,0,2.3-0.4,3.1-1.1C392.6,168.2,393,167.2,393,166.1
		 M429.8,184.2c-2.3,1.3-4.9,1.9-7.7,1.9c-2.8,0-5.4-0.6-7.7-1.9c-2.3-1.3-4.1-3-5.4-5.3c-1.3-2.3-1.9-4.8-1.9-7.7
		c0-2.8,0.6-5.4,1.9-7.7c1.3-2.3,3.1-4,5.4-5.3c2.3-1.3,4.8-1.9,7.7-1.9c2.9,0,5.5,0.6,7.7,1.9c2.3,1.3,4.1,3.1,5.4,5.3
		c1.3,2.3,1.9,4.8,1.9,7.7c0,2.8-0.6,5.4-1.9,7.7C433.9,181.2,432.1,182.9,429.8,184.2 M429.8,176.1c0.7-1.4,1.1-3.1,1.1-4.8
		c0-1.8-0.4-3.4-1.1-4.8c-0.7-1.4-1.7-2.6-3.1-3.4c-1.3-0.8-2.9-1.2-4.6-1.2s-3.2,0.4-4.6,1.2c-1.3,0.8-2.3,2-3.1,3.4
		c-0.7,1.4-1.1,3.1-1.1,4.8c0,1.8,0.4,3.4,1.1,4.8c0.7,1.4,1.7,2.6,3.1,3.4c1.3,0.8,2.8,1.2,4.6,1.2s3.3-0.4,4.6-1.2
		C428,178.7,429,177.5,429.8,176.1 M457.8,185.6v-23.4h8.4v-5.4h-22.9v5.4h8.4v23.4H457.8z M474.7,185.6H495v-5.3h-14.2v-6.7h13.9
		v-5.3h-13.9v-6.2H495v-5.3h-20.3V185.6z M510.5,184.3c2.3,1.3,4.8,1.9,7.6,1.9c5.4,0,9.5-2.4,12.2-7.1l-5.3-2.5
		c-0.6,1.2-1.6,2.2-2.8,3c-1.2,0.8-2.6,1.2-4.2,1.2c-1.6,0-3.1-0.4-4.5-1.2c-1.4-0.8-2.4-1.9-3.2-3.4c-0.8-1.4-1.1-3.1-1.1-4.8
		c0-1.8,0.4-3.4,1.1-4.8c0.8-1.4,1.8-2.6,3.2-3.4c1.3-0.8,2.8-1.2,4.5-1.2c1.5,0,2.9,0.4,4.2,1.2c1.2,0.8,2.2,1.8,2.8,3l5.3-2.6
		c-1.2-2.1-2.8-3.8-4.7-5.1c-2-1.3-4.5-2-7.5-2c-2.8,0-5.3,0.6-7.6,1.9c-2.3,1.3-4.1,3-5.4,5.3c-1.3,2.3-2,4.8-2,7.7
		c0,2.9,0.7,5.5,2,7.7C506.4,181.3,508.2,183,510.5,184.3 M559.8,156.8h-22.9v5.4h8.4v23.4h6.2v-23.4h8.4V156.8z M574.4,156.8h-6.1
		v28.7h6.1V156.8z M613.4,171.3c0,2.8-0.6,5.4-1.9,7.7c-1.3,2.3-3.1,4-5.4,5.3c-2.3,1.3-4.9,1.9-7.7,1.9c-2.8,0-5.4-0.6-7.7-1.9
		c-2.3-1.3-4.1-3-5.4-5.3c-1.3-2.3-1.9-4.8-1.9-7.7c0-2.8,0.6-5.4,1.9-7.7c1.3-2.3,3.1-4,5.4-5.3c2.3-1.3,4.8-1.9,7.7-1.9
		c2.9,0,5.5,0.6,7.7,1.9c2.3,1.3,4.1,3.1,5.4,5.3C612.7,165.9,613.4,168.4,613.4,171.3 M607.1,171.3c0-1.8-0.4-3.4-1.1-4.8
		c-0.7-1.4-1.7-2.6-3.1-3.4c-1.3-0.8-2.9-1.2-4.6-1.2c-1.7,0-3.2,0.4-4.6,1.2c-1.3,0.8-2.3,2-3.1,3.4c-0.7,1.4-1.1,3.1-1.1,4.8
		c0,1.8,0.4,3.4,1.1,4.8c0.7,1.4,1.7,2.6,3.1,3.4c1.3,0.8,2.8,1.2,4.6,1.2c1.7,0,3.3-0.4,4.6-1.2c1.3-0.8,2.4-1.9,3.1-3.4
		C606.7,174.7,607.1,173,607.1,171.3 M628.4,166.3l13.7,19.3h5.9v-28.7h-6.1v18.6l-13.3-18.6h-6.3v28.7h6.1V166.3z M279.5,339
		c-1.3-0.6-3.1-1.1-5.2-1.7c-1.6-0.4-2.9-0.8-3.8-1.1c-0.9-0.3-1.6-0.8-2.3-1.4c-0.6-0.6-0.9-1.3-0.9-2.2c0-1.4,0.6-2.5,1.7-3.3
		c1.1-0.9,2.5-1.3,4.2-1.3c1.6,0,3.2,0.3,4.6,0.9c1.4,0.6,2.7,1.4,3.7,2.6l2.2-2.6c-2.5-2.7-5.9-4-10.2-4c-1.9,0-3.5,0.3-5,1
		c-1.5,0.7-2.7,1.6-3.5,2.8c-0.9,1.2-1.3,2.6-1.3,4.1c0,1.8,0.5,3.2,1.4,4.2c0.9,1.1,2,1.8,3.3,2.4c1.3,0.5,3,1.1,5.1,1.6
		c1.7,0.5,3,0.9,3.9,1.3s1.7,0.9,2.4,1.6c0.6,0.7,1,1.5,1,2.6c0,1.3-0.5,2.5-1.6,3.5c-1.1,1-2.8,1.5-5.1,1.5c-1.9,0-3.6-0.4-5.1-1.2
		c-1.6-0.8-2.9-1.8-3.9-2.9l-2.1,2.7c1.3,1.4,2.8,2.5,4.7,3.3c1.9,0.8,4,1.2,6.4,1.2c2.4,0,4.5-0.4,6.1-1.2c1.6-0.8,2.8-1.8,3.5-3.1
		c0.7-1.3,1.1-2.7,1.1-4.2c0-1.9-0.5-3.4-1.4-4.5C281.9,340.4,280.8,339.5,279.5,339 M306.8,325.2l11.6,28.7h-4l-2.5-6.4h-14.6
		l-2.5,6.4h-4l11.5-28.7H306.8z M310.9,344.4l-6.2-16l-6.2,16H310.9z M347,347.9l-16.5-22.7h-3.7V354h3.6v-23.2l16.8,23.2h3.4v-28.7
		H347V347.9z M400.4,332.3c1.2,2.2,1.8,4.6,1.8,7.3c0,2.7-0.6,5.2-1.8,7.3c-1.2,2.2-2.9,3.9-5.2,5.1c-2.2,1.2-4.8,1.9-7.7,1.9h-9.8
		v-28.7h9.8c2.9,0,5.5,0.6,7.7,1.9C397.4,328.3,399.1,330.1,400.4,332.3 M398.5,339.6c0-2.1-0.4-4-1.3-5.7c-0.9-1.7-2.1-3-3.8-4
		c-1.7-1-3.6-1.5-5.9-1.5h-6.2v22.4h6.2c2.3,0,4.2-0.5,5.9-1.5c1.7-1,2.9-2.3,3.8-4C398,343.6,398.5,341.7,398.5,339.6 M412.4,354
		h3.6v-28.7h-3.6V354z M427.3,354h18.8v-3.2h-15.3v-9.9h15v-3.2h-15v-9.3h15.3v-3.2h-18.8V354z M467.9,342.4h11.8
		c-0.4,2.6-1.4,4.7-3,6.4c-1.6,1.7-3.8,2.5-6.6,2.5c-2.1,0-3.9-0.5-5.6-1.5c-1.7-1-3-2.4-4-4.2c-1-1.8-1.4-3.8-1.4-6
		c0-2.2,0.5-4.2,1.4-6c1-1.8,2.3-3.2,4-4.2c1.7-1,3.6-1.5,5.6-1.5c1.7,0,3.2,0.4,4.7,1.1c1.5,0.7,2.7,1.7,3.6,2.9l2.8-1.8
		c-2.9-3.6-6.6-5.4-11.2-5.4c-2.7,0-5.2,0.6-7.5,1.9c-2.3,1.2-4,3-5.3,5.3c-1.3,2.3-2,4.8-2,7.7c0,2.9,0.7,5.5,2,7.8
		c1.3,2.3,3.1,4,5.3,5.3c2.2,1.2,4.6,1.9,7.3,1.9c2.9,0,5.3-0.6,7.4-1.9c2.1-1.3,3.7-3.1,4.7-5.4c1.1-2.3,1.6-5,1.6-8h-15.7V342.4z
		 M518.8,332c1.2,2.3,1.8,4.8,1.8,7.6c0,2.8-0.6,5.4-1.8,7.6c-1.2,2.3-2.9,4-5,5.3c-2.2,1.3-4.6,1.9-7.4,1.9c-2.8,0-5.3-0.6-7.4-1.9
		c-2.2-1.3-3.8-3.1-5-5.3c-1.2-2.3-1.8-4.8-1.8-7.6c0-2.8,0.6-5.4,1.8-7.6c1.2-2.3,2.9-4,5-5.3c2.2-1.3,4.6-1.9,7.4-1.9
		c2.8,0,5.3,0.6,7.4,1.9C515.9,328,517.6,329.8,518.8,332 M516.9,339.6c0-2.2-0.4-4.3-1.3-6c-0.9-1.8-2.1-3.2-3.7-4.2
		c-1.6-1-3.4-1.5-5.5-1.5c-2.1,0-4,0.5-5.6,1.5c-1.6,1-2.8,2.4-3.7,4.2c-0.9,1.8-1.3,3.8-1.3,6c0,2.2,0.4,4.2,1.3,6
		c0.9,1.8,2.1,3.2,3.7,4.2c1.6,1,3.5,1.5,5.6,1.5c2.1,0,3.9-0.5,5.5-1.5c1.6-1,2.8-2.4,3.7-4.2C516.4,343.8,516.9,341.8,516.9,339.6
		"/>
	<polygon class="st0" points="103.9,490.2 103.9,432.4 163,425.1 163,405.1 51.8,418.9 64,456.3 51.8,496.7 	"/>
	<path class="st2" d="M445.4,1791.7h3.9c3,0,4.5-1,4.5-2.9c0-1.8-1.6-2.9-4.7-2.9h-3.6V1791.7z M445.4,1778v5.3h3.4
		c2.5,0,3.9-0.9,3.9-2.7c0-1.7-1.4-2.7-3.9-2.7L445.4,1778L445.4,1778z M440.1,1794.6v-2.9h2.3V1778h-2.3v-2.9h9
		c4.2,0,6.7,1.9,6.7,5.2c0,2.2-1.3,3.5-2.9,4.2c2.3,0.6,4,2.3,4,4.5c0,3.6-2.8,5.5-7.3,5.5L440.1,1794.6L440.1,1794.6z"/>
	<path class="st2" d="M473.3,1784.4c-0.3-1.1-1.2-1.8-2.3-1.8c-2.6,0-5.1,1.9-5.1,5.4v3.7h5v2.9h-11.1v-2.9h3.2v-8.6h-2.5v-2.9h5.4
		v2.4c0.9-1.7,2.8-2.9,5.2-2.9c2.8,0,4.5,1.6,5,3.8L473.3,1784.4"/>
	<path class="st2" d="M488.5,1788.8c-0.9-0.3-2.4-0.6-3.7-0.6c-1.9,0-3.7,0.6-3.7,2.3c0,1.3,1.1,1.9,2.7,1.9c2.2,0,4.7-1.2,4.7-3.2
		L488.5,1788.8L488.5,1788.8z M488.5,1786.2v-0.8c0-2-1.6-2.9-3.4-2.9c-1.7,0-3.1,0.7-4.2,1.7l-2-2.1c1.4-1.2,3.3-2.4,6.2-2.4
		c3.6,0,6.4,1.9,6.4,5.5v6.4h2.1v2.9h-5.1v-1.5c-0.8,1.2-2.9,2-4.9,2c-3,0-5.5-1.5-5.5-4.5c0-3.5,3.5-4.9,6.7-4.9
		C486.2,1785.7,487.5,1786,488.5,1786.2"/>
	<path class="st2" d="M502.8,1773h3.3v4.4h-3.3V1773z M511.7,1791.7v2.9h-14.5v-2.9h6v-8.6h-4.6v-2.9h7.6v11.5L511.7,1791.7
		L511.7,1791.7z"/>
	<path class="st2" d="M515.3,1791.7h2.2v-8.6h-2.1v-2.9h5v1.8c0.9-1.4,2.7-2.3,4.9-2.3c3.2,0,5.5,2,5.5,5.3v6.6h2.2v2.9h-7.5v-2.9
		h2.3v-5.8c0-2.5-1.5-3.2-2.9-3.2c-2.3,0-4.5,1.7-4.5,4.3v4.8h2.3v2.9h-7.5V1791.7"/>
	<path class="st2" d="M537.1,1783.1h-3.7v-2.9h3.7v-5.2h3v5.2h7v2.9h-7v6c0,2.2,1.6,3.1,3.3,3.1c1.7,0,3.1-0.9,4.2-2l2,2
		c-1.3,1.4-3.3,2.7-6.1,2.7c-3.6,0-6.3-2-6.3-5.8L537.1,1783.1"/>
	<path class="st2" d="M565.8,1784.4c-0.3-1.1-1.2-1.8-2.3-1.8c-2.6,0-5.1,1.9-5.1,5.4v3.7h5v2.9h-11.1v-2.9h3.2v-8.6h-2.5v-2.9h5.4
		v2.4c0.9-1.7,2.8-2.9,5.2-2.9c2.8,0,4.5,1.6,5,3.8L565.8,1784.4"/>
	<path class="st2" d="M573.8,1785.9h8.8c-0.4-2-2.3-3.4-4.3-3.4C576.1,1782.5,574.3,1783.9,573.8,1785.9 M585.8,1792.4
		c-1.5,1.5-4.1,2.7-7.1,2.7c-4.8,0-8.2-3.2-8.2-7.6c0-4.4,3.3-7.6,7.8-7.6c4.5,0,7.7,3.5,7.7,8.2v0.5h-12.4c0.5,2.4,2.5,3.8,5.1,3.8
		c2.2,0,4-0.9,5-2L585.8,1792.4z"/>
	<path class="st2" d="M592.3,1785.9h8.8c-0.4-2-2.3-3.4-4.3-3.4C594.5,1782.5,592.8,1783.9,592.3,1785.9 M604.3,1792.4
		c-1.5,1.5-4.1,2.7-7.1,2.7c-4.8,0-8.2-3.2-8.2-7.6c0-4.4,3.3-7.6,7.8-7.6c4.5,0,7.7,3.5,7.7,8.2v0.5h-12.4c0.5,2.4,2.5,3.8,5.1,3.8
		c2.2,0,4-0.9,5-2L604.3,1792.4z"/>
	<path class="st2" d="M520.7,1807.3l-0.8,1.5h-0.9l3.4-6.4h0.8l1.4,6.4h-0.9l-0.3-1.5H520.7z M522.7,1803.5l-1.6,3h2.2L522.7,1803.5
		z"/>
	<path class="st2" d="M579.2,1808.2c0.3,0,0.6-0.1,0.8-0.2c0.2-0.1,0.4-0.3,0.5-0.5c0.1-0.2,0.2-0.4,0.2-0.6c0-0.2-0.1-0.3-0.2-0.5
		c-0.1-0.1-0.3-0.3-0.5-0.4l-0.8-0.3c-0.5-0.2-0.8-0.4-1-0.7c-0.2-0.2-0.3-0.5-0.3-0.9c0-0.4,0.1-0.7,0.3-1c0.2-0.3,0.5-0.5,0.8-0.7
		c0.3-0.2,0.7-0.2,1.2-0.2c0.4,0,0.7,0.1,1,0.2c0.3,0.1,0.5,0.2,0.7,0.4l-0.1,0.9c-0.5-0.4-1-0.7-1.7-0.7c-0.4,0-0.7,0.1-0.9,0.3
		c-0.2,0.2-0.4,0.4-0.4,0.7c0,0.2,0.1,0.3,0.2,0.4c0.1,0.1,0.3,0.2,0.7,0.4l0.8,0.4c0.4,0.2,0.7,0.4,0.9,0.7
		c0.2,0.2,0.3,0.5,0.3,0.9c0,0.4-0.1,0.7-0.2,1.1c-0.2,0.3-0.4,0.6-0.8,0.8c-0.4,0.2-0.8,0.3-1.4,0.3c-0.8,0-1.4-0.2-1.9-0.6
		l0.1-0.9C578,1808,578.6,1808.2,579.2,1808.2"/>
	<path class="st2" d="M586.1,1804.6c0.3,0.3,0.5,0.8,0.5,1.3c0,0.2,0,0.3,0,0.4c0,0.1,0,0.3-0.1,0.4H583c0,0.5,0.1,0.8,0.4,1.1
		c0.3,0.2,0.6,0.4,1.1,0.4c0.3,0,0.6,0,0.8-0.1s0.5-0.2,0.8-0.3l-0.1,0.7c-0.5,0.3-1,0.5-1.7,0.5c-0.4,0-0.8-0.1-1.1-0.3
		c-0.3-0.2-0.5-0.4-0.7-0.8c-0.2-0.3-0.2-0.7-0.2-1.1c0-0.4,0.1-0.8,0.3-1.2c0.2-0.4,0.5-0.8,0.9-1.1c0.4-0.3,0.9-0.4,1.5-0.4
		C585.4,1804.1,585.8,1804.3,586.1,1804.6 M583.7,1805.2c-0.3,0.3-0.5,0.6-0.6,0.9h2.7c0-0.1,0-0.1,0-0.2c0-0.3-0.1-0.6-0.3-0.8
		c-0.2-0.2-0.4-0.3-0.8-0.3C584.3,1804.8,584,1805,583.7,1805.2"/>
	<path class="st2" d="M589.5,1805c-0.4,0-0.7,0.1-0.9,0.4c-0.3,0.3-0.4,0.6-0.5,1.1l-0.4,2.3h-0.8l0.7-4.5h0.8l-0.1,0.8
		c0.4-0.5,0.8-0.8,1.3-0.8c0.1,0,0.3,0,0.4,0l-0.1,0.7C589.7,1805,589.6,1805,589.5,1805"/>
	<polygon class="st2" points="591.9,1808.8 591.2,1808.8 590.1,1804.3 590.9,1804.3 591.7,1807.8 593.6,1804.3 594.4,1804.3 	"/>
	<path class="st2" d="M594.9,1808.8h-0.8l0.7-4.5h0.8L594.9,1808.8z M595,1803.4c-0.1-0.1-0.1-0.2-0.1-0.3c0-0.2,0.1-0.3,0.2-0.4
		c0.1-0.1,0.3-0.2,0.4-0.2c0.1,0,0.2,0,0.3,0.1c0.1,0.1,0.1,0.2,0.1,0.3c0,0.2-0.1,0.3-0.2,0.4c-0.1,0.1-0.3,0.2-0.4,0.2
		C595.2,1803.5,595.1,1803.5,595,1803.4"/>
	<path class="st2" d="M596.9,1808.7c-0.3-0.2-0.5-0.4-0.7-0.8c-0.2-0.3-0.3-0.7-0.3-1.1c0-0.5,0.1-0.9,0.3-1.4c0.2-0.4,0.5-0.8,1-1
		c0.4-0.3,0.9-0.4,1.5-0.4c0.5,0,1,0.1,1.3,0.4l-0.1,0.8c-0.3-0.3-0.7-0.5-1.2-0.5c-0.4,0-0.7,0.1-1,0.3c-0.3,0.2-0.5,0.4-0.7,0.7
		c-0.2,0.3-0.2,0.6-0.2,1c0,0.4,0.1,0.7,0.4,1s0.6,0.4,1,0.4c0.3,0,0.5,0,0.8-0.1c0.3-0.1,0.5-0.2,0.7-0.4l-0.1,0.9
		c-0.2,0.2-0.5,0.3-0.7,0.3c-0.2,0.1-0.5,0.1-0.8,0.1C597.5,1809,597.2,1808.9,596.9,1808.7"/>
	<path class="st2" d="M604.1,1804.6c0.3,0.3,0.5,0.8,0.5,1.3c0,0.2,0,0.3,0,0.4c0,0.1,0,0.3-0.1,0.4h-3.5c0,0.5,0.1,0.8,0.4,1.1
		c0.3,0.2,0.6,0.4,1.1,0.4c0.3,0,0.6,0,0.8-0.1c0.3-0.1,0.5-0.2,0.7-0.3l-0.1,0.7c-0.5,0.3-1,0.5-1.7,0.5c-0.4,0-0.8-0.1-1.1-0.3
		c-0.3-0.2-0.5-0.4-0.7-0.8c-0.2-0.3-0.2-0.7-0.2-1.1c0-0.4,0.1-0.8,0.3-1.2c0.2-0.4,0.5-0.8,0.9-1.1c0.4-0.3,0.9-0.4,1.5-0.4
		C603.3,1804.1,603.8,1804.3,604.1,1804.6 M601.6,1805.2c-0.3,0.3-0.5,0.6-0.6,0.9h2.7c0-0.1,0-0.1,0-0.2c0-0.3-0.1-0.6-0.3-0.8
		c-0.2-0.2-0.4-0.3-0.8-0.3C602.3,1804.8,601.9,1805,601.6,1805.2"/>
	<path class="st2" d="M559.3,1799.1h-3.5c-0.2,0-0.4,0.2-0.5,0.4l-1.4,9c0,0.2,0.1,0.3,0.3,0.3h1.8c0.2,0,0.3-0.1,0.3-0.3l0.4-2.5
		c0-0.2,0.2-0.4,0.5-0.4h1.1c2.3,0,3.6-1.1,4-3.3c0.2-1,0-1.7-0.4-2.3C561.4,1799.4,560.5,1799.1,559.3,1799.1 M559.7,1802.3
		c-0.2,1.3-1.2,1.3-2.1,1.3h-0.5l0.4-2.3c0-0.1,0.1-0.2,0.3-0.2h0.2c0.6,0,1.2,0,1.5,0.4C559.7,1801.6,559.8,1801.9,559.7,1802.3"/>
	<path class="st2" d="M534.3,1799.1h-3.5c-0.2,0-0.4,0.2-0.5,0.4l-1.4,9c0,0.2,0.1,0.3,0.3,0.3h1.7c0.2,0,0.4-0.2,0.5-0.4l0.4-2.4
		c0-0.2,0.2-0.4,0.5-0.4h1.1c2.3,0,3.6-1.1,4-3.3c0.2-1,0-1.7-0.4-2.3C536.4,1799.4,535.5,1799.1,534.3,1799.1 M534.7,1802.3
		c-0.2,1.3-1.2,1.3-2.1,1.3h-0.5l0.4-2.3c0-0.1,0.1-0.2,0.3-0.2h0.2c0.6,0,1.2,0,1.5,0.4C534.7,1801.6,534.8,1801.9,534.7,1802.3"/>
	<path class="st2" d="M544.8,1802.3h-1.7c-0.1,0-0.3,0.1-0.3,0.2l-0.1,0.5l-0.1-0.2c-0.4-0.5-1.2-0.7-2-0.7c-1.9,0-3.4,1.4-3.7,3.4
		c-0.2,1,0.1,1.9,0.6,2.6c0.5,0.6,1.2,0.9,2.1,0.9c1.5,0,2.3-1,2.3-1l-0.1,0.5c0,0.2,0.1,0.3,0.3,0.3h1.5c0.2,0,0.4-0.2,0.5-0.4
		l0.9-5.7C545.1,1802.5,545,1802.3,544.8,1802.3 M542.4,1805.6c-0.2,1-0.9,1.6-1.9,1.6c-0.5,0-0.9-0.2-1.1-0.5
		c-0.2-0.3-0.3-0.7-0.3-1.2c0.2-0.9,0.9-1.6,1.9-1.6c0.5,0,0.9,0.2,1.1,0.5C542.4,1804.7,542.5,1805.1,542.4,1805.6"/>
	<path class="st2" d="M569.8,1802.3h-1.7c-0.1,0-0.3,0.1-0.3,0.2l-0.1,0.5l-0.1-0.2c-0.4-0.5-1.2-0.7-2-0.7c-1.9,0-3.4,1.4-3.7,3.4
		c-0.2,1,0.1,1.9,0.6,2.6c0.5,0.6,1.2,0.9,2.1,0.9c1.5,0,2.3-1,2.3-1l-0.1,0.5c0,0.2,0.1,0.3,0.3,0.3h1.5c0.2,0,0.4-0.2,0.5-0.4
		l0.9-5.7C570.1,1802.5,570,1802.3,569.8,1802.3 M567.4,1805.6c-0.2,1-0.9,1.6-1.9,1.6c-0.5,0-0.9-0.2-1.1-0.5
		c-0.2-0.3-0.3-0.7-0.3-1.2c0.2-0.9,0.9-1.6,1.9-1.6c0.5,0,0.9,0.2,1.1,0.5C567.4,1804.7,567.5,1805.1,567.4,1805.6"/>
	<path class="st2" d="M553.7,1802.3H552c-0.2,0-0.3,0.1-0.4,0.2l-2.3,3.4l-1-3.3c-0.1-0.2-0.3-0.3-0.5-0.3h-1.7
		c-0.2,0-0.3,0.2-0.3,0.4l1.9,5.5l-1.7,2.5c-0.1,0.2,0,0.5,0.2,0.5h1.7c0.2,0,0.3-0.1,0.4-0.2l5.6-8.1
		C554.1,1802.6,553.9,1802.3,553.7,1802.3"/>
	<path class="st2" d="M571.8,1799.3l-1.4,9.2c0,0.2,0.1,0.3,0.3,0.3h1.4c0.2,0,0.4-0.2,0.5-0.4l1.4-9c0-0.2-0.1-0.3-0.3-0.3H572
		C571.9,1799.1,571.8,1799.2,571.8,1799.3"/>
	<path class="st3" d="M146,1776.9c-0.6,0-1,0.5-1,1v7.2h19.1l-8.7-8.3L146,1776.9z"/>
	<path class="st3" d="M164.8,1787.3c0-0.6-0.5-1-1-1h-7.2v19.1l8.3-8.7L164.8,1787.3z"/>
	<path class="st3" d="M154.3,1806.1c0.6,0,1-0.5,1-1v-7.2h-19.1l8.7,8.3L154.3,1806.1z"/>
	<path class="st3" d="M135.6,1795.7c0,0.6,0.5,1,1,1h7.2v-19.1l-8.3,8.7V1795.7z"/>
	<polygon class="st4" points="48,1780.4 48,1789.2 35.7,1789.2 35.7,1780.4 31.2,1780.4 31.2,1802.6 35.7,1802.6 35.7,1793.1 
		48,1793.1 48,1802.6 52.5,1802.6 52.5,1780.4 	"/>
	<polygon class="st4" points="107.5,1780.4 107.5,1802.6 127.2,1802.6 124.7,1798.7 112,1798.7 112,1793.1 124.3,1793.1 
		124.3,1789.3 112,1789.3 112,1784.2 124.7,1784.2 127.1,1780.4 	"/>
	<path class="st4" d="M14.6,1780.4c-4.7,0-7,2.8-7,6.9v8.3c0,4.8,3,7,7,7l14,0l-2.6-4.1H15.4c-2.2,0-3.2-0.8-3.2-3.3v-7.5
		c0-2.4,0.8-3.4,3.3-3.4h10.6l2.5-3.9H14.6z"/>
	<path class="st4" d="M87.9,1780.4c-2.7,0-5.4,1.6-5.4,5.8v1.1c0,4.3,2.7,6,5.3,6h9.3c1,0,1.8,0.2,1.8,1.8l0,1.9
		c0,1.5-0.8,1.8-1.8,1.8H84.8l-2.5,3.9h15.1c3.6,0,6.1-1.8,6.1-6v-1.5c0-4-2.3-5.9-5.8-5.9h-8.9c-1,0-1.7-0.3-1.7-1.7
		c0,0,0-1.5,0-1.5c0-1.2,0.5-1.7,1.6-1.7l11.7,0l2.4-3.8L87.9,1780.4z"/>
	<path class="st4" d="M67.7,1785l4.1,9.2h-8.1L67.7,1785z M65.5,1780.4l-10.5,22.2h5l2.1-4.6h11.5l2,4.6h5l-10.6-22.2H65.5z"/>
</g>
</svg>
